<svg xmlns="http://www.w3.org/2000/svg" width="190" height="155" viewBox="0 0 190 155"><g id="points"><path d="M34,111.81V98.54H20.85V83.84H34V70.7h14.7V83.84H62v14.7H48.69v13.27Z"/><path d="M79.78,44.81a15.76,15.76,0,0,1-6.18,4.42A19.35,19.35,0,0,1,66,50.92V33.1a29.67,29.67,0,0,0,11.38-4.56,20.65,20.65,0,0,0,8.13-9.49h18V130.93H79.78Z"/><path d="M117.77,124q-7.68-8-7.68-22.83V50.66q0-15.87,7.42-24.2t22.11-8.32q14.83,0,22.25,8.32t7.41,24.2v50.48q0,15-7.67,22.9t-22,7.93Q125.44,132,117.77,124Zm25.88-14.83a9.26,9.26,0,0,0,1.57-5.4V48.58a19,19,0,0,0-1.11-7.35c-.74-1.69-2.23-2.54-4.49-2.54s-3.73.85-4.42,2.54a20,20,0,0,0-1,7.35v55.16a9.68,9.68,0,0,0,1.49,5.4,4.56,4.56,0,0,0,4,2.28A4.7,4.7,0,0,0,143.65,109.14Z"/></g></svg>