<svg xmlns="http://www.w3.org/2000/svg" width="190" height="155" viewBox="0 0 190 155"><g id="points"><path d="M23.38,112.63V99.36H10.25V84.66H23.38V71.52H38.09V84.66H51.36v14.7H38.09v13.27Z"/><path d="M57.73,126.42a40.44,40.44,0,0,1,2.41-14.18,54.88,54.88,0,0,1,5.91-11.71q3.53-5.2,9.24-12.23,5.85-7.27,9.3-12.36A53.25,53.25,0,0,0,90.45,64.3a41.21,41.21,0,0,0,2.4-14.24A15.73,15.73,0,0,0,91.55,43c-.86-1.7-2.43-2.54-4.68-2.54q-5.59,0-5.59,10V64.11H57.73l-.26-6.9q0-12.75,2.6-20.94a22.51,22.51,0,0,1,9.11-12.49q6.5-4.3,17.95-4.3,14.06,0,21.73,7.87t7.67,22.32A51.84,51.84,0,0,1,114,66.38a56.72,56.72,0,0,1-6.25,13.08q-3.7,5.6-9.82,13.14-4.43,5.33-7.35,9.49a80.43,80.43,0,0,0-5.27,8.59h30.44v21.07h-58Z"/><path d="M128.37,124.79q-7.68-8-7.68-22.83V51.49q0-15.87,7.42-24.2T150.23,19q14.82,0,22.24,8.33t7.42,24.2V102q0,15-7.68,22.9t-22,7.94Q136,132.8,128.37,124.79ZM154.26,110a9.27,9.27,0,0,0,1.56-5.39V49.41a19.11,19.11,0,0,0-1.11-7.36c-.73-1.69-2.23-2.53-4.48-2.53s-3.73.84-4.43,2.53a20.35,20.35,0,0,0-1,7.36v55.16a9.54,9.54,0,0,0,1.5,5.39,4.55,4.55,0,0,0,4,2.28A4.71,4.71,0,0,0,154.26,110Z"/></g></svg>