<svg xmlns="http://www.w3.org/2000/svg" width="190" height="155" viewBox="0 0 190 155"><g id="points"><path d="M23.38,112.63V99.36H10.25V84.66H23.38V71.52H38.09V84.66H51.36v14.7H38.09v13.27Z"/><path d="M64.62,126.75q-7.94-6.57-7.93-19.45V90.78H80v9.49a27.45,27.45,0,0,0,1.17,9A4.64,4.64,0,0,0,86,112.5q3.38,0,4.62-2.21a13.67,13.67,0,0,0,1.23-6.51v-22a26.89,26.89,0,0,0-1.1-8.52,4.45,4.45,0,0,0-4.62-3.19q-6.37,0-6.38,9.24H59.29V19.87H112.5v21h-32V56.56a12.73,12.73,0,0,1,4.55-3.64,14.25,14.25,0,0,1,6.5-1.43q14.06,0,19.19,9.88t5.14,28q0,15-2.15,24.27t-8.65,14.5q-6.49,5.2-19.12,5.21Q72.57,133.32,64.62,126.75Z"/><path d="M128.37,124.79q-7.68-8-7.68-22.83V51.49q0-15.87,7.42-24.2T150.23,19q14.82,0,22.24,8.33t7.42,24.2V102q0,15-7.68,22.9t-22,7.94Q136,132.8,128.37,124.79ZM154.26,110a9.27,9.27,0,0,0,1.56-5.39V49.41a19.11,19.11,0,0,0-1.11-7.36c-.73-1.69-2.23-2.53-4.48-2.53s-3.73.84-4.43,2.53a20.35,20.35,0,0,0-1,7.36v55.16a9.54,9.54,0,0,0,1.5,5.39,4.55,4.55,0,0,0,4,2.28A4.71,4.71,0,0,0,154.26,110Z"/></g></svg>