<svg xmlns="http://www.w3.org/2000/svg" width="140" height="195" viewBox="0 0 140 195"><defs><style>.cls-1{fill:#8428a3;}.cls-2{fill:#2c004c;}.cls-3{fill:#6e00ce;opacity:0.66;}.cls-4{fill:#952dc1;}.cls-5{fill:#bf5de8;}</style></defs><g id="Layer_4" data-name="Layer 4"><path class="cls-1" d="M15.89,91.39s-4.09,44.33,4.85,55.5c0,0,11.92,26.45,38.74,33.9s51.72-18.56,54.73-24.37,14.73-21.07,8.68-66S15.89,91.39,15.89,91.39Z"/><path class="cls-2" d="M6.4,67.74S38.8,15.21,111.81,48.37c0,0,48.43,30.54,12.3,42.09,0,0-80.75-6.71-109.29,0C14.82,90.46-4.41,89.71,6.4,67.74Z"/><path class="cls-3" d="M99.71,48.55s17.13,16.76,16,27.94c0,0,5.21,15.64,11.92,4.1S107.53,49.3,99.71,48.55Z"/><path class="cls-2" d="M70.3,37S69.16,22.48,53.15,10.18a4,4,0,0,1,2.23-4.47c3-1.49,4.84-4.09,7.45-1.86S75.12,15.4,75.5,37,70.3,37,70.3,37Z"/><path class="cls-1" d="M60.6,181.54s3,12.29,11.92,8.94c0,0,5.91-1.49,5.93-8.94S60.6,181.54,60.6,181.54Z"/><path class="cls-4" d="M32.66,96.23s-4.47,48.06,11.17,64.07,19,19.75,29.8,19.75,11.92-1.12,28.31-10.81,27.2-39.11,21.24-77.85C123.18,91.39,56.87,82.08,32.66,96.23Z"/><path class="cls-5" d="M104.55,102.19s2.24-8.19,11.18-1.49-5.59,61.09-19.37,64.07C96.36,164.77,112.37,138.33,104.55,102.19Z"/></g></svg>