<svg xmlns="http://www.w3.org/2000/svg" width="105" height="170" viewBox="0 0 105 170"><defs><style>.cls-1{fill:#d80010;}.cls-2{fill:#ea3b58;}.cls-3{fill:#ff6e8d;}.cls-4{fill:#960516;}</style></defs><g id="almomd"><path class="cls-1" d="M98.61,123.18c-.37,2.83-.82,5.42-1.33,7.71-2.18,9.84-9.22,18.59-15.86,24.71h0l-.57.52c-5.13,4.62-9.93,7.63-12,8.31C64.13,166,48.35,168,34.54,161.67a37.44,37.44,0,0,1-7.09-4.35c-1-.75-2-1.57-3-2.46h0C11.71,143.41-1.31,120.15,8.89,84.32A182.5,182.5,0,0,1,17,61.84C19.06,57,21.28,52.37,23.57,48A220.74,220.74,0,0,1,52.69,5l.64.58.12.11c.36.34.86.8,1.46,1.38h0a178,178,0,0,1,28.8,37.31h0c.09.15.19.31.27.46v0c.89,1.54,1.76,3.11,2.63,4.72,8.21,15.36,11.81,33,12.74,48.65h0A135.64,135.64,0,0,1,98.61,123.18Z"/><path class="cls-2" d="M53.33,5.58l-10.11,12S32.56,78.8,35.33,93c2,10.5,8.17,29,16.8,38.69a27.25,27.25,0,0,0,2.94,2.87A14.42,14.42,0,0,0,62.16,138c13.81,2,29.2,1.58,35.52-12.23a18.86,18.86,0,0,0,.93-2.58c1.68-5.9,1.76-15,.76-24.93h0c-1.71-16.93-6.55-36.34-12-46.67C79.73,36.86,60.71,13.94,55.08,7.27l-.16-.19h0c-.6-.58-1.1-1-1.46-1.38Z"/><path class="cls-3" d="M77.16,54.33S63.74,58.67,65.32,74.46,71.24,93.84,77.16,93s10.65-8.31,10.65-17S84.66,56.3,78,54.33"/><path class="cls-4" d="M27.45,157.32c-1-.75-2-1.57-3-2.46h0c-.36-.55-.59-1-.59-1C13.18,133.64,16.06,76,17,61.84,19.06,57,21.28,52.37,23.57,48c-1.15,9.27-3.91,47.27-2.85,60.39C21.9,122.93,28.56,156.25,27.45,157.32Z"/><path class="cls-4" d="M43.22,17.63l-4.34,5.13S31,86.3,31.38,95s4.46,65.34,6.71,67.09c3.55,2.76,3.19,1.4,3.16,1.18,0,0-6.32-60-5.53-65.91S38.88,20.79,43.22,17.63Z"/><path class="cls-4" d="M56.24,89.06c-.44,1.33-.87,24.93-1.17,45.5-.23,16-.38,30.18-.41,30.66s-2.1.15-2.36-.79c-.22-.76-.15-16.29-.17-32.74,0-19.09-.13-39.42-.92-39.35-1.42.13,1.89-78.47,2.24-86.65.36.34.86.8,1.46,1.38h0l.16.19C55.29,16.93,57,86.84,56.24,89.06Z"/><path class="cls-4" d="M63.83,17.63l3.86,3.55S78,84.32,75.58,112.34s-5.27,51.43-5.27,51.43L65.71,165s5.58-49.6,4.17-71.83S67.48,17.63,63.83,17.63Z"/><path class="cls-4" d="M83.08,153.38l-1.66,2.22h0l-.7.94a3.87,3.87,0,0,0,.13-.42c.93-3.44,5.81-26.38,6.18-43.78.36-17-1.82-60.39-3.3-67.95.09.15.19.31.27.46v0c1.41,3.42,4.6,11.21,4.6,11.83C88.6,57.49,95.57,144.7,83.08,153.38Z"/></g></svg>