<svg xmlns="http://www.w3.org/2000/svg" width="350" height="185" viewBox="0 0 350 185"><defs><style>.cls-1{fill:#424144;}.cls-2{fill:#1e1e21;}.cls-3{fill:#231e20;}.cls-4{fill:#585a5c;}</style></defs><g id="amnvil"><path class="cls-1" d="M15.93,22.49H132.64v-11H335.33v11L331,34.86S239,33.48,226.6,85.23s49,60.46,49,60.46V169.5H237.38s-16.73-23.81-53.83-18.32S149.66,158.51,141,169H101.39V145.69c-3.72,2.65,65.94-33.53,50.1-58.62-1.78-2.82,1.38-12.37-55.87-13.74S10,34.4,8.61,31.19,6.77,20.2,15.93,22.49Z"/><path class="cls-2" d="M131.8,22.49c1.83-.46,203.58,0,203.58,0l-1.08,3.2-202.5-.18Z"/><path class="cls-3" d="M140.5,169s0-.2,0-.56c0-4.13,1.5-29.69,44-35.16,46.25-5.95,54,34.81,53.12,35.26s-7.14-18-43.64-17.7S147.37,159.42,140.5,169Z"/><path class="cls-4" d="M131.8,22.49c.46,0,0,21.85,0,21.85s-109.91-7.65-121.36-20c0,0-1.59-1.37,1.49-1.83S130.43,22.49,131.8,22.49Z"/></g></svg>