<svg xmlns="http://www.w3.org/2000/svg" width="1920" height="1080" viewBox="0 0 1920 1080"><defs><style>.cls-1{fill:#c4d39f;opacity:0.88;}.cls-2{fill:#b4c78f;}.cls-3{fill:#6e9b74;}.cls-4{fill:#fd9000;}.cls-5{fill:#87b27d;}.cls-6{fill:#3c5542;}</style></defs><g id="Layer_22" data-name="Layer 22"><rect class="cls-1" x="-101.74" y="-14.53" width="2046" height="1192"/><rect class="cls-2" x="516.87" y="200.32" width="84" height="743"/><path class="cls-3" d="M400.87,414.82c-90,0-175.2-19.53-239.79-55-33.06-18.14-59.32-39.66-78-64-21-27.27-31.67-56.73-31.67-87.56h65c0,33.58,27.7,68,76,94.54,55.16,30.28,129.21,47,208.51,47s153.35-16.68,208.52-47c48.29-26.5,76-61,76-94.54h65c0,30.83-10.65,60.29-31.67,87.56-18.71,24.3-45,45.82-78,64C576.08,395.29,490.92,414.82,400.87,414.82Z"/><path class="cls-3" d="M269.66,627.22q-7,0-14.29-.32c-73.6-3.21-156.53-30.7-233.5-77.43s-139.65-107.6-176.46-171.42c-18.85-32.67-30.13-64.69-33.53-95.17-3.81-34.21,2.37-64.92,18.37-91.28l55.56,33.72c-17.42,28.71-11.63,72.54,15.9,120.25C-66.85,400.08-12.2,452.76,55.59,493.91S195.34,559.22,258.2,562c55,2.4,96.6-12.69,114-41.39l55.56,33.73c-16,26.36-40.39,46-72.5,58.42C330.34,622.36,301.59,627.22,269.66,627.22Z"/><path class="cls-4" d="M665,137a1.5,1.5,0,0,0,0-3,1.5,1.5,0,0,0,0,3Z"/><ellipse class="cls-2" cx="360.37" cy="954.32" rx="556.5" ry="271"/><ellipse class="cls-2" cx="1330.56" cy="906.82" rx="689.69" ry="318.5"/><rect class="cls-5" x="-144.13" y="816.32" width="2088.38" height="232"/><rect class="cls-3" x="297.87" y="211.32" width="144" height="743"/><polygon class="cls-3" points="540.87 565.96 540.87 565.32 410.87 568.32 410.87 613.32 414.87 613.23 414.87 631.32 544.87 610.32 544.87 565.32 540.87 565.96"/><path id="kotons_drsew" data-name="kotons drsew" class="cls-3" d="M1186.66,19s47.57-11.29,32.13-45.29S-10.69-58.27-17.48-54.55s4.54,383.23,11.75,381.87S36.5,300.79,36.5,300.79c11.33-12.92,13-49.05,24.53-48.67S103.44,209,211.58,209c20.91,0,100.65,80.16,220.91,7.89l8.21-5.08c3.63-2.81,65.42,114.57,289.93,11.67,0,0,23.69,146,186.41,29,0,0,53,32.23,85.47,1.36,0,0,25.75,51.69,76.21-38.08,0,0,48.41,32.64,57.68-76.17C1136.4,139.61,1229.32,54.89,1186.66,19Z"/><rect id="ground" class="cls-3" x="-144.13" y="853.32" width="2116.38" height="255"/><path class="cls-3" d="M1918.87,943.45S1796.42,603.1,1792.23,861.1c0,0-125.65-343.24-137.66-96.62,0,0-261.1-111.38-46.54,106.62,0,0-288.87-139,4.18,155S1918.87,943.45,1918.87,943.45Z"/><path class="cls-6" d="M-128.13,1037.06s160.48-452.83,166-109.57c0,0,164.67-456.67,180.4-128.55,0,0,342.17-148.18,61,141.86,0,0,378.56-184.94-5.49,206.22S-128.13,1037.06-128.13,1037.06Z"/><rect class="cls-6" x="-240.13" y="982.32" width="2226.38" height="269"/></g></svg>