<svg xmlns="http://www.w3.org/2000/svg" xmlns:xlink="http://www.w3.org/1999/xlink" width="140" height="140" viewBox="0 0 140 140"><defs><style>.cls-1{fill:#c588ed;}.cls-2{opacity:0.73;fill:url(#linear-gradient);}.cls-3{fill:#952dc1;}.cls-4{fill:#fff;opacity:0.21;}.cls-5{opacity:0.56;}.cls-6{fill:#e807b9;}</style><linearGradient id="linear-gradient" x1="173.33" y1="128.45" x2="59.68" y2="67.03" gradientUnits="userSpaceOnUse"><stop offset="0" stop-color="#fff"/><stop offset="1" stop-opacity="0.72"/></linearGradient></defs><g id="closebutton"><ellipse class="cls-1" cx="39.5" cy="23.54" rx="17" ry="8.5"/><path class="cls-2" d="M131.5,48v54a30.09,30.09,0,0,1-30,30h-54a30.1,30.1,0,0,1-29.66-25.55A28.43,28.43,0,0,1,17.5,102V48a30.09,30.09,0,0,1,30-30h54c.67,0,1.33,0,2,.08A30.08,30.08,0,0,1,131.5,48Z"/><path class="cls-3" d="M125.78,38V92a30.09,30.09,0,0,1-30,30h-54A30.1,30.1,0,0,1,12.12,96.41,28.43,28.43,0,0,1,11.78,92V38a30.09,30.09,0,0,1,30-30h54c.67,0,1.33,0,2,.08A30.08,30.08,0,0,1,125.78,38Z"/><path class="cls-4" d="M96.5,22.54C96.5,59,58.88,89.4,8.84,96.49A28.43,28.43,0,0,1,8.5,92V38a30.09,30.09,0,0,1,30-30h54c.67,0,1.33,0,2,.08A52.85,52.85,0,0,1,96.5,22.54Z"/><ellipse class="cls-1" cx="36.5" cy="25.04" rx="14" ry="7"/><path class="cls-5" d="M106.64,98.79,74.33,66.21,105,35.31a3.66,3.66,0,0,0-.24-5.35,4.15,4.15,0,0,0-5.65.09L68.78,60.61,38.48,30.05A4.15,4.15,0,0,0,32.83,30a3.65,3.65,0,0,0-.24,5.35l30.64,30.9L30.91,98.79a3.66,3.66,0,0,0,.25,5.36,4.14,4.14,0,0,0,5.64-.1l32-32.24,32,32.24a4.07,4.07,0,0,0,3.78,1.06,4.19,4.19,0,0,0,1.87-1A3.65,3.65,0,0,0,106.64,98.79Z"/><path class="cls-6" d="M106.64,94.61,74.33,62,105,31.13a3.67,3.67,0,0,0-.24-5.36,4.15,4.15,0,0,0-5.65.1L68.78,56.43,38.48,25.87a4.15,4.15,0,0,0-5.65-.1,3.66,3.66,0,0,0-.24,5.36L63.23,62,30.91,94.61a3.65,3.65,0,0,0,.25,5.35,4.09,4.09,0,0,0,1.87,1,4,4,0,0,0,3.77-1l32-32.25,32,32.25a4.06,4.06,0,0,0,3.78,1,4.19,4.19,0,0,0,1.87-1A3.64,3.64,0,0,0,106.64,94.61Z"/></g></svg>