<svg xmlns="http://www.w3.org/2000/svg" xmlns:xlink="http://www.w3.org/1999/xlink" width="1920" height="1080" viewBox="0 0 1920 1080"><defs><style>.cls-1{fill:url(#linear-gradient);}.cls-2{stroke:#000;stroke-miterlimit:10;opacity:0.58;}.cls-3{fill:#e0771a;}.cls-4{opacity:0.51;}.cls-5{fill:#e807b9;}.cls-6{fill:#952dc1;}.cls-7{opacity:0.48;}.cls-8{fill:url(#linear-gradient-2);}.cls-9{fill:url(#linear-gradient-3);}.cls-10{fill:url(#linear-gradient-4);}.cls-11{fill:url(#linear-gradient-5);}.cls-12{fill:#feeae9;opacity:0.66;}.cls-13{fill:url(#linear-gradient-6);}.cls-14{fill:url(#linear-gradient-7);}.cls-15{fill:url(#linear-gradient-8);}.cls-16{fill:url(#linear-gradient-9);}.cls-17{fill:url(#linear-gradient-10);}.cls-18{fill:url(#linear-gradient-11);}.cls-19{fill:url(#linear-gradient-12);}.cls-20{fill:url(#linear-gradient-13);}.cls-21{fill:#d80010;}.cls-22{fill:#ea3b58;}.cls-23{fill:#ff6e8d;}.cls-24{fill:#960516;}</style><linearGradient id="linear-gradient" x1="1918.76" y1="819.08" x2="734.08" y2="390.15" gradientUnits="userSpaceOnUse"><stop offset="0.28" stop-color="#005742"/><stop offset="0.41" stop-color="#096636"/><stop offset="0.67" stop-color="#218d17"/><stop offset="0.84" stop-color="#32aa00"/></linearGradient><linearGradient id="linear-gradient-2" x1="2023.07" y1="-6623.83" x2="2335.63" y2="-6908.89" gradientTransform="matrix(0.83, 0.11, 0.1, -0.69, -157.84, -4675.04)" gradientUnits="userSpaceOnUse"><stop offset="0.12" stop-color="#943100"/><stop offset="0.23" stop-color="#812f04"/><stop offset="0.38" stop-color="#6c2d08"/><stop offset="0.54" stop-color="#5f2c0b"/><stop offset="0.69" stop-color="#5b2c0c"/></linearGradient><linearGradient id="linear-gradient-3" x1="-4968.07" y1="4188.47" x2="-4793.6" y2="4253.44" gradientTransform="matrix(-0.56, 1.15, 1.7, 0.83, -8369.8, 2517.03)" gradientUnits="userSpaceOnUse"><stop offset="0.1" stop-color="#883003"/><stop offset="0.23" stop-color="#792f06"/><stop offset="0.41" stop-color="#5b2c0c"/></linearGradient><linearGradient id="linear-gradient-4" x1="-4966.78" y1="-6705.71" x2="-4921.14" y2="-6059.87" gradientTransform="matrix(-0.41, 0.9, -1.29, -0.6, -8781.57, 1326.75)" gradientUnits="userSpaceOnUse"><stop offset="0.07" stop-color="#feeae9"/><stop offset="0.42" stop-color="#ce6510"/><stop offset="0.58" stop-color="#b6520b"/><stop offset="0.79" stop-color="#943804"/></linearGradient><linearGradient id="linear-gradient-5" x1="354.52" y1="-8526.02" x2="-197.28" y2="-8259.09" gradientTransform="matrix(0.94, -0.34, -0.34, -0.94, -1785.93, -7217.45)" gradientUnits="userSpaceOnUse"><stop offset="0.03" stop-color="#feeae9"/><stop offset="0.38" stop-color="#d06711"/><stop offset="0.62" stop-color="#ce6510"/><stop offset="0.79" stop-color="#c35a0a"/><stop offset="0.84" stop-color="#bf5608"/></linearGradient><linearGradient id="linear-gradient-6" x1="-12738.33" y1="-6785.93" x2="-12561.08" y2="-6719.92" gradientTransform="matrix(-0.82, 0.14, -0.17, -0.98, -10444.7, -4460.75)" gradientUnits="userSpaceOnUse"><stop offset="0.28" stop-color="#883003"/><stop offset="0.46" stop-color="#973a04"/><stop offset="0.82" stop-color="#be5608"/><stop offset="0.83" stop-color="#bf5608"/></linearGradient><linearGradient id="linear-gradient-7" x1="-11608.75" y1="-271.86" x2="-11481.5" y2="-224.47" gradientTransform="matrix(-0.78, -1.05, 2.53, -1.9, -7097, -11944.01)" xlink:href="#linear-gradient-6"/><linearGradient id="linear-gradient-8" x1="-2955.98" y1="-6597.23" x2="-2865.07" y2="-6563.37" gradientTransform="matrix(0.28, 1.71, -1.57, 0.26, -8529.07, 7449.4)" xlink:href="#linear-gradient-6"/><linearGradient id="linear-gradient-9" x1="-2918.18" y1="-6617.1" x2="-3034.25" y2="-6546.29" gradientTransform="matrix(0.28, 1.71, -1.57, 0.26, -8529.07, 7449.4)" xlink:href="#linear-gradient-6"/><linearGradient id="linear-gradient-10" x1="-970.42" y1="801.57" x2="-720.22" y2="879.86" gradientTransform="matrix(0.64, 1.23, 1.45, -0.75, 96.09, 2270.56)" gradientUnits="userSpaceOnUse"><stop offset="0.44" stop-color="#883003"/><stop offset="0.56" stop-color="#973a04"/><stop offset="0.78" stop-color="#be5608"/><stop offset="0.78" stop-color="#bf5608"/></linearGradient><linearGradient id="linear-gradient-11" x1="-15912.65" y1="-17995.98" x2="-15887.46" y2="-18088.96" gradientTransform="matrix(-0.64, -0.77, 0.77, -0.64, 4529.26, -22857.87)" gradientUnits="userSpaceOnUse"><stop offset="0.1" stop-color="#d2834c"/><stop offset="0.21" stop-color="#d48753"/><stop offset="0.36" stop-color="#d99365"/><stop offset="0.53" stop-color="#e2a783"/><stop offset="0.72" stop-color="#edc2ad"/><stop offset="0.77" stop-color="#f1cab9"/></linearGradient><linearGradient id="linear-gradient-12" x1="-1738.11" y1="-33254.64" x2="-2007.05" y2="-33085.71" gradientTransform="matrix(-1, 0.08, -0.08, -1, -3758.19, -32151.75)" gradientUnits="userSpaceOnUse"><stop offset="0.19" stop-color="#feeae9"/><stop offset="0.27" stop-color="#f5d4c7"/><stop offset="0.48" stop-color="#de9e76"/><stop offset="0.65" stop-color="#cd773b"/><stop offset="0.77" stop-color="#c35f16"/><stop offset="0.83" stop-color="#bf5608"/></linearGradient><linearGradient id="linear-gradient-13" x1="-12613.2" y1="-25319.83" x2="-12539.85" y2="-25253.89" gradientTransform="translate(2498.15 -27288.69) rotate(-150.21)" gradientUnits="userSpaceOnUse"><stop offset="0.1" stop-color="#d2834c"/><stop offset="0.17" stop-color="#d18048"/><stop offset="0.92" stop-color="#ce783c"/></linearGradient></defs><g id="gameoveralmond-2" data-name="gameoveralmond"><rect width="1920" height="1080"/><path class="cls-1" d="M804.41,466.45s-535.5,87.12-353.62,268.19S750.11,788,874.47,891.51s202.08,255.77,393.57,152.41,570.48,78.52,467.12-115.38,88.14-282.83,7.21-363.76S1789.1,398,1720.06,354s-36.77-176.76-58.91-176.5S1224,302.11,1253.65,341.3,804.41,466.45,804.41,466.45Z"/><path class="cls-2" d="M1116.7,346.47c-4.94-1-23.91-22.7-23-36.79,1.06-16.55,22.61-4.76,26-1.7.39.36.41.08,1.21.83C1126.41,314.09,1137.25,350.45,1116.7,346.47Z"/><circle class="cls-3" cx="1057.35" cy="342.45" r="1.15"/><path class="cls-2" d="M1042.88,383.31a2.41,2.41,0,0,0-.19,1.7l4.08,15.94-16.6.49a2.41,2.41,0,0,0,.14,4.81l17.68-.53,4.27,16.67a2.4,2.4,0,0,0,4.66-1.19l-4-15.63,16-.47a2.41,2.41,0,1,0-.15-4.81l-17,.51-4.36-17a2.4,2.4,0,0,0-4.46-.5Z"/><g class="cls-4"><path class="cls-5" d="M219.21,243.06a17,17,0,0,1-12.47,16.39,165.84,165.84,0,0,1-43.34,6c-27.49,0-50.14-7-67.93-24-15.63-15.1-25.34-39.36-25.34-67.67C70.4,119.65,107.6,80,168.53,80c19.21,0,34.59,3.82,43.07,7.36a2.7,2.7,0,0,1,1.54,3.26l-.88,3A13.77,13.77,0,0,1,195.41,103,105,105,0,0,0,168,99.7c-44.21,0-73.06,27.5-73.06,73.05,0,46.1,27.77,73.33,70.09,73.33a124.16,124.16,0,0,0,17.92-1.18,15.76,15.76,0,0,0,13.35-15.63V189.74a2.7,2.7,0,0,0-2.7-2.7H162.06a2.7,2.7,0,0,1-2.7-2.7v-3.85a12.33,12.33,0,0,1,12.32-12.32H203.8a15.41,15.41,0,0,1,15.41,15.41Z"/><path class="cls-5" d="M331.06,263.6a2.7,2.7,0,0,1-2.68-2.39l-1.61-14H326c-7.28,10.24-21.3,19.41-39.9,19.41-26.42,0-39.9-18.6-39.9-37.47,0-31,27-48.17,75.75-48.53a2.7,2.7,0,0,0,2.7-2.69h0c0-10.79-3-30.2-29.65-30.2a66,66,0,0,0-31.15,8,2.72,2.72,0,0,1-3.91-1.45h0a15.06,15.06,0,0,1,9.2-19.07,87.81,87.81,0,0,1,29.36-5c39.9,0,49.61,27.23,49.61,53.38v48.79c0,4.7.09,9.36.31,13.83A16.67,16.67,0,0,1,331.7,263.6Zm-5.91-63.92a2.69,2.69,0,0,0-2.66-2.7c-25.19-.17-52.6,5-52.6,29.42,0,15.37,10.24,22.64,22.37,22.64,17,0,27.77-10.78,31.54-21.83a24.74,24.74,0,0,0,1.35-7.55Z"/><path class="cls-5" d="M386.35,168.44c0-9-.13-17-.45-24.51a10.34,10.34,0,0,1,10.31-10.8h0a10.32,10.32,0,0,1,10.32,9.79l.57,11.23h.81c7.28-12.4,19.41-24,41-24,17.79,0,31.27,10.78,36.93,26.15h.54a53.53,53.53,0,0,1,14.56-17c7.81-5.93,16.44-9.17,28.84-9.17,17.25,0,42.86,11.32,42.86,56.61v66.51A10.32,10.32,0,0,1,562.3,263.6h-2.53a10.32,10.32,0,0,1-10.33-10.32V189.74c0-25.07-9.17-40.17-28.31-40.17-13.47,0-24,10-28,21.57A38.94,38.94,0,0,0,491.21,183v70.28a10.32,10.32,0,0,1-10.33,10.32h-2.53A10.32,10.32,0,0,1,468,253.28V185.42c0-20.75-9.17-35.85-27.23-35.85-14.83,0-25.61,11.86-29.38,23.72a32.68,32.68,0,0,0-1.89,11.59v68.4A10.32,10.32,0,0,1,399.2,263.6h-2.53a10.32,10.32,0,0,1-10.32-10.32Z"/><path class="cls-5" d="M627.19,202.68a2.71,2.71,0,0,0-2.7,2.86c1.68,30,21.64,42.43,44.65,42.43,15.19,0,25-2.38,33.26-5.58a2.7,2.7,0,0,1,3.59,1.9L708.78,256a2.71,2.71,0,0,1-1.58,3.12c-8.57,3.52-22.19,7.18-41.3,7.18-40.17,0-64.16-26.42-64.16-65.78s23.18-70.36,61.2-70.36c42.59,0,53.91,37.47,53.91,61.46v.79a10.39,10.39,0,0,1-10.39,10.27Zm64-17a2.68,2.68,0,0,0,2.7-2.76c-.54-15-7.76-35.79-32.86-35.79-22.5,0-33.15,19.44-35.94,35.43a2.68,2.68,0,0,0,2.67,3.12Z"/></g><path class="cls-6" d="M209.21,233.06a17,17,0,0,1-12.47,16.39,165.84,165.84,0,0,1-43.34,6c-27.49,0-50.14-7-67.93-24-15.63-15.1-25.34-39.36-25.34-67.67C60.4,109.65,97.6,70,158.53,70c19.21,0,34.59,3.82,43.07,7.36a2.7,2.7,0,0,1,1.54,3.26l-.88,3A13.77,13.77,0,0,1,185.41,93,105,105,0,0,0,158,89.7c-44.21,0-73.06,27.5-73.06,73.05,0,46.1,27.77,73.33,70.09,73.33a124.16,124.16,0,0,0,17.92-1.18,15.76,15.76,0,0,0,13.35-15.63V179.74a2.7,2.7,0,0,0-2.7-2.7H152.06a2.7,2.7,0,0,1-2.7-2.7v-3.85a12.33,12.33,0,0,1,12.32-12.32H193.8a15.41,15.41,0,0,1,15.41,15.41Z"/><path class="cls-6" d="M321.06,253.6a2.7,2.7,0,0,1-2.68-2.39l-1.61-14.05H316c-7.28,10.24-21.3,19.41-39.9,19.41-26.42,0-39.9-18.6-39.9-37.47,0-31,27-48.17,75.75-48.53a2.7,2.7,0,0,0,2.7-2.69h0c0-10.79-3-30.2-29.65-30.2a66,66,0,0,0-31.15,8,2.72,2.72,0,0,1-3.91-1.45h0a15.06,15.06,0,0,1,9.2-19.07,87.81,87.81,0,0,1,29.36-5c39.9,0,49.61,27.23,49.61,53.38v48.79c0,4.7.09,9.36.31,13.83A16.67,16.67,0,0,1,321.7,253.6Zm-5.91-63.92a2.69,2.69,0,0,0-2.66-2.7c-25.19-.17-52.6,5-52.6,29.42,0,15.37,10.24,22.64,22.37,22.64,17,0,27.77-10.78,31.54-21.83a24.74,24.74,0,0,0,1.35-7.55Z"/><path class="cls-6" d="M376.35,158.44c0-9-.13-17-.45-24.51a10.34,10.34,0,0,1,10.31-10.8h0a10.32,10.32,0,0,1,10.32,9.79l.57,11.23h.81c7.28-12.4,19.41-24,41-24,17.79,0,31.27,10.78,36.93,26.15h.54a53.53,53.53,0,0,1,14.56-17c7.81-5.93,16.44-9.17,28.84-9.17,17.25,0,42.86,11.32,42.86,56.61v66.51A10.32,10.32,0,0,1,552.3,253.6h-2.53a10.32,10.32,0,0,1-10.33-10.32V179.74c0-25.07-9.17-40.17-28.31-40.17-13.47,0-24,10-28,21.57A38.94,38.94,0,0,0,481.21,173v70.28a10.32,10.32,0,0,1-10.33,10.32h-2.53A10.32,10.32,0,0,1,458,243.28V175.42c0-20.75-9.17-35.85-27.23-35.85-14.83,0-25.61,11.86-29.38,23.72a32.68,32.68,0,0,0-1.89,11.59v68.4A10.32,10.32,0,0,1,389.2,253.6h-2.53a10.32,10.32,0,0,1-10.32-10.32Z"/><path class="cls-6" d="M617.19,192.68a2.71,2.71,0,0,0-2.7,2.86c1.68,30,21.64,42.43,44.65,42.43,15.19,0,25-2.38,33.26-5.58a2.7,2.7,0,0,1,3.59,1.9L698.78,246a2.71,2.71,0,0,1-1.58,3.12c-8.57,3.52-22.19,7.18-41.3,7.18-40.17,0-64.16-26.42-64.16-65.78s23.18-70.36,61.2-70.36c42.59,0,53.91,37.47,53.91,61.46v.79a10.39,10.39,0,0,1-10.39,10.27Zm64-17a2.68,2.68,0,0,0,2.7-2.76c-.54-15-7.76-35.79-32.86-35.79-22.5,0-33.15,19.44-35.94,35.43a2.68,2.68,0,0,0,2.67,3.12Z"/><g class="cls-7"><path class="cls-5" d="M277.46,376.29c0,48.25-33.43,69.28-65,69.28-35.31,0-62.54-25.88-62.54-67.13,0-43.67,28.57-69.28,64.7-69.28C252.12,309.16,277.46,336.39,277.46,376.29Zm-103.52,1.34c0,28.58,16.44,50.14,39.63,50.14,22.64,0,39.63-21.29,39.63-50.68,0-22.1-11.06-50.14-39.09-50.14S173.94,352.83,173.94,377.63Z"/><path class="cls-5" d="M306.58,312.13a11.4,11.4,0,0,1,10.75,7.62l22.94,65.7a335.16,335.16,0,0,1,10.52,33.43h.81c3-10.78,6.74-21.57,11-33.43l22.69-65.66a11.38,11.38,0,0,1,10.76-7.66h0c8,0,13.52,8.07,12.59,10.45L366.4,430.29c-3.7,9.45-7.91,12.31-12.59,12.31h-7a11.38,11.38,0,0,1-10.63-7.33L295.19,327.55a11.38,11.38,0,0,1,10.64-15.42Z"/><path class="cls-5" d="M455.25,381.68A8.76,8.76,0,0,0,446.62,392c4.33,24.66,22.8,35,43.81,35,11.79,0,20.33-1.43,27.43-3.57a8.73,8.73,0,0,1,11,6.37h0A8.78,8.78,0,0,1,523,440.14c-8.5,2.77-20.36,5.16-35.79,5.16C447,445.3,423,418.88,423,379.52s23.19-70.36,61.2-70.36c42.59,0,53.91,37.47,53.91,61.46,0,.9,0,1.76,0,2.58a8.77,8.77,0,0,1-8.75,8.48Zm50.52-17a8.73,8.73,0,0,0,8.62-10.27c-2.48-13.6-10.94-28.28-32.05-28.28-18.58,0-29.08,13.27-33.74,26.89a8.77,8.77,0,0,0,8.26,11.66Z"/><path class="cls-5" d="M567.53,352.83c0-12.43-.18-23.46-.68-33.64a6.74,6.74,0,0,1,6.74-7.06h7.08a6.74,6.74,0,0,1,6.74,6.53l.61,19.08h1.07c5.93-17.53,20.22-28.58,36.13-28.58h.08a6.73,6.73,0,0,1,6.66,6.75v9a6.72,6.72,0,0,1-6.91,6.68h-1.18c-16.71,0-28.58,12.67-31.81,30.46A66.62,66.62,0,0,0,591,373.05v62.8a6.75,6.75,0,0,1-6.75,6.75h-10a6.75,6.75,0,0,1-6.75-6.75Z"/></g><path class="cls-6" d="M267.46,366.29c0,48.25-33.43,69.28-65,69.28-35.31,0-62.54-25.88-62.54-67.13,0-43.67,28.57-69.28,64.7-69.28C242.12,299.16,267.46,326.39,267.46,366.29Zm-103.52,1.34c0,28.58,16.44,50.14,39.63,50.14,22.64,0,39.63-21.29,39.63-50.68,0-22.1-11.06-50.14-39.09-50.14S163.94,342.83,163.94,367.63Z"/><path class="cls-6" d="M296.58,302.13a11.4,11.4,0,0,1,10.75,7.62l22.94,65.7a335.16,335.16,0,0,1,10.52,33.43h.81c3-10.78,6.74-21.57,11-33.43l22.69-65.66a11.38,11.38,0,0,1,10.76-7.66h0a11.37,11.37,0,0,1,10.59,15.53L354.41,425.38a11.38,11.38,0,0,1-10.6,7.22h-7a11.38,11.38,0,0,1-10.63-7.33L285.19,317.55a11.38,11.38,0,0,1,10.64-15.42Z"/><path class="cls-6" d="M445.25,371.68A8.76,8.76,0,0,0,436.62,382c4.33,24.66,22.8,35,43.81,35,11.79,0,20.33-1.43,27.43-3.57a8.73,8.73,0,0,1,11,6.37h0A8.78,8.78,0,0,1,513,430.14c-8.5,2.77-20.36,5.16-35.79,5.16C437,435.3,413,408.88,413,369.52s23.19-70.36,61.2-70.36c42.59,0,53.91,37.47,53.91,61.46,0,.9,0,1.76,0,2.58a8.77,8.77,0,0,1-8.75,8.48Zm50.52-17a8.73,8.73,0,0,0,8.62-10.27c-2.48-13.6-10.94-28.28-32.05-28.28-18.58,0-29.08,13.27-33.74,26.89a8.77,8.77,0,0,0,8.26,11.66Z"/><path class="cls-6" d="M557.53,342.83c0-12.43-.18-23.46-.68-33.64a6.74,6.74,0,0,1,6.74-7.06h7.08a6.74,6.74,0,0,1,6.74,6.53l.61,19.08h1.07c5.93-17.53,20.22-28.58,36.13-28.58h.08a6.73,6.73,0,0,1,6.66,6.75v9a6.72,6.72,0,0,1-6.91,6.68h-1.18c-16.71,0-28.58,12.67-31.81,30.46A66.62,66.62,0,0,0,581,363.05v62.8a6.75,6.75,0,0,1-6.75,6.75h-10a6.75,6.75,0,0,1-6.75-6.75Z"/><path class="cls-2" d="M1946.2,927c-72.93-82.61-170.75-301-414.08-379.16q-5.94-1.9-11.77-3.61a218.83,218.83,0,0,0,17.86-21.6c18.64,34.24,49.75,20.62,39.12-.42-12.25-24.25,3.76-57,24.78-137s-68.18-51.58-68.18-51.58c-25.42,11.55-25.59,56.43-18.28,102.12-36.57-3.31-95.51,12.94-172.3,58.18a429.46,429.46,0,0,0-93.4,74.42,89,89,0,0,0-9.17,2.78c-9.06,3.35-36.68,9.34-73.57-21.72-19.47-16.39-31.61-38.73-49-52.59,6.16,1.42,10.06,1.92,10.66,1.54,0,0,11.54-139.54-18.88-186.84a49.5,49.5,0,0,0-13.07-13.73c1-15.69-4.14-31.8-4.14-31.8-62.07-38.27-66.17-58.23-66.17-58.23s-8.19,49,.78-5.59-37.07-59.88-37.07-59.88c-77.78-56.18-58.86,30.25-39.16,64.11,8.93,15.34,50,69.5,70.92,96.91-20,14.6-36,39.66-39,74.37-4.72,54.35,51.71,88.84,95.76,106.48-20.72,1-48.33,11.36-87.89,36.74-41.45,26.59-76.82,51.22-104.75,75C882,580.15,873.41,567,857.7,560.45c-53.7-22.3-112.89-1.71-112.89-1.71l-67.35-13s-40,1.74-.79,13.77c0,0-43.78,7.06-2.6,10.25s-2.8,4.78-2.8,4.78-33.2,25-7.61,18.41l25.6-6.56s-35.75,43,1.54,25.91,58.67-26,58.57-21.45,70.56,39.25,83.22,38.26c.69-.05-3.66,4.91-9.78,12.69-12.89-3.82-25.19-5.57-36-4.48-69.57,6.94-64.12,117.36-63.55,175.68.18,18.29,4.72,33.07,12.23,45a29.92,29.92,0,0,0-8.85,8.84c9.92,17.2-59,55.1-59,55.1s-25.93-9.26,3,3.61c26.26,11.69,91.57-16.87,105.15-23.73a20.17,20.17,0,0,0,2.44-1.35,47.62,47.62,0,0,0,6.85-5.13,185.78,185.78,0,0,0,22.61,6.83,255.93,255.93,0,0,0,43.57,6.5c-3.16,3.63-5,6.07-5,6.07,25.06,12.33-3.43,96.62-3.43,96.62,87-52.7,73.72-105.68,65.5-123.94l.84-.62a136.52,136.52,0,0,0,44-55.89c32-7.14,83.13,6,102,23.61,3.09,2.88,7.4,3.58,9.81,7.14,6.7,9.88,19.84,21.91,30,23.54,74.59,11.93,71.68-31.78,51.61-75.87,25.08-15.17,70.73-43.16,122.47-76.64,34.79,20.86,70.89,37.11,92.58,36.59,58.86-1.42,186.28,22.1,254.49,102.09,94.95,111.34,237.16,171.92,243.68,152C1859.85,1023.35,2032.21,1024.43,1946.2,927Z"/><path class="cls-8" d="M1016.47,302.45s-71.2-92.26-83.31-113.06c-19.7-33.86-38.62-120.29,39.16-64.11,0,0,46,5.26,37.07,59.88s-.78,5.59-.78,5.59,4.1,20,66.17,58.23C1074.78,249,1102.56,336.07,1016.47,302.45Z"/><path class="cls-9" d="M1515.93,316.62s89.21-28.44,68.18,51.58-37,112.79-24.78,137-30.94,38.65-46.59-18.71S1477.2,334.22,1515.93,316.62Z"/><path class="cls-2" d="M878.7,749.5c-2.63,3.9-.75,30.81,9.17,39.51,11.66,10.23,18.07-11.83,18.25-16.08,0-.49.23-.32.25-1.34C906.54,764.42,889.62,733.26,878.7,749.5Z"/><circle class="cls-3" cx="820.65" cy="816.17" r="1.07"/><path class="cls-10" d="M1160.82,629.44c-2.7-2.76,110-176.74,353.3-98.57S1855.27,827.42,1928.2,910c86,97.4-86.35,96.32-86.35,96.32-6.52,20-148.73-40.62-243.68-152-68.21-80-195.63-103.51-254.49-102.09C1286,753.69,1126.14,636.28,1160.82,629.44Z"/><path class="cls-11" d="M1393,543.76c-39.65-13.15-113.17-3.2-159,7.07a88.69,88.69,0,0,0-11.31,3.29c-9.06,3.35-36.68,9.34-73.57-21.72-45.4-38.22-51-108.91-176.26-28.51s-195.24,143-171.05,218.67c2.89,9.06,8.6,17.33,16.41,24.86,26.65,25.7,77.72,42.8,124.84,53.7,31.38,7.26,61,11.77,80.53,14.25,14.76,1.87,32.75-2,51.38-11,84.37-41,330.61-164.85,344.15-219.86C1420.8,578,1407.06,548.42,1393,543.76Z"/><path class="cls-12" d="M1053.49,583.53c-36.42,6.26,4.66-56.66-35.2-32.91s-4.21,17.09-76,29.57c-4.69.81-80.65-11.62-73.56,28.68,0,0-48.06,27.23-42.47,62,2.71,16.82-2.18,48.39-8,76.51,26.65,25.7,77.72,42.8,124.84,53.7,21.68-13,37.3-30.16,19.85-36.09,0,0,98.14-24.21,77.36-54.51,0,0-45.28-35.17-4.71-38,.38,0,50.81-25.3,14.09-33.27S1089.92,577.26,1053.49,583.53Z"/><circle class="cls-3" cx="820.65" cy="816.17" r="1.07"/><path class="cls-13" d="M1110.87,481.35c-4,2.49-153.36-33.62-145.79-120.68S1061.56,247.2,1092,294.51,1110.87,481.35,1110.87,481.35Z"/><path class="cls-14" d="M1113.22,815.6c-6.42-1,29.17-216.94,217.13-327.68s269.08-47.83,176.54,50.84S1113.22,815.6,1113.22,815.6Z"/><path class="cls-15" d="M892.42,748.34a15.26,15.26,0,0,0,2.29-.89c9.21-4.46,72.28-32.67,91-14.41,49.58,48.5,79.06,5.8,91-20.35,1.5-3.28,143.38,178.41.37,155.53-10.21-1.63-23.35-13.66-30-23.54-2.41-3.56-6.72-4.26-9.81-7.14-27.46-25.54-123-41.8-129,.1-3.91,27.27-20.7-36.81-27.2-68.38-1.91-9.29,3.08-18.41,11.44-20.92Z"/><path class="cls-16" d="M1084.85,724.48c.21-.51-1.19-.62-2-1.44-4.74-4.91-13.44-20.56-13.44-20.56s-8.72-34.39-32.47-45.62-35.19-10.62-17.73,11.67.8,4.9.8,4.9-29.07-15.1-8.81,13.51l-15.86-2s-29.51-2.26-8.54,12.31,27.49,14.14,27.49,14.14-53.83,2.2-22.43,17S1069.25,763.46,1084.85,724.48Z"/><path class="cls-17" d="M814.59,612.1c2.54-.2-62.84,67-34.15,94.46s83.28-9.68,83.16-25.2,29.81-115.6-23.9-137.91-112.89-1.71-112.89-1.71l-67.35-13s-40,1.74-.79,13.77c0,0-43.78,7.06-2.6,10.25s-2.8,4.78-2.8,4.78-33.2,25-7.61,18.41l25.6-6.56s-35.75,43,1.54,25.91,58.67-26,58.57-21.45S801.93,613.08,814.59,612.1Z"/><path class="cls-18" d="M760.2,883.49a20.17,20.17,0,0,1-2.44,1.35c-13.58,6.86-78.89,35.42-105.15,23.73-28.9-12.87-3-3.61-3-3.61s68.87-37.9,59-55.1c0,0,15.28-26.36,51.49-7S760.2,883.49,760.2,883.49Z"/><path class="cls-12" d="M759,871.42S705,902.08,683.6,900c0,0,53-28.08,41.63-38.46s25.91-19.9,26.6-19.06S761,873.58,759,871.42Z"/><path class="cls-19" d="M838.77,891.74c-4.32.34-25.1-.86-49.11-6.55-42.59-10.1-83.9-33.27-84.45-89.21-.57-58.32-6-168.74,63.55-175.68,57.36-5.73,154.56,67.38,169.42,108.69,19,52.87-4.6,109.17-47,140.83C874.4,882.3,856,890.4,838.77,891.74Z"/><path class="cls-20" d="M886.7,863.76s45.58,65.52-61.91,130.62c0,0,28.49-84.29,3.43-96.62,0,0,28-37.11,53.21-37C881.94,860.74,886.7,863.76,886.7,863.76Z"/><path class="cls-12" d="M844.85,975.77c-.05.06,48.74-37.63,40.74-78.53-8.65-44.25-45.38,8.45-45.38,8.45S852.9,966.84,844.85,975.77Z"/><path class="cls-2" d="M806,657.81c-4.61,5.49-44.78,14.05-61.68,3.19-19.86-12.76,9.72-31.41,15.85-33.47.72-.24.38-.46,1.87-.92C772.42,623.35,825.14,635,806,657.81Z"/><path class="cls-2" d="M731.17,801.67a3.4,3.4,0,0,0,2,1.42L755.81,809l-10.87,21a3.42,3.42,0,0,0,6.08,3.14l11.57-22.35L786.27,817a3.42,3.42,0,1,0,1.74-6.61l-22.2-5.83,10.45-20.2a3.42,3.42,0,1,0-6.07-3.14L759,802.81l-24.14-6.34a3.42,3.42,0,0,0-3.72,5.2Z"/><path class="cls-2" d="M800.74,775.12a3.4,3.4,0,0,0,2,1.41l22.65,6-10.86,21a3.42,3.42,0,1,0,6.07,3.15l11.57-22.36,23.69,6.22a3.42,3.42,0,1,0,1.74-6.62L835.38,778l10.45-20.19a3.42,3.42,0,0,0-1.47-4.61,3.44,3.44,0,0,0-4.61,1.47L828.6,776.25l-24.15-6.33a3.42,3.42,0,0,0-3.71,5.2Z"/><path class="cls-21" d="M708.12,564.62c-2.38,2.69-4.67,5.07-6.82,7.1-9.21,8.72-22.71,12.89-33.94,14.58h0c-.32.06-.65.1-1,.14-8.6,1.21-15.73,1-18.33.24-6-1.69-23.89-10.76-33.84-27.07a47.12,47.12,0,0,1-4.33-9.53c-.5-1.47-1-3-1.37-4.66,0,0,0,0,0,0-5.24-20.92-2.42-54.33,33.44-84.51a229.93,229.93,0,0,1,24.25-17.74c5.61-3.58,11.19-6.83,16.64-9.78,32.64-17.63,60.66-24.31,60.66-24.31l.26,1.05a1.77,1.77,0,0,1,0,.2c.15.61.33,1.45.56,2.48,0,0,0,0,0,0A223.64,223.64,0,0,1,748.1,472h0c0,.22,0,.44-.05.66a0,0,0,0,1,0,0c-.15,2.24-.35,4.5-.58,6.79-2.25,21.79-10.9,42.67-21,59.69h0A170.73,170.73,0,0,1,708.12,564.62Z"/><path class="cls-22" d="M743.76,410.12l-19,5.44s-54.2,56.27-61.33,73c-5.27,12.38-11.88,35.95-9.73,52.17a34.68,34.68,0,0,0,1,5.07,18.23,18.23,0,0,0,5,8.57c13,11.78,29.34,22.21,45.65,12.26a22.22,22.22,0,0,0,2.79-2c5.9-5,12.39-14.39,18.35-25.46h0c10.15-18.86,18.78-42.51,20.43-57.08,2.35-20.75-1.33-58-2.51-69l0-.31s0,0,0,0c-.23-1-.41-1.87-.56-2.48Z"/><path class="cls-23" d="M734.26,477.73s-17-4.92-26.53,12.64-7.48,24.38-.74,27.7,17-1.15,23.08-10.2,10.61-22.8,5-29.58"/><path class="cls-24" d="M609.88,550.08c-.5-1.47-1-3-1.37-4.66,0,0,0,0,0,0,0-.82.07-1.41.07-1.41,3.11-28.65,46.71-86.71,57.62-100.84,5.61-3.58,11.19-6.83,16.64-9.78-7.72,8.86-37.37,46.53-45.5,61C628.33,510.33,611.79,549.75,609.88,550.08Z"/><path class="cls-24" d="M724.73,415.56l-8.14,2.29s-53,60.68-58.69,70-41.38,71.26-40.27,74.66c1.76,5.39,2.34,3.71,2.46,3.46,0,0,35.67-67,40.66-72.59S718,415.8,724.73,415.56Z"/><path class="cls-24" d="M688,499.2c-1.41,1.08-18.47,25.38-33.28,46.62-11.51,16.51-21.66,31.18-22,31.67s-2.3-1.32-1.92-2.49c.31-1,11.33-17.09,22.9-34.25,13.44-19.91,27.63-41.18,26.75-41.67-1.56-.86,57.26-80.48,63.38-88.76.15.61.33,1.45.56,2.48,0,0,0,0,0,0l0,.31C737.81,423.34,690.32,497.41,688,499.2Z"/><path class="cls-24" d="M746.22,430.08l1.51,6.42s-33.78,73.06-56,100.6S650,587,650,587l-5.63-2s40.75-47.77,55-71.94S750,432.65,746.22,430.08Z"/><path class="cls-24" d="M670.65,585.17l-3.29,1.13h0l-1.4.49a3,3,0,0,0,.43-.35c3.4-2.92,24.65-23.41,37.29-41.28C716,527.72,744.32,480.92,748.1,472c0,.22,0,.44-.05.66a0,0,0,0,1,0,0c-.93,4.57-3.1,14.94-3.53,15.58C744,489.09,689.78,584.91,670.65,585.17Z"/><path class="cls-21" d="M541.36,665.41c3,4.11,5.53,8,7.66,11.57,9.15,15.38,10.71,35.24,9.56,51.23h0c0,.45-.07.91-.1,1.36-1,12.21-3.55,21.95-5.36,25.3-4.19,7.8-22.18,29.55-47.71,38.2a66.66,66.66,0,0,1-14.45,3q-3.27.34-6.83.44h0c-30.41.74-75.52-13.47-105.94-72.16a323.32,323.32,0,0,1-16.92-38.85c-3.19-8.82-5.93-17.51-8.3-25.92-14.16-50.36-14.69-91-14.69-91l1.53,0h3.89a315,315,0,0,1,82.59,13.15h0c.3.09.61.17.9.27h0c3,.91,6.07,1.87,9.15,2.91,29.29,9.83,55.35,28.19,75.64,47.35h0A241.86,241.86,0,0,1,541.36,665.41Z"/><path class="cls-22" d="M339.8,568.57l1.6,27.87s60.65,92,81.5,107c15.4,11.07,45.79,27.47,68.77,29.52a48.52,48.52,0,0,0,7.29.14c5.14-.33,9.69-1.63,13.33-4.19,20.25-14.26,39.65-33.49,31-59a32.1,32.1,0,0,0-1.93-4.47c-5-9.66-16-21.5-29.35-33.13h0c-22.81-19.8-52.67-39-72.22-45.76-27.82-9.65-80.27-16.12-95.65-17.88l-.44,0H339.8Z"/><path class="cls-23" d="M429.89,602.57s-12.05,21.93,9.19,40.4,31.23,17.84,37.88,9.59,3.66-23.7-6.9-34.92S442,596,430.91,601.61"/><path class="cls-24" d="M491,796.08q-3.27.34-6.83.44h0c-1.13-.27-1.93-.53-1.93-.53-38.46-13.14-104.85-91.1-120.93-110.48-3.19-8.82-5.93-17.51-8.3-25.92,9.8,13.36,52.46,65.81,69.8,81.47C442,758.41,491.1,793.35,491,796.08Z"/><path class="cls-24" d="M341.4,596.44l.63,11.91S409.13,700,420.2,710.76s85.25,79,90.28,78.51c7.95-.75,5.83-2.07,5.52-2.31,0,0-81.13-69.81-87.31-78.42S339.63,605.8,341.4,596.44Z"/><path class="cls-24" d="M445.12,672.87c1,2.27,29.2,33.27,53.84,60.21,19.17,20.95,36.21,39.45,36.77,40.1s-2.53,2.75-4,1.86c-1.2-.72-20-20.86-40-42.1-23.23-24.64-48.12-50.76-49.06-49.69-1.67,1.88-93-103.69-102.52-114.68h3.6l.44,0C356.14,580.86,443.37,669.1,445.12,672.87Z"/><path class="cls-24" d="M368,571.37l9.3-.1s90.06,69.08,121.09,108.16,55.76,72.85,55.76,72.85l-4.5,7.12s-53.12-70.85-82-97.86S372.74,566.93,368,571.37Z"/><path class="cls-24" d="M558,723.32l.55,4.89h0l.24,2.06c0-.09-.15-.32-.34-.7-3-5.57-24.59-41.15-45.28-64.07-20.17-22.36-75.82-75.8-86.92-83.77.3.09.61.17.9.27h0c6,2.7,19.59,8.89,20.34,9.68C448.51,592.72,563.61,696.91,558,723.32Z"/><path class="cls-21" d="M1549.81,155.31c3.21,2.22,6.07,4.4,8.53,6.46,10.59,8.85,16.8,22.91,20.05,34.84h0l.27,1c2.39,9.14,3,16.88,2.57,19.78-1.06,6.75-8.6,27.18-25,40a51.38,51.38,0,0,1-9.75,5.88q-2.29,1.09-4.86,2.06h0c-21.94,8.31-58.41,9.48-95.54-25.46a248.57,248.57,0,0,1-22.24-24c-4.58-5.6-8.79-11.22-12.66-16.74-23.18-33-33.94-62.47-33.94-62.47s.37-.15,1.1-.41l.21-.08c.64-.23,1.52-.54,2.61-.9h0a243.57,243.57,0,0,1,63.47-11.53h0l.73,0a0,0,0,0,0,0,0c2.43-.11,4.9-.19,7.4-.22,23.83-.32,47.49,6.38,67.16,15.14h0A186.31,186.31,0,0,1,1549.81,155.31Z"/><path class="cls-22" d="M1378.36,136.32l8.29,19.87s67.64,51.46,86.65,57c14,4.13,40.34,8.3,57.6,3.92a38,38,0,0,0,5.34-1.76,19.81,19.81,0,0,0,8.63-6.46c11.09-15.55,20.3-34.5,7.48-50.87a24.39,24.39,0,0,0-2.54-2.75c-6.12-5.76-17.12-11.58-29.83-16.62h0c-21.67-8.59-48.31-14.92-64.26-14.86-22.72.09-62.55,8.78-74.19,11.43l-.33.07h0c-1.09.36-2,.67-2.61.9Z"/><path class="cls-23" d="M1452.62,138s-3.17,19,17,27.06,27.29,5,30-2.7-3.39-18.18-13.94-23.65-26-8.58-32.59-1.67"/><path class="cls-24" d="M1546.51,263.29q-2.29,1.09-4.86,2.06h0c-.89.08-1.54.11-1.54.11-31.35.25-99.59-39.53-116.24-49.53-4.58-5.6-8.79-11.22-12.66-16.74,10.54,7.22,55,34.5,71.61,41.47C1501.23,248.38,1545.91,261.27,1546.51,263.29Z"/><path class="cls-24" d="M1386.65,156.19l3.5,8.51s72.26,49.58,83.06,54.57,82.23,35.7,85.77,34.07c5.59-2.58,3.71-3,3.42-3.09,0,0-76.88-30.08-83.58-34.77S1387.75,163.46,1386.65,156.19Z"/><path class="cls-24" d="M1481.66,185.32c1.34,1.39,29.76,16.76,54.58,30.07,19.3,10.35,36.43,19.46,37,19.79s-1.14,2.65-2.45,2.38c-1.07-.21-19.9-10.07-39.9-20.41-23.21-12-48-24.65-48.41-23.64-.74,1.8-94.19-51.7-103.92-57.27.64-.23,1.52-.54,2.61-.9h0l.33-.07C1393.4,141.08,1479.43,183,1481.66,185.32Z"/><path class="cls-24" d="M1399.62,131.14l6.74-2.45s83.21,27.27,115.78,47.79,59.19,38.78,59.19,38.78l-1.45,6.33s-56.77-38-84.67-50.28S1401.92,126.71,1399.62,131.14Z"/><path class="cls-24" d="M1576.74,193.2l1.65,3.41h0l.7,1.44a6,6,0,0,0-.43-.42c-3.59-3.3-28.41-23.67-49.32-35.07-20.4-11.12-74.55-35.8-84.67-38.76l.73,0a0,0,0,0,0,0,0c5.06.44,16.53,1.46,17.28,1.85C1463.66,126.12,1574.05,172.55,1576.74,193.2Z"/></g></svg>