<svg xmlns="http://www.w3.org/2000/svg" width="190" height="155" viewBox="0 0 190 155"><defs><style>.cls-1{fill:#b21f4c;}.cls-2,.cls-3{fill:#e87ea9;}.cls-2{opacity:0.33;}</style></defs><g id="timeer"><g id="Layer_7" data-name="Layer 7"><path class="cls-1" d="M177.13,66.5l-75.59,83.35a9.45,9.45,0,0,1-14,0L66,126.12,11.94,66.5c-14-15.48-11.7-37,.55-50.1A36,36,0,0,1,39.19,5,55.35,55.35,0,0,1,94.53,60.35,55.31,55.31,0,0,1,149.88,5C181.8,5,198.57,42.86,177.13,66.5Z"/><path class="cls-2" d="M105.13,64.2c0,25.31-15.36,47.79-39.12,61.92L11.94,66.5c-14-15.48-11.7-37,.55-50.1A36,36,0,0,1,39.19,5,55.35,55.35,0,0,1,94.53,60.35,55.23,55.23,0,0,1,99.3,37.84,63,63,0,0,1,105.13,64.2Z"/><ellipse class="cls-3" cx="37.89" cy="25.25" rx="13.92" ry="7.09"/></g></g></svg>