<svg xmlns="http://www.w3.org/2000/svg" xmlns:xlink="http://www.w3.org/1999/xlink" width="140" height="140" viewBox="0 0 140 140"><defs><style>.cls-1{fill:none;}.cls-2{fill:#c588ed;}.cls-3{opacity:0.73;fill:url(#linear-gradient);}.cls-4{fill:#952dc1;}.cls-5{fill:#fff;opacity:0.21;}.cls-6{opacity:0.3;}.cls-7{fill:#e807b9;}</style><linearGradient id="linear-gradient" x1="173.42" y1="128.32" x2="59.77" y2="66.91" gradientUnits="userSpaceOnUse"><stop offset="0" stop-color="#fff"/><stop offset="1" stop-opacity="0.72"/></linearGradient></defs><g id="timerviolet"><rect id="SVGID" class="cls-1" x="-223.46" y="-71.48" width="261.87" height="106.76"/></g><g id="homebutton"><ellipse class="cls-2" cx="39.59" cy="23.41" rx="17" ry="8.5"/><path class="cls-3" d="M131.59,47.91v54a30.09,30.09,0,0,1-30,30h-54a30.1,30.1,0,0,1-29.66-25.55,28.43,28.43,0,0,1-.34-4.45v-54a30.09,30.09,0,0,1,30-30h54c.67,0,1.33,0,2,.08A30.08,30.08,0,0,1,131.59,47.91Z"/><path class="cls-4" d="M123.82,37.91v54a30.09,30.09,0,0,1-30,30h-54A30.1,30.1,0,0,1,10.16,96.36a28.43,28.43,0,0,1-.34-4.45v-54a30.09,30.09,0,0,1,30-30h54c.67,0,1.33,0,2,.08A30.08,30.08,0,0,1,123.82,37.91Z"/><path class="cls-5" d="M96.59,22.41c0,36.45-37.62,66.86-87.66,74a28.43,28.43,0,0,1-.34-4.45v-54a30.09,30.09,0,0,1,30-30h54c.67,0,1.33,0,2,.08A52.85,52.85,0,0,1,96.59,22.41Z"/><ellipse class="cls-2" cx="36.59" cy="24.91" rx="14" ry="7"/><path class="cls-6" d="M107.16,65.8,89.78,45.92,72.4,26.05c-1.76-2-6.15-2-7.91,0L47.11,45.92,29.73,65.8c-1.76,2,.44,4.52,3.95,4.52h5.08a4,4,0,0,0-.11.92V99.33a4.17,4.17,0,0,0,4.17,4.17h15.4A3.53,3.53,0,0,0,61.75,100V81.38H76.06V99.79a3.71,3.71,0,0,0,3.71,3.71H95a4.18,4.18,0,0,0,4.18-4.17V71.24a4,4,0,0,0-.11-.92h4.15C106.72,70.32,108.91,67.81,107.16,65.8Z"/><path class="cls-7" d="M103.9,63.2,86.52,43.32,69.14,23.45c-1.75-2-6.15-2-7.9,0L43.86,43.32,26.48,63.2c-1.76,2,.44,4.52,3.95,4.52h5.08a3.93,3.93,0,0,0-.11.92V96.73a4.17,4.17,0,0,0,4.17,4.17H55a3.53,3.53,0,0,0,3.53-3.53V78.78H72.81V97.19a3.71,3.71,0,0,0,3.71,3.71H91.73a4.17,4.17,0,0,0,4.17-4.17V68.64a3.93,3.93,0,0,0-.1-.92H100C103.47,67.72,105.66,65.21,103.9,63.2Z"/></g></svg>