<svg xmlns="http://www.w3.org/2000/svg" xmlns:xlink="http://www.w3.org/1999/xlink" width="550" height="155" viewBox="0 0 550 155"><defs><style>.cls-1{opacity:0.79;fill:url(#linear-gradient);}.cls-2{fill:#952dc1;}.cls-3{fill:#fff;opacity:0.21;}.cls-4{fill:#c588ed;}.cls-5{opacity:0.24;}.cls-6{fill:#2c004c;}.cls-7{fill:#e807b9;}</style><linearGradient id="linear-gradient" x1="742.14" y1="138.38" x2="70.78" y2="56.14" gradientUnits="userSpaceOnUse"><stop offset="0.14" stop-color="#020202" stop-opacity="0"/><stop offset="0.93" stop-opacity="0.95"/><stop offset="0.95"/></linearGradient></defs><g id="learnhowtoplay"><rect class="cls-1" x="28.44" y="19.41" width="500.56" height="124.41" rx="30"/><path class="cls-2" d="M519,49.49V91.87c0,22.56-28.92,41-64.27,41H77.67c-15.79,0-30.32-3.69-41.54-9.79C22.24,115.56,13.4,104.35,13.4,91.87V49.49c0-22.56,28.92-41,64.27-41H454.73C490.08,8.48,519,26.93,519,49.49Z"/><path class="cls-3" d="M221.28,8.48c-27.25,39.27-74.56,75.43-133.94,98A337.69,337.69,0,0,1,27.9,123.09,40.91,40.91,0,0,1,13.4,91.87V49.49a41.12,41.12,0,0,1,41-41Z"/><ellipse class="cls-4" cx="57.14" cy="26.93" rx="23.24" ry="11.62"/><g class="cls-5"><path d="M42,79.93a2.47,2.47,0,0,0-2.38,2.46V91c0,1.92.09,5.3.2,8a2.45,2.45,0,0,1-2.36,2.55h-.1a2.46,2.46,0,0,1-2.55-2.49c0-2.15,0-4.66,0-5.9l0-30.32c0-2.23-.09-5.41-.17-8A2.47,2.47,0,0,1,37,52.37h.07a2.47,2.47,0,0,1,2.61,2.47c0,1.85,0,4,0,5.65l-.05,11A2.46,2.46,0,0,0,42,73.92c1.85,0,4,0,6.34,0,1.78,0,3.69,0,6.12,0a2.47,2.47,0,0,0,2.43-2.46V62.87c0-2.22,0-5.36-.16-7.9a2.45,2.45,0,0,1,2.33-2.57h.16a2.45,2.45,0,0,1,2.58,2.5c0,1.83-.07,4-.07,5.6V91c0,1.92.06,5.31.15,8a2.45,2.45,0,0,1-2.38,2.54h-.11a2.48,2.48,0,0,1-2.56-2.52c0-2,.06-4,.06-5.87V82.3a2.46,2.46,0,0,0-2.43-2.46c-2,0-4.11,0-5.8,0C46.14,79.82,44.12,79.86,42,79.93Z"/><path d="M84,102C74.53,102,68.15,91.86,68.15,77,68.15,62.52,74.64,52,84.09,52c9.2,0,15.84,10.29,15.84,24.86C99.93,91.16,93.18,102,84,102Zm-.06-44.54c-6.8,0-10.68,8.89-10.68,19.4.06,10.71,3.88,19.81,10.68,19.81s11-9.1,11-19.6S90.73,57.41,83.93,57.41Z"/><path d="M101.41,52.37c.48,0,2.08.07,3,.07.58,0,2,0,2.5-.07.69,3.5,6.53,33.33,8,41l.31,1.75.32-1.68c.43-2.17,7.55-34.17,8.66-40.19h5c1,6,8.29,38.3,8.71,40.47l.27,1.4.26-1.47c1.44-7.77,7-37.81,7.44-41.31.53.07,1.86.07,2.44.07.91,0,2.34-.07,2.87-.07v.28c-.85,2.7-8,37-10,46.62a2.83,2.83,0,0,1-2.77,2.26h0a4.1,4.1,0,0,1-4-3.26l-7.77-37.15-8.44,39.15a1.59,1.59,0,0,1-1.55,1.26h-.82a4.37,4.37,0,0,1-4.28-3.45c-2.38-11-9.26-42.83-10-45.43Z"/><path d="M176.8,52.3c10.74,0,17.75,10,17.75,23.88,0,15.47-7,25.35-18.07,25.35h-5.2a4.83,4.83,0,0,1-4.83-4.94c0-1.37.05-2.69.05-3.68V62.1c0-1.38,0-3.13-.09-4.83a4.83,4.83,0,0,1,4.83-5Zm-.16,44.18c7.71,0,12.91-6.58,12.91-19.81,0-12-5-19.26-13.38-19.26h0a4.84,4.84,0,0,0-4.84,4.84v29.4a4.84,4.84,0,0,0,4.84,4.83Z"/><path d="M214.42,102C205,102,198.58,91.86,198.58,77c0-14.5,6.49-25.07,15.94-25.07,9.19,0,15.84,10.29,15.84,24.86C230.36,91.16,223.61,102,214.42,102Zm-.06-44.54c-6.8,0-10.68,8.89-10.68,19.4.06,10.71,3.88,19.81,10.68,19.81s11-9.1,11-19.6S221.16,57.41,214.36,57.41Z"/><path d="M252.3,92.42c0,2.31.08,4.75.15,6.57a2.49,2.49,0,0,1-2.39,2.59H250a2.5,2.5,0,0,1-2.6-2.53c0-1.68.05-3.63.05-5.23V61.89c0-2-.08-4.72-.16-7a2.5,2.5,0,0,1,2.39-2.58h.12a2.5,2.5,0,0,1,2.6,2.56c0,1.73-.11,3.69-.11,5.27Z"/><path d="M271.79,62c0-3.71-.05-7.35-.26-9.59h10c8.71,0,13.12,6.23,13.12,15.2,0,10-5.1,16.17-13.23,16.17h-4.73v9.73c0,1.35.06,3.32.12,5.08a3,3,0,0,1-2.85,3h-.06a2.11,2.11,0,0,1-2.2-2.17c.05-2.26.1-4.87.1-6.66Zm9.41,16.53c5.63,0,8.71-3.71,8.71-10.71,0-6-2.87-10.37-8.23-10.37h-5V78.49Z"/><path d="M300.7,62c0-2.14-.09-5-.17-7.22a2.47,2.47,0,0,1,2.29-2.56h.07a2.48,2.48,0,0,1,2.66,2.49c0,2.25,0,4.55,0,6.74V94A2.47,2.47,0,0,0,308,96.47h3.18c2.58,0,5.42,0,8.08-.14a2.47,2.47,0,0,1,2.57,2.55c0,.56,0,1.13,0,1.73v1l-13.87-.07c-1.34,0-3.25,0-4.79.07a2.48,2.48,0,0,1-2.53-2.53c0-2,.1-4.24.1-6.3Z"/><path d="M350.11,99.72c-.89-3.44-1.69-6.87-2.52-10.39a2.54,2.54,0,0,0-2.45-2c-2.67,0-7.18,0-9.8,0a2.53,2.53,0,0,0-2.44,1.92c-.81,3.32-1.89,7.83-2.49,10.35a2.52,2.52,0,0,1-2.4,1.93H328a2.51,2.51,0,0,1-2.5-3.17c3.83-14.24,8-30.74,11.36-44.1a2.53,2.53,0,0,1,2.46-1.91h2.18a2.52,2.52,0,0,1,2.46,2c3.77,16.06,9.2,36.12,11.38,44.09a2.51,2.51,0,0,1-2.32,3.18l-.3,0A2.52,2.52,0,0,1,350.11,99.72ZM337.77,68.2l-2.5,10.73a2.53,2.53,0,0,0,2.46,3.1h5a2.53,2.53,0,0,0,2.48-3.1L342.7,68.19A2.53,2.53,0,0,0,337.77,68.2Z"/><path d="M367.05,84.75a2.66,2.66,0,0,0-.2-1l-13.13-31.1v-.28c.47,0,.95.07,1.43.07.83,0,1.63,0,2.43-.11a2.55,2.55,0,0,1,2.57,1.6l8.71,22.32a19.7,19.7,0,0,1,.69,2.1s.42-1.61.58-2.1l7.58-22.17a2.53,2.53,0,0,1,2.4-1.71h.44a23,23,0,0,0,3.13-.21v.28L372.15,83.8a2.45,2.45,0,0,0-.15.89L372.08,99a2.53,2.53,0,0,1-2.46,2.55h-.06A2.53,2.53,0,0,1,367,99Z"/></g><path class="cls-6" d="M40,75.93a2.47,2.47,0,0,0-2.38,2.46V87c0,1.92.09,5.3.2,8a2.45,2.45,0,0,1-2.36,2.55h-.1a2.46,2.46,0,0,1-2.55-2.49c0-2.15,0-4.66,0-5.9l0-30.32c0-2.23-.09-5.41-.17-8A2.47,2.47,0,0,1,35,48.37h.07a2.47,2.47,0,0,1,2.61,2.47c0,1.85,0,4,0,5.65l-.05,11A2.46,2.46,0,0,0,40,69.92c1.85,0,4,0,6.34,0,1.78,0,3.69,0,6.12,0a2.47,2.47,0,0,0,2.43-2.46V58.87c0-2.22,0-5.36-.16-7.9a2.45,2.45,0,0,1,2.33-2.57h.16a2.45,2.45,0,0,1,2.58,2.5c0,1.83-.07,4-.07,5.6V87c0,1.92.06,5.31.15,8a2.45,2.45,0,0,1-2.38,2.54h-.11a2.48,2.48,0,0,1-2.56-2.52c0-2,.06-4,.06-5.87V78.3a2.46,2.46,0,0,0-2.43-2.46c-2,0-4.11,0-5.8,0C44.14,75.82,42.12,75.86,40,75.93Z"/><path class="cls-6" d="M82,98C72.53,98,66.15,87.86,66.15,73,66.15,58.52,72.64,48,82.09,48c9.2,0,15.84,10.29,15.84,24.86C97.93,87.16,91.18,98,82,98Zm-.06-44.54c-6.8,0-10.68,8.89-10.68,19.4.06,10.71,3.88,19.81,10.68,19.81s11-9.1,11-19.6S88.73,53.41,81.93,53.41Z"/><path class="cls-6" d="M99.41,48.37c.48,0,2.08.07,3,.07h.5a2.41,2.41,0,0,1,2.39,2c1.52,7.73,6.3,32.14,7.58,39l.31,1.75.32-1.68c.39-2,6.48-29.37,8.3-38.34a2.3,2.3,0,0,1,2.27-1.85h1.16a2.3,2.3,0,0,1,2.27,1.87c1.76,9,8,36.6,8.37,38.6l.27,1.4.26-1.47c1.28-6.93,5.82-31.6,7.12-39.32a2.31,2.31,0,0,1,2.29-1.92h.47c.91,0,2.34-.07,2.87-.07v.28c-.87,2.74-8.26,38.05-10.13,47a2.32,2.32,0,0,1-2.26,1.84h-1.88a2.31,2.31,0,0,1-2.26-1.84l-5.84-27.91a2.31,2.31,0,0,0-4.52,0l-6,27.94A2.31,2.31,0,0,1,114,97.53h-1.91a2.31,2.31,0,0,1-2.25-1.82c-2-9-9.56-44.32-10.39-47.06Z"/><path class="cls-6" d="M174.8,48.3c10.74,0,17.75,10,17.75,23.88,0,15.47-7,25.35-18.07,25.35h-7.63A2.47,2.47,0,0,1,164.39,95c.05-2.12.11-4.53.11-6.1V58.1c0-2.07-.08-4.93-.17-7.25a2.46,2.46,0,0,1,2.46-2.55Zm-.16,44.18c7.71,0,12.91-6.58,12.91-19.81,0-12-5-19.26-13.38-19.26h-2.38a2.46,2.46,0,0,0-2.46,2.46V90a2.46,2.46,0,0,0,2.46,2.46Z"/><path class="cls-6" d="M212.42,98C203,98,196.58,87.86,196.58,73c0-14.5,6.49-25.07,15.94-25.07,9.19,0,15.84,10.29,15.84,24.86C228.36,87.16,221.61,98,212.42,98Zm-.06-44.54c-6.8,0-10.68,8.89-10.68,19.4.06,10.71,3.88,19.81,10.68,19.81s11-9.1,11-19.6S219.16,53.41,212.36,53.41Z"/><path class="cls-6" d="M250.3,88.42c0,2.33.08,4.78.15,6.6a2.45,2.45,0,0,1-2.36,2.55H248a2.46,2.46,0,0,1-2.56-2.49c0-1.7.05-3.66.05-5.27V57.89c0-2-.08-4.75-.16-7a2.45,2.45,0,0,1,2.35-2.54h.19a2.46,2.46,0,0,1,2.57,2.52c0,1.74-.11,3.72-.11,5.31Z"/><path class="cls-6" d="M269.79,58c0-2.51,0-5-.1-7a2.46,2.46,0,0,1,2.45-2.57h7.38c8.71,0,13.12,6.23,13.12,15.2,0,10-5.1,16.17-13.23,16.17h-2.27a2.46,2.46,0,0,0-2.46,2.46v7.27c0,1.47.07,3.7.13,5.57a2.46,2.46,0,0,1-2.36,2.54h-.2a2.46,2.46,0,0,1-2.56-2.51c.05-2.17.1-4.6.1-6.3Zm9.41,16.53c5.63,0,8.71-3.71,8.71-10.71,0-6-2.87-10.37-8.23-10.37h-2.54a2.46,2.46,0,0,0-2.46,2.46V72a2.46,2.46,0,0,0,2.46,2.46Z"/><path class="cls-6" d="M298.7,58c0-2.15-.09-5-.17-7.23a2.46,2.46,0,0,1,2.27-2.55h.11a2.46,2.46,0,0,1,2.64,2.47c0,2.26,0,4.57,0,6.76V90A2.46,2.46,0,0,0,306,92.47h3.2c2.59,0,5.44,0,8.1-.14a2.46,2.46,0,0,1,2.56,2.54q0,.84,0,1.74v1l-13.87-.07c-1.35,0-3.26,0-4.81.07a2.46,2.46,0,0,1-2.51-2.51c0-2,.1-4.25.1-6.32Z"/><path class="cls-6" d="M348.12,95.78c-.89-3.49-1.7-7-2.54-10.51a2.48,2.48,0,0,0-2.38-1.9c-2.69,0-7.29,0-9.91,0a2.46,2.46,0,0,0-2.38,1.87c-.81,3.35-1.91,7.93-2.51,10.45a2.46,2.46,0,0,1-2.34,1.88h-.19a2.47,2.47,0,0,1-2.44-3.1c3.85-14.27,8.06-30.84,11.41-44.23a2.44,2.44,0,0,1,2.38-1.86h2.29a2.46,2.46,0,0,1,2.4,1.9c3.78,16.11,9.24,36.3,11.41,44.22a2.45,2.45,0,0,1-2.25,3.1l-.45,0A2.46,2.46,0,0,1,348.12,95.78ZM335.84,63.91,333.25,75a2.46,2.46,0,0,0,2.39,3h5.2a2.46,2.46,0,0,0,2.41-3l-2.62-11.11A2.46,2.46,0,0,0,335.84,63.91Z"/><path class="cls-6" d="M365.05,80.74a2.52,2.52,0,0,0-.19-1L351.72,48.65v-.28c.47,0,.95.07,1.43.07.85,0,1.67,0,2.48-.11a2.46,2.46,0,0,1,2.5,1.55l8.73,22.37a19.7,19.7,0,0,1,.69,2.1s.42-1.61.58-2.1L375.72,50a2.45,2.45,0,0,1,2.34-1.66h.49a23,23,0,0,0,3.13-.21v.28L370.15,79.81a2.34,2.34,0,0,0-.15.87l.08,14.41a2.46,2.46,0,0,1-2.39,2.48h-.2A2.46,2.46,0,0,1,365,95.1Z"/><g class="cls-5"><path d="M430.37,95.5a3.54,3.54,0,0,1-3.51-3.13l-.06-.59C425.55,84,429.3,75.59,439.7,67c9.37-7.59,14.57-13.18,14.57-19.63,0-7.3-6.66-12.17-19.77-12.31a53.47,53.47,0,0,0-18.22,3.18,3.52,3.52,0,0,1-4.37-1.57l-1.53-2.77a3.53,3.53,0,0,1,1.9-5c7-2.53,16.76-4.13,26-4.13C462.18,24.74,473,34.91,473,45.8c0,9.74-7.91,16.76-17.9,24.92-9.15,7.45-12.48,13.75-11.86,21.06h0a3.53,3.53,0,0,1-3.52,3.72Zm-7.73,20c0-5.3,5.2-9,12.48-9s12.28,3.72,12.28,9c0,5-4.78,8.88-12.49,8.88C427.63,124.43,422.64,120.57,422.64,115.55Z"/></g><path class="cls-7" d="M426.37,92.5a3.54,3.54,0,0,1-3.51-3.13l-.06-.59C421.55,81,425.3,72.59,435.7,64c9.37-7.59,14.57-13.18,14.57-19.63,0-7.3-6.66-12.17-19.77-12.31a53.47,53.47,0,0,0-18.22,3.18,3.52,3.52,0,0,1-4.37-1.57l-1.53-2.77a3.53,3.53,0,0,1,1.9-5c7-2.53,16.76-4.13,26-4.13C458.18,21.74,469,31.91,469,42.8c0,9.74-7.91,16.76-17.9,24.92-9.15,7.45-12.48,13.75-11.86,21.06h0a3.53,3.53,0,0,1-3.52,3.72Zm-7.73,20c0-5.3,5.2-9,12.48-9s12.28,3.72,12.28,9c0,5-4.78,8.88-12.49,8.88C423.63,121.43,418.64,117.57,418.64,112.55Z"/></g></svg>