<svg xmlns="http://www.w3.org/2000/svg" width="1670" height="1450" viewBox="0 0 1670 1450"><defs><style>.cls-1{opacity:0.46;}.cls-2{fill:#4a4aa0;}.cls-3{fill:#7c7cf2;}.cls-4{fill:#6363ce;}.cls-5{fill:#32326d;}.cls-6{fill:#8428a3;}.cls-7{fill:#2c004c;}.cls-8{fill:#6e00ce;opacity:0.66;}.cls-9{fill:#952dc1;}.cls-10{fill:#bf5de8;}.cls-11{fill:#a40073;}.cls-12{fill:#e807b9;}.cls-13{fill:#f92bdc;}.cls-14{fill:#c60093;}</style></defs><g id="levelcompletescreen"><g class="cls-1"><path d="M1643.3,1064.28h0c-4.42-16.45-12.33-35.48-25.53-57.78-46.72-78.9-79.67-89.85-87.59-106-3.1-6.33-9.43-12.35-15.79-17.26a36.34,36.34,0,0,0-6.33-5.87s-11.09-6.22-12.14-6.69c-.74-.33-2.21,12.14-5.63,21.47-.7,1.4-1.35,2.28-1.85,2.31-2.57.11-23.65,13.39-39.77,10,0,0-111.41-13.22-141.88,21.09,0,0-13.25,15.53-15.6,20.78s-37.86,42.37-35.6,82.48c2.21,39.32,13,70.35,25.16,85.13.24.29.48.58.73.86,12.48,14.41,17.47,34.3,67.93,56.86,1,.47-3.77,8.4,40.4,28.15,1,.47,13.38,19.85,69.72,31.16s86.31.74,99.06-2.39,74.12-50.12,80.14-77.7c2.86-13.1,8.76-28.55,9.16-49.61l.24-.08c0-.08,0-.19,0-.29v-2.93A133.83,133.83,0,0,0,1643.3,1064.28Z"/><path d="M1390.39,535.28s26,97.29,53.75,114c0,0,46,46.8,108.78,41.6,1.44-.12,2.86-.29,4.27-.48-.84.75-1.31,1.19-1.31,1.19s15.95,23.75,32.3,9.64c0,0,11.37-7.8,5.59-23.63a10.15,10.15,0,0,0-.43-1c17.49-11.42,31-27.88,40.36-43.13.11-.12.2-.24.31-.37,10.64-13.06,17.1-31.87,18.44-54.57,1-11.91.86-28.82-4.84-52-5.33-23.54-15-49-29.52-75.27l-.37.08c-.32-.61-.63-1.22-1-1.84l-.11-.19,2.69-.76c67.65-52.81-59.06-79.71-59.06-79.71-33.38-2.43-61.52.25-85.26,6.23-.23-.62-.47-1.25-.73-1.9-17.71-45.56-45.56-57.74-52.85-60.44s-9.19,4.29-14.35,9.78a9,9,0,0,0-1.24,11.24c43.62,13.55,57.38,43.4,57.38,43.4s.27.39.74,1C1368.8,408,1351.7,492.51,1351.7,492.51c-5.71,55.11,35.68,41.63,35.68,41.63,3.34-2.21,7.13-4.46,11.29-6.75C1393.38,532.33,1390.39,535.28,1390.39,535.28Z"/><path d="M1171.23,43.41s-65.3-46.28-154.78-2.85c-1.14-5.38-4-10.62-7.44-8.11-4,2.87-11.82-6.41-16.82,7.7-2.67,2.18-5.1,7.32-6.68,18.58-31.11,21.56-48.72,48.45-58.11,75.56-22.69,63.86.57,129.31.57,129.31,96.16,189.29,239.47,142,243.79,140.49,7.81,5.06,16.64,6.75,25.09-5.2l-1.3-.84a27.14,27.14,0,0,0,5.32-5.79,16.46,16.46,0,0,0,1.93-3.53l5.41-2.69,3.89-5.15c29.59-34.33,39.53-26.2,59.17-142.11C1291.61,118.73,1171.23,43.41,1171.23,43.41Z"/><path d="M660.16,123.84c-11.15-7.44-23.38-18.57-42.84-26.62,0-.13,0-.22,0-.25a1.57,1.57,0,0,0-.26-.12l-2.74-1.07A133.46,133.46,0,0,0,581.23,88h0c-16.93-1.88-37.53-1.46-63.11,2.7-90.51,14.7-112.72,41.39-130.65,42.87-7,.58-14.94,4.27-21.83,8.4a35.82,35.82,0,0,0-7.78,3.75s-9.84,8.06-10.66,8.87c-.58.57,10.51,6.48,17.94,13.07,1.05,1.16,1.64,2.09,1.47,2.56-.83,2.44,3.85,26.91-5.23,40.68,0,0-52.95,98.9-32.12,139.79,0,0,9.62,18,13.66,22.1S368.55,423.5,406.71,436c37.42,12.29,70.24,13.59,88.44,7.64.37-.12.73-.24,1.08-.37,18-6.36,38.3-3.74,77.72-42.5.82-.81,6.45,6.58,40.95-27.34.82-.81,23.37-5.22,54.46-53.55s32.17-80.08,33.91-93.1S683.65,139.51,660.16,123.84Z"/><path d="M183.61,777.56l.48,0c16.82-1,35-9.06,52.61-23.47,9.45-7.32,21.75-18.92,34.94-38.86,13.67-19.88,25.86-44.25,35.28-72.75l-.32-.22c.23-.65.47-1.29.7-2a1.72,1.72,0,0,1,.07-.21l2.38,1.46c84.69,13.87,18.5-97.47,18.5-97.47-20.86-26.17-41.93-45-62.42-58.41.3-.59.59-1.19.9-1.82,21.46-43.93,11.51-72.65,8.56-79.83s-9.4-3.85-16.93-3.91a9,9,0,0,0-9.1,6.71c19.64,41.24,7.05,71.6,7.05,71.6s-.11.46-.27,1.24c-86.45-49.72-160.16-4.91-160.16-4.91-44.37,33.19-6.38,54.46-6.38,54.46,3.89.95,8.12,2.2,12.62,3.71-7.22-.54-11.41-.73-11.41-.73S36.88,617.29,43.41,649c0,0-3.17,65.56,43.23,108.14,1.06,1,2.15,1.91,3.25,2.82-1.12-.12-1.77-.17-1.77-.17S81.49,787.63,103,790.07c0,0,13.44,3.07,21.15-11.92a9.41,9.41,0,0,0,.43-1C144.8,782.26,166,781,183.61,777.56Z"/><path d="M498.35,931.32c4.18-3.56,7.45-8.54,3.59-10.4-4.41-2.12,0-13.45-14.77-11.14-3.19-1.32-8.86-1-19.52,3-34.36-17.43-66.93-19.93-95.62-15-66.15,10.93-112,61.72-112,61.72-120.83,174.57-11.07,278.17-7.72,281.26-.74,9.28,2,17.86,16.5,19.61,0,0,0-.53.13-1.54a27.39,27.39,0,0,0,7.61,1.93,17,17,0,0,0,4,0l4.93,3.49,6.38,1c44.27,9.71,41.85,22.32,153.16-15.5,115.29-39.17,124.34-180.88,124.34-180.88S579.08,989.4,498.35,931.32Z"/><path d="M1070.55,1149.82c-25.07-26.91-49.75-45.8-73.34-58.73.27-.67.55-1.36.83-2.07,19.8-50,6.47-80.58,2.62-88.2s-10.61-3.42-18.88-2.85a9.94,9.94,0,0,0-9.4,8.12c25,43.53,13.78,77.86,13.78,77.86l-.19,1.38c-98.93-47.16-175.91,8.18-175.91,8.18-45.81,40.12-2.38,60.21-2.38,60.21,4.34.72,9.08,1.73,14.14,3-8,0-12.57.16-12.57.16s-51.78,97.83-41.94,132c0,0,2.08,72.1,56.52,114.84,1.25,1,2.52,1.91,3.8,2.81-1.24,0-2,0-2,0s-4.91,31.06,18.82,31.91c0,0,15,2.23,22.16-14.85a9.48,9.48,0,0,0,.4-1.12c22.63,3.87,45.77.68,64.75-4.56l.53-.08c18.34-2.56,37.6-12.88,55.66-30.16,9.74-8.82,22.23-22.58,35-45.54,13.3-22.94,24.59-50.67,32.5-82.7l-.36-.21c.19-.73.39-1.46.59-2.2l.06-.24,2.73,1.4C1152.5,1266.22,1070.55,1149.82,1070.55,1149.82Z"/></g><path id="backgrond" class="cls-2" d="M1481.21,860.44c1,.47-5.2,22.9-7.77,23s-23.65,13.39-39.77,10c0,0-111.41-13.22-141.88,21.09,0,0-13.25,15.53-15.6,20.78s-37.86,42.37-35.6,82.48c2.21,39.32,13,70.35,25.16,85.13.24.29.48.58.73.86,12.48,14.41,17.47,34.3,67.93,56.86,1,.47-3.77,8.4,40.4,28.15,1,.47,13.38,19.85,69.72,31.16s86.31.74,99.06-2.39,74.12-50.12,80.14-77.7,25.51-65.55-21.21-144.45-79.67-89.86-87.58-106S1478.05,859,1481.21,860.44Z"/><path class="cls-3" d="M1633.14,1089.87v-2.93a133.38,133.38,0,0,0-4.84-33.66h0c-4.42-16.45-12.33-35.48-25.53-57.78-46.72-78.9-79.67-89.85-87.59-106-7-14.36-30.68-27.17-33.66-28.86.63,1.63-5.34,22.82-7.84,22.92s-23.64,13.4-39.77,10c0,0-111.41-13.22-141.88,21.09,0,0-9.28,12.55-15.06,20.35h0c-.33.89-15.3,41.13,4,51,19.5,10,23.71,11.86,35.88,7.21S1404,933.75,1424.75,938c0,0-55.15,35.89-75,77.48s-20.23,56.55-20.23,56.55,7.26,48.65,36.12,60.29c0,0,32.45,23.34,58.32,13.45,5-1.92,11-3.88,17.44-5.8l32.23-8.65h0l16.16-3.83c7-1.62,11.58-2.59,11.58-2.59l116.39-26.18c1.84-4.11,14.73-8.36,15.33-8.56C1633.14,1090.08,1633.13,1090,1633.14,1089.87Z"/><path class="cls-4" d="M1452.5,917.61c.8-.82-126.53,6.51-154.28,79.89S1341,1167,1341,1167s14.58,12.53,27.67,17.11c0,0-70-80.47-18.28-148.18C1350.4,1036,1400.31,970.69,1452.5,917.61Z"/><path class="cls-5" d="M1410.59,938s-83.85,63.43-90.48,100.83-8.47,78.2,9,101.16,35.59,36.09,33.49,35.15c0,0-33.51-23.81-33.64-74.32s-.79-66,15.16-90.35S1395.72,951.52,1410.59,938Z"/><path class="cls-4" d="M1516.8,974.11c2.11.94,53.8,51.79,18,117.78,0,0-31.08,44.13-72.76,69.65,0,0-27.49,40.82-15.09,48.31,2.83,1.71-.47,6.92,21,9.38,0,0,99.57-110.2,94.2-115.12,0,0,28.84-46.42-4.68-89.14S1516.8,974.11,1516.8,974.11Z"/><path class="cls-4" d="M1609.63,1034.52c-5-2.79,29.53,27.08-.88,86.64s-58.27,71.09-68.14,93.17c0,0,.7,4.09,11.7-3.6s69.52-85,66.14-91.53C1618.45,1119.2,1645,1054.13,1609.63,1034.52Z"/><path class="cls-5" d="M1456.28,897.86s42.46-7.51,42.66,9c0,0,1.16,3,2.57-.11s4.4-16.32,27.13,8c0,0-23.9-40.65-35.58-48.39,0,0-11.09-6.22-12.14-6.69s-3.56,24.9-11.06,30.37A65.07,65.07,0,0,1,1456.28,897.86Z"/><path class="cls-6" d="M1375.39,524.28s26,97.29,53.75,114c0,0,46,46.8,108.78,41.6S1633.17,600,1635,585.3s14.75-56.27-33.24-146.81S1375.39,524.28,1375.39,524.28Z"/><path class="cls-7" d="M1336.7,481.51s27.65-136.86,208.58-123.68c0,0,126.71,26.9,59.06,79.71,0,0-176.63,49-232,85.6C1372.38,523.14,1331,536.62,1336.7,481.51Z"/><path class="cls-8" d="M1519.73,367.71s49.5,22.15,55.88,46.75c0,0,23.32,29.12,28.51-.64S1536.92,363.16,1519.73,367.71Z"/><path class="cls-7" d="M1448.23,366.14s-13.76-29.85-57.38-43.4a9,9,0,0,1,1.24-11.24c5.16-5.49,7.07-12.49,14.35-9.78s35.14,14.88,52.85,60.44S1448.23,366.14,1448.23,366.14Z"/><path class="cls-6" d="M1540.88,680.6s15.95,23.75,32.3,9.64c0,0,11.37-7.8,5.59-23.63S1540.88,680.6,1540.88,680.6Z"/><path class="cls-9" d="M1414.76,521.43s28.15,105.49,73.91,127.23,55.78,27,78.71,18.56,24.43-11.71,51.63-45.1,27.08-104.32-15.92-181.87C1603.09,440.25,1455.07,472.42,1414.76,521.43Z"/><path class="cls-10" d="M1572,477.76s-1.67-19.14,22.55-11.91,36,134,9.08,151.16C1603.65,617,1616.93,548.33,1572,477.76Z"/><path id="background" class="cls-11" d="M1157.52,391.79s-146.18,51.93-244.07-140.13c0,0-47.17-132.23,57.56-204.28s185.22-15,185.22-15,120.38,75.32,100,195.37-30.27,107-62.41,146Z"/><path id="background-2" data-name="background" class="cls-12" d="M1193.21,375l-36.35,18S1010.6,444.8,913,252.6c0,0-47-132.29,57.81-204.2,45.86-31.46,87-38.22,118.87-35.86,0,0,91.39,54.38,108.63,122.61s36.78,133.87,3.06,229.14Z"/><path class="cls-13" d="M1160.05,310.62s-38.89-34.52-43.65-48.47c0,0-21-40-18-47s1.72-12.38,7.63-3.9c0,0,3.47,25.33,11.11,38.14s32,50.52,45.12,56.18C1162.23,305.52,1165.52,311.76,1160.05,310.62Z"/><path class="cls-14" d="M1178.58,258.93s15.63-67.23-8-84.48-52.41-30.76-42.52-79c0,0,5.12-8.54,12.21,5.22,0,0-5.27,37.09,20.22,52.76s33.89,20.45,35.39,39.57-8,62.06-10.2,63.84S1186.64,262.38,1178.58,258.93Z"/><path class="cls-13" d="M1084.06,139.83s-29.09-26.74-34.14-45.59-6.8-39.87-4.36-48.36,2-7.49,6-5.76-3.44,16.41,1.32,30.37,7.08,36.4,23.36,54.09,16.56,14.24,14.69,15.82S1084.06,139.83,1084.06,139.83Z"/><path class="cls-14" d="M1105,383.63c-.43,1-58.2-23.07-65.67-31.94s-8.91-8.3-5-9c0,0,24.91,14.23,27.36,14.08h0S1105.42,382.62,1105,383.63Z"/><path class="cls-13" d="M916,221.83c0-1.26,2.74-13.21,7.64-5.15,0,0,13.71,57.12,18.18,57.84,0,0,5.63,28.64,33.71,38.26s18.43,12.65,16,12.8-44.91-12.06-57.75-46.16S916,223.09,916,221.83Z"/><path class="cls-13" d="M954.72,194.2s-22.77-36-12.43-60.15,10.77-25.2,16.24-24.05-6.6,21-6.6,21-7.33,17.13-1.84,35,12.14,32.61,5.07,28.4"/><path class="cls-14" d="M964.66,212.76s2.87-9.5,9.64-3,4.79,47.35,15.45,61.44,40.77,41.28,43.79,42.57,13,19.85-6,5.76-42.2-40.7-49.13-58S965.09,211.75,964.66,212.76Z"/><path class="cls-11" d="M1036.58,158.87c-2-10.61-35.93-116.7-34.78-122.17s-2.61-19-7.79-15.25S977,8.22,973.6,49.68,990.53,169,990.53,169c18.52,112.83,168.57,216.34,168.57,216.34,8.21,5.89,17.71,8.76,26.77-4.06s-5.92-25.18-5.92-25.18l-46.09-40S1046,209.38,1036.58,158.87Z"/><path class="cls-14" d="M990,28.08c-5.18,3.74-17-13.23-20.42,28.22s16.94,119.31,16.94,119.31c18.51,112.82,168.57,216.33,168.57,216.33,8.21,5.89,17.71,8.77,26.77-4.05,0,0-115.35-73.17-156.17-181.23,0,0-46.88-135.68-39-168.07Z"/><path id="backgrond-2" data-name="backgrond" class="cls-2" d="M333,143.59c.82-.8,19.43,13.2,18.59,15.63s3.85,26.91-5.23,40.68c0,0-52.95,98.9-32.12,139.79,0,0,9.62,18,13.66,22.1S353.55,412.5,391.71,425c37.42,12.29,70.24,13.59,88.44,7.64.37-.12.73-.24,1.08-.37,18-6.36,38.3-3.74,77.72-42.5.82-.81,6.45,6.58,40.95-27.34.82-.81,23.37-5.22,54.46-53.55s32.17-80.08,33.91-93.1-19.62-87.3-43.11-103-51.71-47.67-142.23-33-112.72,41.4-130.65,42.87S330.55,146,333,143.59Z"/><path class="cls-3" d="M602.07,85.85l-2.74-1.07A133.46,133.46,0,0,0,566.23,77h0c-16.93-1.88-37.53-1.46-63.11,2.7-90.51,14.7-112.72,41.39-130.65,42.87-15.94,1.31-36.49,18.65-39.15,20.81,1.75,0,19.29,13.29,18.48,15.66s3.85,26.9-5.23,40.67c0,0-52.95,98.9-32.12,139.79,0,0,8.3,13.22,13.45,21.45h0c.7.63,32.7,29.26,48.93,14.9,16.41-14.52,19.7-17.75,19.81-30.78s-23.56-102.8-12-120.62c0,0,13.3,64.45,44.77,98.1S474.68,362,474.68,362,522.63,373,544,350.4c0,0,33.57-21.7,33.8-49.39.05-5.38.41-11.7,1-18.36l3.71-33.16v0L584.8,233c1.06-7.15,1.82-11.73,1.82-11.73l18.09-117.92c-3.15-3.21-2.41-16.77-2.38-17.39A1.57,1.57,0,0,0,602.07,85.85Z"/><path class="cls-4" d="M375.77,191.19c-.47-1.06-40.1,120.18,18.09,172.79s173.46,22,173.46,22,17-9,26-19.51c0,0-100.47,35.79-144.64-37.06C448.71,329.42,406.15,259.14,375.77,191.19Z"/><path class="cls-5" d="M379.45,237.63s28.46,101.22,60.87,121S510,395.09,537.8,387.18s46.58-20,44.94-18.35c0,0-34.39,22.51-81.47,4.2S439.58,349.7,422.68,326,386.62,256.42,379.45,237.63Z"/><path class="cls-4" d="M451.84,151.93c1.64-1.62,67.85-31.19,116.22,26.22,0,0,29.75,45,38.31,93.16,0,0,28,40.49,39.46,31.68,2.63-2,6.28,2.95,16.4-16.12,0,0-66.27-132.91-72.82-129.71,0,0-32.7-43.79-84.7-28.17S451.84,151.93,451.84,151.93Z"/><path class="cls-4" d="M542,87.54c-4.44,3.67,36-17.61,80.34,32.44s44.93,80.18,61.88,97.43c0,0,4.07.84.92-12.21s-53.75-95.73-61.09-95C624,110.22,573.12,61.75,542,87.54Z"/><path class="cls-5" d="M358.76,180.46s8.5-42.28,23.93-36.45c0,0,3.25,0,.83-2.43s-13.58-10.05,17.38-22.33c0,0-46.57,7.42-58,15.47,0,0-9.84,8.06-10.66,8.87S354.08,156,356.45,165A64.85,64.85,0,0,1,358.76,180.46Z"/><path class="cls-6" d="M75.71,521.17S21.88,606.29,28.41,638c0,0-3.17,65.56,43.23,108.14S195,761.91,207,753.3s51.35-27.34,85.31-124S75.71,521.17,75.71,521.17Z"/><path class="cls-7" d="M80.88,463.73s119.3-72.54,232.37,69.33c0,0,66.19,111.34-18.5,97.47,0,0-155.84-96.52-220.25-112.34C74.5,518.19,36.51,496.92,80.88,463.73Z"/><path class="cls-8" d="M288.66,521s17.3,51.4,3.56,72.77c0,0-5.57,36.89,19.81,20.51S303.66,530.54,288.66,521Z"/><path class="cls-7" d="M241.31,467.4s12.59-30.36-7.05-71.6a9,9,0,0,1,9.1-6.71c7.53.06,14-3.28,16.93,3.9s12.9,35.91-8.56,79.84S241.31,467.4,241.31,467.4Z"/><path class="cls-6" d="M73.12,748.79S66.49,776.63,88,779.07c0,0,13.44,3.07,21.15-11.92S73.12,748.79,73.12,748.79Z"/><path class="cls-9" d="M104.51,548.16S46.1,640.41,61.17,688.77s18,59.32,39.76,70.42,25.17,10,68.16,7.34,95-50.88,122.83-135.08C291.92,631.45,167.86,544.52,104.51,548.16Z"/><path class="cls-10" d="M243.27,634.08s12.93-14.22,24.06,8.48-74.06,117.38-104.9,109.21C162.43,751.77,221.9,714.94,243.27,634.08Z"/><path id="background-3" data-name="background" class="cls-11" d="M238.83,1229.81s-115.17-103.93,7.28-281.34c0,0,93.92-104.36,207.08-46.47s101.22,155.85,101.22,155.85-9,141.71-124.34,180.88S321.51,1263,272,1253.2Z"/><path id="background-4" data-name="background" class="cls-12" d="M270.53,1253.25l-33.12-23.42s-115-104.08,7.64-281.34c0,0,94.05-104.23,207.14-46.2,49.48,25.39,75,58.42,88.05,87.54,0,0-4.4,106.25-56.24,153.85s-100.29,96-200.14,111.61Z"/><path class="cls-13" d="M311.46,1193.45s11.87-50.62,21.89-61.44c0,0,25.19-37.53,32.83-38.23s11.7-4.37,7.05,4.86c0,0-20.64,15.1-28.27,27.9s-29.22,52.21-28,66.41C317,1193,313.05,1198.81,311.46,1193.45Z"/><path class="cls-14" d="M365.73,1185.18s66.58-18.2,70.53-47.18,2.15-60.73,49.28-75c0,0,9.95.45,1.21,13.22,0,0-35.13,13-36.8,42.87s-1.89,39.54-18,49.95-58.39,22.47-61,21.36S366.53,1193.91,365.73,1185.18Z"/><path class="cls-13" d="M425.59,1045.42s9.7-38.31,23.89-51.72,31.84-24.93,40.47-26.82,7.54-1.79,7.94,2.58-16.07,4.77-26.09,15.59-28.66,23.54-36.49,46.27-4.65,21.34-6.94,20.45S425.59,1045.42,425.59,1045.42Z"/><path class="cls-14" d="M221,1179.71c-1.09.1-7.37-62.18-3.11-73S221,1095,223.47,1098c0,0-.67,28.69.62,30.77h0S222.13,1179.61,221,1179.71Z"/><path class="cls-13" d="M273.57,936.54c1.11-.59,12.92-3.87,8.16,4.27,0,0-43.74,39.22-42.25,43.49,0,0-22.51,18.57-17.63,47.84s-2.37,22.23-3.66,20.15-10.75-45.25,13.15-72.75S272.46,937.13,273.57,936.54Z"/><path class="cls-13" d="M316.28,957.46s20.82-37.13,47-39.53,27.29-2.49,28.88,2.86S370.54,925,370.54,925s-18.55,1.69-31.65,15-22.92,26.18-22.57,18"/><path class="cls-14" d="M304.68,975s9.72-2,7.25,7-39.39,26.72-46.72,42.8-16.94,55.49-16.64,58.76-11.3,20.85-7.94-2.58,15.75-56.47,27.65-70.77S305.77,974.93,304.68,975Z"/><path class="cls-11" d="M386.27,1012.69c8.4-6.78,85.6-87.08,91-88.67s15.48-11.32,9.72-14.1,3.56-21.24-34.54-4.54S355.49,977,355.49,977C265,1046.9,245.28,1228.12,245.28,1228.12c-1.28,10,.71,19.75,16.29,21.63s19.34-17.18,19.34-17.18L294.18,1173S346.3,1045,386.27,1012.69Z"/><path class="cls-14" d="M479.2,909.53c-5.76-2.78,3.56-21.24-34.54-4.55s-96.91,71.61-96.91,71.61c-90.47,69.92-110.21,251.14-110.21,251.14-1.28,10,.71,19.75,16.29,21.63,0,0,9.55-136.26,85.21-223.54,0,0,97.1-105.75,129.34-114.2Z"/><path class="cls-6" d="M798.25,1151.88s-51.78,97.83-41.94,132c0,0,2.08,72.1,56.52,114.84s136.47,6.84,148.92-3.61,54-34.31,83-143.12S798.25,1151.88,798.25,1151.88Z"/><path class="cls-7" d="M799.06,1088.51s124.59-89.58,260.49,56.31c0,0,82,116.4-12,108.36,0,0-178.93-92.57-250.84-104.46C796.68,1148.72,753.25,1128.63,799.06,1088.51Z"/><path class="cls-8" d="M1031.58,1133.67s23.31,54.86,10.06,79.44c0,0-3,40.9,23.44,20.8S1048.82,1142.86,1031.58,1133.67Z"/><path class="cls-7" d="M975.16,1079s11.23-34.33-13.78-77.86a9.94,9.94,0,0,1,9.4-8.12c8.27-.57,15-4.78,18.88,2.85s17.18,38.25-2.62,88.2S975.16,1079,975.16,1079Z"/><path class="cls-6" d="M814.68,1401.53s-4.91,31.06,18.82,31.91c0,0,15,2.23,22.16-14.85S814.68,1401.53,814.68,1401.53Z"/><path class="cls-9" d="M832.1,1179s-56.2,106-35.6,157.75,24.74,63.47,49.53,73.8,28.43,8.83,75.31,2.27,99.8-63.79,123.16-158.41C1044.5,1254.43,901.2,1169.67,832.1,1179Z"/><path class="cls-10" d="M991.42,1261.42s13-16.67,27.07,7.27-71.22,134.88-105.7,128.54C912.79,1397.23,974.83,1351.84,991.42,1261.42Z"/></g></svg>