<svg xmlns="http://www.w3.org/2000/svg" width="1920" height="1080" viewBox="0 0 1920 1080"><defs><style>.cls-1{fill:#ffc2df;}.cls-2{opacity:0.41;}.cls-3{fill:#952dc1;}</style></defs><g id="levelcomplete222"><rect class="cls-1" y="0.5" width="1920" height="1080"/><g class="cls-2"><path d="M612.13,224.27H622a11.57,11.57,0,0,1,11.58,11.57V428.13h86.18a11.51,11.51,0,0,1,11.51,11.51v1.63a11.62,11.62,0,0,1-11.62,11.62H614.92A10.87,10.87,0,0,1,604.05,442V232.34A8.07,8.07,0,0,1,612.13,224.27Z"/><path d="M782.38,376.23a7,7,0,0,0-6.92,7.64c3.63,34.84,28,49.35,55.86,49.35,17,0,28.63-2.36,38.31-5.72a6.92,6.92,0,0,1,9,5l1.87,7.85a6.93,6.93,0,0,1-4.29,8.11c-10.86,4-27,7.85-48.94,7.85-50.54,0-80.73-33.24-80.73-82.76s29.17-88.54,77-88.54c53.59,0,67.84,47.15,67.84,77.34,0,2.82-.15,5.35-.34,7.56a6.94,6.94,0,0,1-6.92,6.35Zm72.91-21.37a7,7,0,0,0,6.92-7.62c-1.81-18.36-11.73-40.89-41.07-40.89-26.13,0-39.55,20.84-44.23,39.86a7,7,0,0,0,6.75,8.65Z"/><path d="M931.5,288.71a11.78,11.78,0,0,1,11.12,7.9L972.09,381A425.66,425.66,0,0,1,985.32,423h1c3.73-13.57,8.48-27.14,13.91-42.06l29.14-84.33a11.8,11.8,0,0,1,11.14-7.94h5.53a11.79,11.79,0,0,1,11,16.09l-55.2,140.61a11.78,11.78,0,0,1-11,7.48H978.52a11.78,11.78,0,0,1-11-7.6l-53.45-140.6a11.79,11.79,0,0,1,11-16Z"/><path d="M1116.75,376.23a11,11,0,0,0-10.84,12.95c5.44,31,28.68,44,55.11,44,14.84,0,25.59-1.8,34.52-4.49a11,11,0,0,1,13.8,8h0a11,11,0,0,1-7.36,13c-10.7,3.49-25.61,6.49-45,6.49-50.54,0-80.73-33.24-80.73-82.76s29.17-88.54,77-88.54c53.6,0,67.84,47.15,67.84,77.34,0,1.18,0,2.3-.07,3.37a11,11,0,0,1-11,10.54Zm63.57-21.37a11,11,0,0,0,10.85-13c-3.14-17.11-13.79-35.53-40.32-35.53-23.39,0-36.6,16.69-42.47,33.83a11,11,0,0,0,10.4,14.68Z"/><path d="M1268.21,212.05h9.5a10.18,10.18,0,0,1,10.18,10.18V442.71a10.18,10.18,0,0,1-10.18,10.18h-9.5A10.17,10.17,0,0,1,1258,442.71V222.23A10.17,10.17,0,0,1,1268.21,212.05Z"/><path d="M349.4,779.19a11.59,11.59,0,0,1-7.76,13.6A125.15,125.15,0,0,1,304,798.38c-50,0-82.56-33.92-82.56-84.63,0-51,34.94-88,89.07-88a110.7,110.7,0,0,1,30.92,4.42,11.6,11.6,0,0,1,7.87,14.39l-.19.64A11.54,11.54,0,0,1,334.67,653a81.91,81.91,0,0,0-24.21-3.31c-38,0-58.58,28.09-58.58,62.69,0,38.38,24.67,62,57.56,62a83.13,83.13,0,0,0,25.3-3.73,11.56,11.56,0,0,1,14.66,8.53Z"/><path d="M534.87,707.29c0,61.32-42.48,88.05-82.56,88.05-44.89,0-79.49-32.89-79.49-85.31,0-55.5,36.32-88,82.23-88C502.67,622,534.87,656.58,534.87,707.29ZM403.31,709c0,36.32,20.9,63.73,50.37,63.73,28.78,0,50.36-27.07,50.36-64.42,0-28.09-14.05-63.72-49.68-63.72S403.31,677.48,403.31,709Z"/><path d="M572.91,670.63c0-11.7-.16-22-.59-31.66a12.64,12.64,0,0,1,12.62-13.22h1a12.63,12.63,0,0,1,12.63,12l.76,14.73h1C609.56,636.71,625,622,652.39,622c22.61,0,39.74,13.7,46.94,33.23H700a68.34,68.34,0,0,1,18.5-21.58c9.94-7.54,20.9-11.65,36.66-11.65,21.93,0,54.48,14.39,54.48,71.94v85A12.64,12.64,0,0,1,797,791.57h-4.18a12.64,12.64,0,0,1-12.64-12.64V697.69c0-31.86-11.65-51.05-36-51.05-17.13,0-30.49,12.68-35.63,27.41a49.75,49.75,0,0,0-2.4,15.08v89.8a12.64,12.64,0,0,1-12.64,12.64h-4.18a12.64,12.64,0,0,1-12.65-12.64V692.21c0-26.38-11.64-45.57-34.6-45.57-18.84,0-32.55,15.08-37.34,30.16a41.37,41.37,0,0,0-2.4,14.73v87.4a12.64,12.64,0,0,1-12.64,12.64h-4.18a12.64,12.64,0,0,1-12.64-12.64Z"/><path d="M858.64,679.88c0-15.11-.34-28.14-.79-40.07a13.55,13.55,0,0,1,13.56-14.06h0A13.56,13.56,0,0,1,885,638.66l.75,15.52h.68C898.73,634,918.26,622,945.32,622c40.09,0,70.24,33.92,70.24,84.28,0,59.61-36.32,89.08-75.38,89.08-21.92,0-41.11-9.6-51-26h-.68v76.54a13.57,13.57,0,0,1-13.57,13.56h-2.67a13.57,13.57,0,0,1-13.57-13.56Zm29.81,44.2a65.63,65.63,0,0,0,1.25,11.67c.08.44.18.88.3,1.31,5.68,20.55,23.69,34.64,45,34.64,31.87,0,50.37-26,50.37-64.07,0-33.23-17.48-61.67-49.34-61.67-20.55,0-39.74,14.73-45.57,37.34a49.31,49.31,0,0,0-2,12.34Z"/><path d="M1067.36,548.32H1070a13.78,13.78,0,0,1,13.78,13.78V777.79A13.78,13.78,0,0,1,1070,791.57h-2.59a13.78,13.78,0,0,1-13.78-13.78V562.1A13.78,13.78,0,0,1,1067.36,548.32Z"/><path d="M1159.66,714.14a7.93,7.93,0,0,0-7.85,8.89c4.09,34.34,28.43,48.67,56.29,48.67,16.63,0,28.18-2.24,37.78-5.46a7.89,7.89,0,0,1,10.21,5.65l1.48,6.21a7.92,7.92,0,0,1-5,9.28c-11,4-27,7.61-48.57,7.61-51,0-81.54-33.57-81.54-83.59S1151.91,622,1200.22,622c54.13,0,68.52,47.62,68.52,78.11,0,2.47-.11,4.71-.26,6.72a7.93,7.93,0,0,1-7.89,7.33Zm71.66-21.59a7.93,7.93,0,0,0,7.86-8.88c-2.14-18.31-12.36-40.11-41.36-40.11-25.89,0-39.43,20.25-44.39,39.15a7.89,7.89,0,0,0,7.67,9.84Z"/><path d="M1342.4,582.33v40.19a3.23,3.23,0,0,0,3.23,3.23h36.71a3.23,3.23,0,0,1,3.23,3.22v16.5a3.23,3.23,0,0,1-3.23,3.23h-36.71a3.23,3.23,0,0,0-3.23,3.23v86.19c0,20.56,5.82,32.21,22.61,32.21a73.07,73.07,0,0,0,13.89-1.23,3.22,3.22,0,0,1,3.82,3l1,16.42a3.19,3.19,0,0,1-2.15,3.24c-5.84,1.95-14.21,3.26-24.43,3.26-14.05,0-25.35-4.45-32.55-12.67-8.56-8.91-11.65-23.64-11.65-43.17V651.93a3.23,3.23,0,0,0-3.22-3.23h-19.24a3.22,3.22,0,0,1-3.23-3.23V629a3.22,3.22,0,0,1,3.23-3.22h19.24a3.23,3.23,0,0,0,3.22-3.23v-34a3.24,3.24,0,0,1,2.4-3.12l23-6.15A3.23,3.23,0,0,1,1342.4,582.33Z"/><path d="M1446.38,714.14a11.14,11.14,0,0,0-11,13.08c5.5,31.32,29,44.48,55.67,44.48,15,0,25.84-1.82,34.86-4.53a11.09,11.09,0,0,1,13.94,8.1h0a11.14,11.14,0,0,1-7.43,13.17C1521.65,792,1506.59,795,1487,795c-51,0-81.54-33.57-81.54-83.59S1434.9,622,1483.21,622c54.13,0,68.52,47.62,68.52,78.11,0,1.19,0,2.33-.07,3.41a11.11,11.11,0,0,1-11.11,10.64Zm64.2-21.59a11.13,11.13,0,0,0,11-13.11c-3.17-17.27-13.93-35.88-40.73-35.88-23.62,0-37,16.86-42.89,34.17a11.15,11.15,0,0,0,10.5,14.82Z"/><path d="M1720.3,548.32a12,12,0,0,1,12,12V748.74c0,9.94.15,20.82.57,30.32a12,12,0,0,1-12,12.51H1718a12,12,0,0,1-12-11.42l-.83-17.36h-.69c-9.25,18.5-29.46,32.55-56.53,32.55-40.08,0-70.92-33.92-70.92-84.28C1576.74,655.9,1611,622,1651.43,622c25.35,0,42.48,12,50,25.35h.69v-87a12,12,0,0,1,12-12Zm-18.16,144.92a53.65,53.65,0,0,0-1.37-12.68c-4.46-19.18-20.9-34.94-43.51-34.94-31.18,0-49.68,27.41-49.68,64.07,0,33.57,16.44,61.32,49,61.32,20.21,0,38.71-13.36,44.2-36a52.73,52.73,0,0,0,1.37-13Z"/></g><path class="cls-3" d="M604.13,211.27H614a11.57,11.57,0,0,1,11.58,11.57V415.13h86.18a11.51,11.51,0,0,1,11.51,11.51v1.63a11.62,11.62,0,0,1-11.62,11.62H606.92A10.87,10.87,0,0,1,596.05,429V219.34A8.07,8.07,0,0,1,604.13,211.27Z"/><path class="cls-3" d="M774.38,363.23a7,7,0,0,0-6.92,7.64c3.63,34.84,28,49.35,55.86,49.35,17,0,28.63-2.36,38.31-5.72a6.92,6.92,0,0,1,9,5l1.87,7.85a6.93,6.93,0,0,1-4.29,8.11c-10.86,4-27,7.85-48.94,7.85-50.54,0-80.73-33.24-80.73-82.76s29.17-88.54,77-88.54c53.59,0,67.84,47.15,67.84,77.34,0,2.82-.15,5.35-.34,7.56a6.94,6.94,0,0,1-6.92,6.35Zm72.91-21.37a7,7,0,0,0,6.92-7.62c-1.81-18.36-11.73-40.89-41.07-40.89-26.13,0-39.55,20.84-44.23,39.86a7,7,0,0,0,6.75,8.65Z"/><path class="cls-3" d="M923.5,275.71a11.78,11.78,0,0,1,11.12,7.9L964.09,368A425.66,425.66,0,0,1,977.32,410h1c3.73-13.57,8.48-27.14,13.91-42.06l29.14-84.33a11.8,11.8,0,0,1,11.14-7.94h5.53a11.79,11.79,0,0,1,11,16.09l-55.2,140.61a11.78,11.78,0,0,1-11,7.48H970.52a11.78,11.78,0,0,1-11-7.6l-53.45-140.6a11.79,11.79,0,0,1,11-16Z"/><path class="cls-3" d="M1108.75,363.23a11,11,0,0,0-10.84,12.95c5.44,31,28.68,44,55.11,44,14.84,0,25.59-1.8,34.52-4.49a11,11,0,0,1,13.8,8h0a11,11,0,0,1-7.36,13c-10.7,3.49-25.61,6.49-45,6.49-50.54,0-80.73-33.24-80.73-82.76s29.17-88.54,77-88.54c53.6,0,67.84,47.15,67.84,77.34,0,1.18,0,2.3-.07,3.37a11,11,0,0,1-11,10.54Zm63.57-21.37a11,11,0,0,0,10.85-13c-3.14-17.11-13.79-35.53-40.32-35.53-23.39,0-36.6,16.69-42.47,33.83a11,11,0,0,0,10.4,14.68Z"/><path class="cls-3" d="M1260.21,199.05h9.5a10.18,10.18,0,0,1,10.18,10.18V429.71a10.18,10.18,0,0,1-10.18,10.18h-9.5A10.17,10.17,0,0,1,1250,429.71V209.23A10.17,10.17,0,0,1,1260.21,199.05Z"/><path class="cls-3" d="M341.4,766.19a11.59,11.59,0,0,1-7.76,13.6A125.15,125.15,0,0,1,296,785.38c-50,0-82.56-33.92-82.56-84.63,0-51,34.94-88,89.07-88a110.7,110.7,0,0,1,30.92,4.42,11.6,11.6,0,0,1,7.87,14.39l-.19.64A11.54,11.54,0,0,1,326.67,640a81.91,81.91,0,0,0-24.21-3.31c-38,0-58.58,28.09-58.58,62.69,0,38.38,24.67,62,57.56,62a83.13,83.13,0,0,0,25.3-3.73,11.56,11.56,0,0,1,14.66,8.53Z"/><path class="cls-3" d="M526.87,694.29c0,61.32-42.48,88.05-82.56,88.05-44.89,0-79.49-32.89-79.49-85.31,0-55.5,36.32-88,82.23-88C494.67,609,526.87,643.58,526.87,694.29ZM395.31,696c0,36.32,20.9,63.73,50.37,63.73,28.78,0,50.36-27.07,50.36-64.42,0-28.09-14.05-63.72-49.68-63.72S395.31,664.48,395.31,696Z"/><path class="cls-3" d="M564.91,657.63c0-11.7-.16-22-.59-31.66a12.64,12.64,0,0,1,12.62-13.22h1a12.63,12.63,0,0,1,12.63,12l.76,14.73h1C601.56,623.71,617,609,644.39,609c22.61,0,39.74,13.7,46.94,33.23H692a68.34,68.34,0,0,1,18.5-21.58c9.94-7.54,20.9-11.65,36.66-11.65,21.93,0,54.48,14.39,54.48,71.94v85A12.64,12.64,0,0,1,789,778.57h-4.18a12.64,12.64,0,0,1-12.64-12.64V684.69c0-31.86-11.65-51.05-36-51.05-17.13,0-30.49,12.68-35.63,27.41a49.75,49.75,0,0,0-2.4,15.08v89.8a12.64,12.64,0,0,1-12.64,12.64h-4.18a12.64,12.64,0,0,1-12.65-12.64V679.21c0-26.38-11.64-45.57-34.6-45.57-18.84,0-32.55,15.08-37.34,30.16a41.37,41.37,0,0,0-2.4,14.73v87.4a12.64,12.64,0,0,1-12.64,12.64h-4.18a12.64,12.64,0,0,1-12.64-12.64Z"/><path class="cls-3" d="M850.64,666.88c0-15.11-.34-28.14-.79-40.07a13.55,13.55,0,0,1,13.56-14.06h0A13.56,13.56,0,0,1,877,625.66l.75,15.52h.68C890.73,621,910.26,609,937.32,609c40.09,0,70.24,33.92,70.24,84.28,0,59.61-36.32,89.08-75.38,89.08-21.92,0-41.11-9.6-51-26h-.68v76.54a13.57,13.57,0,0,1-13.57,13.56h-2.67a13.57,13.57,0,0,1-13.57-13.56Zm29.81,44.2a65.63,65.63,0,0,0,1.25,11.67c.08.44.18.88.3,1.31,5.68,20.55,23.69,34.64,45,34.64,31.87,0,50.37-26,50.37-64.07,0-33.23-17.48-61.67-49.34-61.67-20.55,0-39.74,14.73-45.57,37.34a49.31,49.31,0,0,0-2,12.34Z"/><path class="cls-3" d="M1059.36,535.32H1062a13.78,13.78,0,0,1,13.78,13.78V764.79A13.78,13.78,0,0,1,1062,778.57h-2.59a13.78,13.78,0,0,1-13.78-13.78V549.1A13.78,13.78,0,0,1,1059.36,535.32Z"/><path class="cls-3" d="M1151.66,701.14a7.93,7.93,0,0,0-7.85,8.89c4.09,34.34,28.43,48.67,56.29,48.67,16.63,0,28.18-2.24,37.78-5.46a7.89,7.89,0,0,1,10.21,5.65l1.48,6.21a7.92,7.92,0,0,1-5,9.28c-11,4-27,7.61-48.57,7.61-51,0-81.54-33.57-81.54-83.59S1143.91,609,1192.22,609c54.13,0,68.52,47.62,68.52,78.11,0,2.47-.11,4.71-.26,6.72a7.93,7.93,0,0,1-7.89,7.33Zm71.66-21.59a7.93,7.93,0,0,0,7.86-8.88c-2.14-18.31-12.36-40.11-41.36-40.11-25.89,0-39.43,20.25-44.39,39.15a7.89,7.89,0,0,0,7.67,9.84Z"/><path class="cls-3" d="M1334.4,569.33v40.19a3.23,3.23,0,0,0,3.23,3.23h36.71a3.23,3.23,0,0,1,3.23,3.22v16.5a3.23,3.23,0,0,1-3.23,3.23h-36.71a3.23,3.23,0,0,0-3.23,3.23v86.19c0,20.56,5.82,32.21,22.61,32.21a73.07,73.07,0,0,0,13.89-1.23,3.22,3.22,0,0,1,3.82,3l1,16.42a3.19,3.19,0,0,1-2.15,3.24c-5.84,1.95-14.21,3.26-24.43,3.26-14.05,0-25.35-4.45-32.55-12.67-8.56-8.91-11.65-23.64-11.65-43.17V638.93a3.23,3.23,0,0,0-3.22-3.23h-19.24a3.22,3.22,0,0,1-3.23-3.23V616a3.22,3.22,0,0,1,3.23-3.22h19.24a3.23,3.23,0,0,0,3.22-3.23v-34a3.24,3.24,0,0,1,2.4-3.12l23-6.15A3.23,3.23,0,0,1,1334.4,569.33Z"/><path class="cls-3" d="M1438.38,701.14a11.14,11.14,0,0,0-11,13.08c5.5,31.32,29,44.48,55.67,44.48,15,0,25.84-1.82,34.86-4.53a11.09,11.09,0,0,1,13.94,8.1h0a11.14,11.14,0,0,1-7.43,13.17C1513.65,779,1498.59,782,1479,782c-51,0-81.54-33.57-81.54-83.59S1426.9,609,1475.21,609c54.13,0,68.52,47.62,68.52,78.11,0,1.19,0,2.33-.07,3.41a11.11,11.11,0,0,1-11.11,10.64Zm64.2-21.59a11.13,11.13,0,0,0,11-13.11c-3.17-17.27-13.93-35.88-40.73-35.88-23.62,0-37,16.86-42.89,34.17a11.15,11.15,0,0,0,10.5,14.82Z"/><path class="cls-3" d="M1712.3,535.32a12,12,0,0,1,12,12V735.74c0,9.94.15,20.82.57,30.32a12,12,0,0,1-12,12.51H1710a12,12,0,0,1-12-11.42l-.83-17.36h-.69c-9.25,18.5-29.46,32.55-56.53,32.55-40.08,0-70.92-33.92-70.92-84.28C1568.74,642.9,1603,609,1643.43,609c25.35,0,42.48,12,50,25.35h.69v-87a12,12,0,0,1,12-12Zm-18.16,144.92a53.65,53.65,0,0,0-1.37-12.68c-4.46-19.18-20.9-34.94-43.51-34.94-31.18,0-49.68,27.41-49.68,64.07,0,33.57,16.44,61.32,49,61.32,20.21,0,38.71-13.36,44.2-36a52.73,52.73,0,0,0,1.37-13Z"/></g></svg>