<svg xmlns="http://www.w3.org/2000/svg" xmlns:xlink="http://www.w3.org/1999/xlink" width="1920" height="1080" viewBox="0 0 1920 1080"><defs><style>.cls-1{fill:#ffc2df;}.cls-11,.cls-14,.cls-2{stroke:#000;stroke-miterlimit:10;}.cls-2{opacity:0.52;}.cls-3{fill:url(#linear-gradient);}.cls-4{fill:url(#linear-gradient-2);}.cls-5{fill:url(#linear-gradient-3);}.cls-6{fill:#feeae9;opacity:0.66;}.cls-7{fill:url(#linear-gradient-4);}.cls-8{fill:url(#linear-gradient-5);}.cls-9{fill:url(#linear-gradient-6);}.cls-10{fill:url(#linear-gradient-7);}.cls-11,.cls-13{opacity:0.58;}.cls-12{fill:url(#linear-gradient-8);}</style><linearGradient id="linear-gradient" x1="3069.07" y1="1638.93" x2="3167.51" y2="3031.81" gradientTransform="translate(-2257.06 -2012.75) rotate(6.34)" gradientUnits="userSpaceOnUse"><stop offset="0.07" stop-color="#feeae9"/><stop offset="0.42" stop-color="#ce6510"/><stop offset="0.58" stop-color="#b6520b"/><stop offset="0.79" stop-color="#943804"/></linearGradient><linearGradient id="linear-gradient-2" x1="4010.97" y1="2485.26" x2="4298.67" y2="2592.4" gradientTransform="translate(-2071.66 -2250.08) rotate(13.77)" gradientUnits="userSpaceOnUse"><stop offset="0.28" stop-color="#883003"/><stop offset="0.46" stop-color="#973a04"/><stop offset="0.82" stop-color="#be5608"/><stop offset="0.83" stop-color="#bf5608"/></linearGradient><linearGradient id="linear-gradient-3" x1="4152.63" y1="2351.16" x2="3340.64" y2="2743.95" gradientTransform="translate(-2071.66 -2250.08) rotate(13.77)" gradientUnits="userSpaceOnUse"><stop offset="0.03" stop-color="#feeae9"/><stop offset="0.38" stop-color="#d06711"/><stop offset="0.62" stop-color="#ce6510"/><stop offset="0.79" stop-color="#c35a0a"/><stop offset="0.84" stop-color="#bf5608"/></linearGradient><linearGradient id="linear-gradient-4" x1="3853.24" y1="2045.05" x2="3890.65" y2="1906.97" gradientTransform="translate(-2071.66 -2250.08) rotate(13.77)" gradientUnits="userSpaceOnUse"><stop offset="0.1" stop-color="#d2834c"/><stop offset="0.21" stop-color="#d48753"/><stop offset="0.36" stop-color="#d99365"/><stop offset="0.53" stop-color="#e2a783"/><stop offset="0.72" stop-color="#edc2ad"/><stop offset="0.77" stop-color="#f1cab9"/></linearGradient><linearGradient id="linear-gradient-5" x1="3952.66" y1="2115.7" x2="3553.27" y2="2366.55" gradientTransform="translate(-2071.66 -2250.08) rotate(13.77)" gradientUnits="userSpaceOnUse"><stop offset="0.19" stop-color="#feeae9"/><stop offset="0.27" stop-color="#f5d4c7"/><stop offset="0.48" stop-color="#de9e76"/><stop offset="0.65" stop-color="#cd773b"/><stop offset="0.77" stop-color="#c35f16"/><stop offset="0.83" stop-color="#bf5608"/></linearGradient><linearGradient id="linear-gradient-6" x1="3531.83" y1="2039.73" x2="3640.75" y2="2137.65" gradientTransform="translate(-2071.66 -2250.08) rotate(13.77)" gradientUnits="userSpaceOnUse"><stop offset="0.1" stop-color="#d2834c"/><stop offset="0.17" stop-color="#d18048"/><stop offset="0.92" stop-color="#ce783c"/></linearGradient><linearGradient id="linear-gradient-7" x1="3167.73" y1="2393.07" x2="3733.4" y2="2570.07" gradientTransform="translate(-2071.66 -2250.08) rotate(13.77)" gradientUnits="userSpaceOnUse"><stop offset="0.44" stop-color="#883003"/><stop offset="0.56" stop-color="#973a04"/><stop offset="0.78" stop-color="#be5608"/><stop offset="0.78" stop-color="#bf5608"/></linearGradient><linearGradient id="linear-gradient-8" x1="20839.22" y1="-8723.44" x2="21404.89" y2="-8546.44" gradientTransform="matrix(-0.63, 0.78, 0.78, 0.63, 21377.01, -10051.83)" xlink:href="#linear-gradient-7"/></defs><g id="levelcompletescreen"><rect class="cls-1" y="1" width="1920" height="1080"/><path class="cls-2" d="M1346.9,1284.1c45.94-4,95.56-31.48,127.65-89.54,54.1-97.89-54.74-212.61-111.8-260.16,35.59-18.5,67.84-44.95,70.33-82.79,5.31-80.72-46.55-140-46.55-140l-12.44-91.41s-19.47-48-17.92,8.07c0,0-27.93-49.22-14.22,3.53s-7.32-.29-7.32-.29-46.23-24.45-26.8,2.73l19.44,27.18s-70.34-15.75-32.44,18.92,58.55,55.08,52.68,58-19.68,112.58-13,127.52c.69,1.53-28.93-7.25-61-9-1.25-.7-2.5-1.4-3.78-2.1-20.34-11-46.82-17.88-76.7-21.73,8.38-23.19,15.27-45.7,21.2-64.07,14-43.45,3.75-77.89-17.65-105.2,44.44-11.33,40.26-47.1,40.26-47.1C1212.28,606.07,1256,509.68,1256,509.68s35.41-10.93-6.12-1.5c-37.74,8.57-85.12,92-94.23,110.38a26,26,0,0,0-1.54,3.41s-.42,1-1,2.68q-4.3-2.89-8.71-5.63c-28.25-17.5-54.28-27.88-59.94-29.29-22.55-5.61-49.53-3.12-76.21,5.69a183.94,183.94,0,0,0-28.12,12c-36.9-6.86-31.35-126.28-31.35-126.28-98,105.92-51.82,170.85-36.11,187.66a159.84,159.84,0,0,0-11.49,21.39c-34.07-83.11-94-169.39-205-181.14-257.69-27.29,27-462.35,313.46-492.81,0,0-25.56-101.61-249.48-82.94S298.24,289.49,321.75,659.91c15.53,244.72,203.85,366.74,330.86,420-50.92,71.68-87.62,140.78-66.51,169.9a4.61,4.61,0,0,0,.43.5c-31.71,23.23-101.28,74.59-117.64,89.94-34.78,32.65-92.42,129.4,10,94.47,0,0,48,13.29,63.7-56.79s1.74-7.11,1.74-7.11,13-22.45,91.84-42.35c0,0,18.78-26.39,21.41-50.57a52.17,52.17,0,0,0,9.36.44c68.45-4,157.1-44.68,207.77-74a86.22,86.22,0,0,0,11.67-8c8.57-7.08,39.37-24.58,124-9.95,83.56,14.43,155.6,60,222.34,9.83a110.89,110.89,0,0,0,1.27,13.31,82.19,82.19,0,0,0,15.1,36,51.41,51.41,0,0,0-9.24,1.6s-118.47,46.38,4,94.5,179.38,62.07,199.41,91.12,78.21,7.1,18.6-51.26C1431.25,1351.52,1388.81,1312.64,1346.9,1284.1Z"/><path class="cls-3" d="M712.23,1193.74c-3.76,5.34-466.38-93.17-492.31-501.75S456.49-88.88,703.48-109.47,978.66-18,978.66-18c-315.92,33.59-630,513.47-345.75,543.57,236,25,262.74,355.43,279.18,377.44S712.23,1193.74,712.23,1193.74Z"/><path class="cls-4" d="M1333.25,970.05c8.62-1.21,236,171,158.2,311.66s-248.73,118.72-265.26,16.5S1333.25,970.05,1333.25,970.05Z"/><path class="cls-5" d="M819.59,910.64a116.48,116.48,0,0,0-63.33,35.78c-75.86,83.3-292.12,330.88-244.77,396.21,5.56,7.67,62.49,33,89.2,31.47,75.5-4.36,173.29-49.28,229.17-81.64a95.09,95.09,0,0,0,12.88-8.8c9.45-7.81,43.42-27.11,136.8-11,114.93,19.86,210.11,93.11,298.81-51.53s116.47-244.32-12.8-314.28C1162.09,850.88,914.44,891.7,819.59,910.64Z"/><path class="cls-6" d="M1153.62,907.65s100.67-3.45,85.49,53.93-19.27,19.77,11.44,50.59-6.92,116.44-52.94,80.2c0,0,26.79,114.72-52.1,90.39,0,0-108.17-53-82.19-5.57.25.45-12.51,59.38-57.74,16.44s-96.77,46.9-112.33,4.32-113.48,5.37-95.59-41.2,32-4.91,1.63-88.82c-2-5.47-87.16-94.29,1.71-86,0,0,18.65-56.15,95-49.57S1153.62,907.65,1153.62,907.65Z"/><path class="cls-7" d="M1138,650.14a32,32,0,0,1,1.7-3.77c10-20.24,62.31-112.29,103.94-121.74,45.81-10.4,6.75,1.66,6.75,1.66s-48.19,106.31-21.09,118c0,0,5.26,44.94-55,54.09S1138,650.14,1138,650.14Z"/><path class="cls-6" d="M1150.14,663.43s36.89-84.45,64.25-101c0,0-38,80.52-15.3,82.77s-13.11,46.7-14.68,46.32S1145.78,662.68,1150.14,663.43Z"/><path class="cls-8" d="M1061.16,614.58c6.25,1.55,35,13,66.11,32.31,55.26,34.24,102.56,86.28,77.06,165.34-26.59,82.43-70.79,240.54-172.06,217.64C948.77,1011,846.19,862.32,844.66,797.16c-1.95-83.43,57.77-151.65,132.45-176.3C1006.53,611.14,1036.29,608.39,1061.16,614.58Z"/><path class="cls-9" d="M876.66,706.62S784.75,631.77,911.5,494.8c0,0-6.12,132,34.71,139.31,0,0-24.76,64.45-60.79,74.65C884.7,709,876.66,706.62,876.66,706.62Z"/><path class="cls-10" d="M722.85,1023.41c.8,3.52,77.13-104.22,132.54-72.33s21.31,116.7-3,120.73-167.42,72.1-225.73,4.56-52-154.19-52-154.19l-49.79-88.74s-14.76-55.2,21.14-4.8c0,0-8.12-61.89,14.86-6.34s6.25-5.12,6.25-5.12,24.46-52.24,25.41-15.41l1,36.84s51.46-60.59,41.13-4.89-14.94,87.4-7.87,86S718.85,1005.79,722.85,1023.41Z"/><path class="cls-6" d="M890.49,529.59c.06-.11-54.14,73.68-26,128.79,30.48,59.61,61.3-30.67,61.3-30.67S882.67,545.63,890.49,529.59Z"/><path class="cls-11" d="M1004.38,977.6c7.19-7.85,67.32-18,91.71-.82,28.66,20.2-16.42,46-25.65,48.65-1.07.31-.58.66-2.82,1.26C1052,1030.86,974.49,1010.21,1004.38,977.6Z"/><path class="cls-12" d="M1337,919.1c1.48,3.3-124.34-36.72-149.36,22.12s53.3,106,75.1,94.57,177.07-43.31,182.93-132.35S1394.37,749,1394.37,749l-13.72-100.82s-21.48-53-19.77,8.9c0,0-30.8-54.29-15.68,3.9s-8.08-.33-8.08-.33-51-27-29.55,3l21.43,30s-77.58-17.36-35.78,20.87,64.58,60.76,58.11,63.93S1329.62,902.63,1337,919.1Z"/><g class="cls-13"><path class="cls-14" d="M905.82,824.5a37,37,0,0,1,12.4-27.82,44.9,44.9,0,0,1,30-11.59c23.63-.27,43.06,17,43.31,38.41l-8.73.11c-.19-16.64-15.65-30-34.47-29.79a36.26,36.26,0,0,0-24.2,9.28,28.32,28.32,0,0,0-9.58,21.3Z"/><path class="cls-14" d="M1075.62,822.41c-.25-21.45,18.78-39.13,42.41-39.4a44.86,44.86,0,0,1,30.26,10.88,37,37,0,0,1,13,27.53l-8.73.1a28.35,28.35,0,0,0-10.07-21.07,36.25,36.25,0,0,0-24.41-8.72c-18.82.22-34,13.94-33.78,30.58Z"/></g></g></svg>