<svg xmlns="http://www.w3.org/2000/svg" width="145" height="125" viewBox="0 0 145 125"><defs><style>.cls-1{fill:#4a4aa0;}.cls-2{fill:#7c7cf2;}.cls-3{fill:#6363ce;}.cls-4{fill:#32326d;}</style></defs><g id="macadamia"><path id="backgrond" class="cls-1" d="M59.4,6.69c.37,0,1.5,7.51.75,7.89s-5.26,7.13-10.52,8.26c0,0-34.93,10.89-39.44,25.17,0,0-1.88,6.38-1.88,8.26s-5.63,17.65.38,29.3c5.89,11.41,13.23,19.22,18.82,22l.33.16c5.64,2.63,9.77,7.89,27.8,7.89.38,0,0,3,15.78,3,.37,0,6.62,4.13,24.91,0s25.79-11.27,29.17-13.9S140.91,79.93,139,70.92,137.9,48,113.48,30.73,77.8,14.58,73.29,10.82,58.27,6.69,59.4,6.69Z"/><path class="cls-2" d="M135.18,54.79l-.39-.88a43.79,43.79,0,0,0-5.92-9.38h0a76.11,76.11,0,0,0-15.3-13.8C89.16,13.45,77.89,14.58,73.38,10.82c-4-3.34-12.75-4-13.86-4.11.4.4,1.44,7.5.71,7.87S55,21.71,49.72,22.84c0,0-34.94,10.89-39.44,25.17,0,0-1.1,5-1.78,8.06h0c0,.31.92,14.29,8,14.66s8.64.38,11.65-2.63,18-29.3,24.79-30.8c0,0-11.64,18-12,33.05s1.5,19.54,1.5,19.54S51,103.41,61.17,103c0,0,12.77,2.63,19.16-3.75,1.24-1.24,2.77-2.63,4.42-4l8.45-6.87h0l4.3-3.29c1.88-1.42,3.1-2.31,3.1-2.31l31.18-23.29c0-1.47,3.27-4.45,3.42-4.59Z"/><path class="cls-3" d="M58.46,27.53c.13-.35-36.81,18.79-35.31,44.33s35.31,44.78,35.31,44.78,6,1.79,10.51,1.42c0,0-31.55-14.65-25.16-41.7C43.81,76.36,50,50.29,58.46,27.53Z"/><path class="cls-4" d="M48.69,39.18S32.16,69.23,35.17,81.25s7.89,24.41,16.15,28.92,15.4,6,14.65,6c0,0-13.15-2.63-19.91-17.65S37.05,79,38.55,69.6,46.06,45.19,48.69,39.18Z"/><path class="cls-3" d="M85.13,35.8c.75,0,22.91,8.26,21,32.68,0,0-3.38,17.28-12.39,30.42,0,0-2.76,15.82,1.93,16.4,1.07.13.78,2.12,7.5,0,0,0,15-46.07,12.73-46.82,0,0,2.4-17.67-13.26-25.93S85.13,35.8,85.13,35.8Z"/><path class="cls-3" d="M120.81,41.43c-1.87-.16,12.39,4.13,11.27,25.92s-7.89,28.92-7.89,36.81c0,0,.75,1.13,3-2.63s9.4-34.56,7.52-36.06C134.71,65.47,134,42.56,120.81,41.43Z"/><path class="cls-4" d="M57,21.15s11.65-7.89,13.9-3c0,0,.75.76.75-.37s-.86-5.44,9.15-1.22c0,0-12.53-8.92-17-9.67,0,0-4.14-.38-4.51-.38S61.46,14.39,60,17A20.9,20.9,0,0,1,57,21.15Z"/></g></svg>