<svg xmlns="http://www.w3.org/2000/svg" xmlns:xlink="http://www.w3.org/1999/xlink" width="140" height="140" viewBox="0 0 140 140"><defs><style>.cls-1{fill:#c588ed;}.cls-2{opacity:0.73;fill:url(#linear-gradient);}.cls-3{fill:#952dc1;}.cls-4{fill:#fff;opacity:0.21;}.cls-5{opacity:0.62;}.cls-6{fill:#e807b9;}</style><linearGradient id="linear-gradient" x1="172.95" y1="128.67" x2="59.3" y2="67.26" gradientUnits="userSpaceOnUse"><stop offset="0" stop-color="#fff"/><stop offset="1" stop-opacity="0.72"/></linearGradient></defs><g id="pausebutton"><ellipse class="cls-1" cx="39.12" cy="23.77" rx="17" ry="8.5"/><path class="cls-2" d="M131.12,48.27v54a30.09,30.09,0,0,1-30,30h-54a30.1,30.1,0,0,1-29.66-25.55,28.43,28.43,0,0,1-.34-4.45v-54a30.09,30.09,0,0,1,30-30h54c.67,0,1.33,0,2,.08A30.08,30.08,0,0,1,131.12,48.27Z"/><path class="cls-3" d="M125.4,38.19v54a30.09,30.09,0,0,1-30,30h-54A30.1,30.1,0,0,1,11.74,96.64a28.43,28.43,0,0,1-.34-4.45v-54a30.09,30.09,0,0,1,30-30h54c.67,0,1.33,0,2,.08A30.08,30.08,0,0,1,125.4,38.19Z"/><path class="cls-4" d="M96.12,22.77c0,36.45-37.62,66.86-87.66,74a28.43,28.43,0,0,1-.34-4.45v-54a30.09,30.09,0,0,1,30-30h54c.67,0,1.33,0,2,.08A52.85,52.85,0,0,1,96.12,22.77Z"/><ellipse class="cls-1" cx="36.12" cy="25.27" rx="14" ry="7"/><g class="cls-5"><path d="M58.47,101.1a5,5,0,0,1-5-5v-63a5,5,0,1,1,10,0v63A5,5,0,0,1,58.47,101.1Z"/><path d="M84.47,101.1a5,5,0,0,1-5-5v-63a5,5,0,1,1,10,0v63A5,5,0,0,1,84.47,101.1Z"/></g><path class="cls-6" d="M55.47,99.1a5,5,0,0,1-5-5v-63a5,5,0,1,1,10,0v63A5,5,0,0,1,55.47,99.1Z"/><path class="cls-6" d="M81.47,99.1a5,5,0,0,1-5-5v-63a5,5,0,1,1,10,0v63A5,5,0,0,1,81.47,99.1Z"/></g></svg>