<svg xmlns="http://www.w3.org/2000/svg" xmlns:xlink="http://www.w3.org/1999/xlink" width="260" height="130" viewBox="0 0 260 130"><defs><style>.cls-1{opacity:0.79;fill:url(#linear-gradient);}.cls-2{fill:#952dc1;}.cls-3{opacity:0.22;}.cls-4{fill:#e807b9;}.cls-5{fill:#fff;opacity:0.21;}.cls-6{fill:#c588ed;}.cls-7{opacity:0.37;}.cls-8{fill:#2c004c;}</style><linearGradient id="linear-gradient" x1="354.96" y1="96.6" x2="38.01" y2="57.77" gradientUnits="userSpaceOnUse"><stop offset="0.14" stop-color="#020202" stop-opacity="0"/><stop offset="0.93" stop-opacity="0.95"/><stop offset="0.95"/></linearGradient></defs><g id="continue"><rect class="cls-1" x="18.18" y="24.3" width="236" height="91" rx="30"/><path class="cls-2" d="M243.18,46.3v31a30.09,30.09,0,0,1-30,30h-176a30.1,30.1,0,0,1-30-30v-31a30.09,30.09,0,0,1,30-30h176A30.09,30.09,0,0,1,243.18,46.3Z"/><path class="cls-3" d="M228.69,58.42,196.17,39.65a7.66,7.66,0,0,0-11.49,6.63V83.83a7.66,7.66,0,0,0,11.49,6.63l32.52-18.77A7.66,7.66,0,0,0,228.69,58.42Z"/><path class="cls-4" d="M226.69,55.42,194.17,36.65a7.66,7.66,0,0,0-11.49,6.63V80.83a7.66,7.66,0,0,0,11.49,6.63l32.52-18.77A7.66,7.66,0,0,0,226.69,55.42Z"/><path class="cls-5" d="M159.24,16.3C139.31,45,104.7,71.48,61.27,88a247.28,247.28,0,0,1-43.48,12.18A29.94,29.94,0,0,1,7.18,77.3v-31a30.09,30.09,0,0,1,30-30Z"/><ellipse class="cls-6" cx="39.18" cy="29.8" rx="17" ry="8.5"/><g class="cls-7"><path d="M67.23,27.75a1.64,1.64,0,0,1,1.41-1.63A50.53,50.53,0,0,1,75,25.73c4,0,7,.93,8.83,2.61a8.47,8.47,0,0,1,2.75,6.59,9.27,9.27,0,0,1-2.42,6.72c-2.15,2.29-5.66,3.46-9.63,3.46-.52,0-1,0-1.51,0a1.65,1.65,0,0,0-1.76,1.63v9.11a1.63,1.63,0,0,1-1.63,1.63h-.79a1.63,1.63,0,0,1-1.64-1.63Zm4.06,12.38a1.64,1.64,0,0,0,1.48,1.63,18.32,18.32,0,0,0,1.89.08c4.9,0,7.89-2.38,7.89-6.72C82.55,31,79.61,29,75.12,29c-.91,0-1.71,0-2.36.1a1.63,1.63,0,0,0-1.47,1.62Z"/><path d="M93.71,26h.8a1.63,1.63,0,0,1,1.63,1.64V52.4A1.63,1.63,0,0,0,97.78,54H108a1.63,1.63,0,0,1,1.63,1.64v.14A1.63,1.63,0,0,1,108,57.44H93.71a1.63,1.63,0,0,1-1.63-1.63V27.6A1.63,1.63,0,0,1,93.71,26Z"/><path d="M118.84,48.66l-2.53,7.66a1.62,1.62,0,0,1-1.55,1.12H114a1.64,1.64,0,0,1-1.55-2.16l9.59-28.21A1.64,1.64,0,0,1,123.61,26h2.56a1.65,1.65,0,0,1,1.55,1.11l9.62,28.21a1.63,1.63,0,0,1-1.54,2.16h-.89a1.63,1.63,0,0,1-1.55-1.11l-2.61-7.68a1.64,1.64,0,0,0-1.55-1.11h-8.81A1.63,1.63,0,0,0,118.84,48.66Zm8.41-4.3a1.64,1.64,0,0,0,1.55-2.16l-2.35-6.9c-.7-2-1.17-3.92-1.63-5.74h-.1c-.46,1.87-1,3.78-1.58,5.7l-2.36,6.94a1.64,1.64,0,0,0,1.55,2.16Z"/><path d="M146,55.81V44.5a1.65,1.65,0,0,0-.2-.78L137.4,28.38A1.63,1.63,0,0,1,138.84,26h.86a1.62,1.62,0,0,1,1.45.89l4,7.8c1.22,2.38,2.15,4.3,3.13,6.49h.1c.88-2,2-4.11,3.17-6.49l4.08-7.81a1.63,1.63,0,0,1,1.44-.88h.79a1.63,1.63,0,0,1,1.41,2.46l-8.9,15.23a1.72,1.72,0,0,0-.22.83V55.81a1.63,1.63,0,0,1-1.63,1.63h-.84A1.63,1.63,0,0,1,146,55.81Z"/><path d="M50,90.71l-2.53,7.65a1.63,1.63,0,0,1-1.55,1.13h-.74a1.64,1.64,0,0,1-1.55-2.16l9.59-28.22A1.63,1.63,0,0,1,54.72,68h2.56a1.64,1.64,0,0,1,1.55,1.1l9.62,28.21a1.63,1.63,0,0,1-1.54,2.17H66a1.65,1.65,0,0,1-1.55-1.11l-2.61-7.69a1.64,1.64,0,0,0-1.55-1.11H51.5A1.64,1.64,0,0,0,50,90.71Zm8.41-4.3a1.64,1.64,0,0,0,1.55-2.16l-2.35-6.9c-.7-2.06-1.17-3.93-1.63-5.75h-.1c-.46,1.87-1,3.79-1.58,5.7l-2.36,7a1.64,1.64,0,0,0,1.55,2.16Z"/><path d="M97.07,96.91a1.62,1.62,0,0,1-1.15,1.56,29,29,0,0,1-8.51,1.34c-4.77,0-8.69-1.21-11.77-4.15-2.71-2.62-4.39-6.82-4.39-11.73,0-9.38,6.49-16.25,17-16.25a22.07,22.07,0,0,1,6.33.87,1.63,1.63,0,0,1,1.09,2l0,.17a1.64,1.64,0,0,1-2.09,1.09,17.3,17.3,0,0,0-5.37-.75c-7.66,0-12.66,4.76-12.66,12.66s4.81,12.7,12.15,12.7A18.19,18.19,0,0,0,91.91,96a1.61,1.61,0,0,0,1.19-1.58V87.86a1.63,1.63,0,0,0-1.63-1.64H88.34a1.63,1.63,0,0,1-1.63-1.63h0A1.63,1.63,0,0,1,88.34,83h7.1a1.63,1.63,0,0,1,1.63,1.64Z"/><path d="M108,90.71l-2.53,7.65a1.65,1.65,0,0,1-1.56,1.13h-.74a1.63,1.63,0,0,1-1.54-2.16l9.58-28.22a1.64,1.64,0,0,1,1.55-1.1h2.56a1.64,1.64,0,0,1,1.55,1.1l9.63,28.21A1.64,1.64,0,0,1,125,99.49h-.89a1.65,1.65,0,0,1-1.55-1.11l-2.6-7.69a1.65,1.65,0,0,0-1.55-1.11h-8.81A1.63,1.63,0,0,0,108,90.71Zm8.41-4.3A1.63,1.63,0,0,0,118,84.25l-2.34-6.9c-.71-2.06-1.17-3.93-1.64-5.75h-.09c-.47,1.87-1,3.79-1.59,5.7l-2.35,7a1.64,1.64,0,0,0,1.55,2.16Z"/><path d="M135.93,69.64V97.85a1.64,1.64,0,0,1-1.63,1.64h-.8a1.64,1.64,0,0,1-1.63-1.64V69.64A1.63,1.63,0,0,1,133.5,68h.8A1.63,1.63,0,0,1,135.93,69.64Z"/><path d="M143,97.85V69.64A1.63,1.63,0,0,1,144.66,68h1.91a1.62,1.62,0,0,1,1.38.76l9.61,15.16a91,91,0,0,1,5.65,10.23l.09,0c-.37-4.21-.47-8-.47-12.94V69.64A1.64,1.64,0,0,1,164.47,68H165a1.63,1.63,0,0,1,1.63,1.63V97.85A1.64,1.64,0,0,1,165,99.49h-1.57a1.64,1.64,0,0,1-1.39-.77l-9.51-15.21A99.16,99.16,0,0,1,146.67,73l-.14,0c.24,4,.33,7.75.33,13V97.85a1.64,1.64,0,0,1-1.63,1.64h-.57A1.64,1.64,0,0,1,143,97.85Z"/></g><path class="cls-8" d="M65.23,26.75a1.64,1.64,0,0,1,1.41-1.63A50.53,50.53,0,0,1,73,24.73c4,0,7,.93,8.83,2.61a8.47,8.47,0,0,1,2.75,6.59,9.27,9.27,0,0,1-2.42,6.72c-2.15,2.29-5.66,3.46-9.63,3.46-.52,0-1,0-1.51,0a1.65,1.65,0,0,0-1.76,1.63v9.11a1.63,1.63,0,0,1-1.63,1.63h-.79a1.63,1.63,0,0,1-1.64-1.63Zm4.06,12.38a1.64,1.64,0,0,0,1.48,1.63,18.32,18.32,0,0,0,1.89.08c4.9,0,7.89-2.38,7.89-6.72C80.55,30,77.61,28,73.12,28c-.91,0-1.71,0-2.36.1a1.63,1.63,0,0,0-1.47,1.62Z"/><path class="cls-8" d="M91.71,25h.8a1.63,1.63,0,0,1,1.63,1.64V51.4A1.63,1.63,0,0,0,95.78,53H106a1.63,1.63,0,0,1,1.63,1.64v.14A1.63,1.63,0,0,1,106,56.44H91.71a1.63,1.63,0,0,1-1.63-1.63V26.6A1.63,1.63,0,0,1,91.71,25Z"/><path class="cls-8" d="M116.84,47.66l-2.53,7.66a1.62,1.62,0,0,1-1.55,1.12H112a1.64,1.64,0,0,1-1.55-2.16l9.59-28.21A1.64,1.64,0,0,1,121.61,25h2.56a1.65,1.65,0,0,1,1.55,1.11l9.62,28.21a1.63,1.63,0,0,1-1.54,2.16h-.89a1.63,1.63,0,0,1-1.55-1.11l-2.61-7.68a1.64,1.64,0,0,0-1.55-1.11h-8.81A1.63,1.63,0,0,0,116.84,47.66Zm8.41-4.3a1.64,1.64,0,0,0,1.55-2.16l-2.35-6.9c-.7-2-1.17-3.92-1.63-5.74h-.1c-.46,1.87-1,3.78-1.58,5.7l-2.36,6.94a1.64,1.64,0,0,0,1.55,2.16Z"/><path class="cls-8" d="M144,54.81V43.5a1.65,1.65,0,0,0-.2-.78L135.4,27.38A1.63,1.63,0,0,1,136.84,25h.86a1.62,1.62,0,0,1,1.45.89l4,7.8c1.22,2.38,2.15,4.3,3.13,6.49h.1c.88-2,2-4.11,3.17-6.49l4.08-7.81a1.63,1.63,0,0,1,1.44-.88h.79a1.63,1.63,0,0,1,1.41,2.46l-8.9,15.23a1.72,1.72,0,0,0-.22.83V54.81a1.63,1.63,0,0,1-1.63,1.63h-.84A1.63,1.63,0,0,1,144,54.81Z"/><path class="cls-8" d="M48,89.71l-2.53,7.65a1.63,1.63,0,0,1-1.55,1.13h-.74a1.64,1.64,0,0,1-1.55-2.16l9.59-28.22A1.63,1.63,0,0,1,52.72,67h2.56a1.64,1.64,0,0,1,1.55,1.1l9.62,28.21a1.63,1.63,0,0,1-1.54,2.17H64a1.65,1.65,0,0,1-1.55-1.11l-2.61-7.69a1.64,1.64,0,0,0-1.55-1.11H49.5A1.64,1.64,0,0,0,48,89.71Zm8.41-4.3a1.64,1.64,0,0,0,1.55-2.16l-2.35-6.9c-.7-2.06-1.17-3.93-1.63-5.75h-.1c-.46,1.87-1,3.79-1.58,5.7l-2.36,7a1.64,1.64,0,0,0,1.55,2.16Z"/><path class="cls-8" d="M95.07,95.91a1.62,1.62,0,0,1-1.15,1.56,29,29,0,0,1-8.51,1.34c-4.77,0-8.69-1.21-11.77-4.15-2.71-2.62-4.39-6.82-4.39-11.73,0-9.38,6.49-16.25,17-16.25a22.07,22.07,0,0,1,6.33.87,1.63,1.63,0,0,1,1.09,2l0,.17a1.64,1.64,0,0,1-2.09,1.09,17.3,17.3,0,0,0-5.37-.75c-7.66,0-12.66,4.76-12.66,12.66s4.81,12.7,12.15,12.7A18.19,18.19,0,0,0,89.91,95a1.61,1.61,0,0,0,1.19-1.58V86.86a1.63,1.63,0,0,0-1.63-1.64H86.34a1.63,1.63,0,0,1-1.63-1.63h0A1.63,1.63,0,0,1,86.34,82h7.1a1.63,1.63,0,0,1,1.63,1.64Z"/><path class="cls-8" d="M106,89.71l-2.53,7.65a1.65,1.65,0,0,1-1.56,1.13h-.74a1.63,1.63,0,0,1-1.54-2.16l9.58-28.22a1.64,1.64,0,0,1,1.55-1.1h2.56a1.64,1.64,0,0,1,1.55,1.1l9.63,28.21A1.64,1.64,0,0,1,123,98.49h-.89a1.65,1.65,0,0,1-1.55-1.11l-2.6-7.69a1.65,1.65,0,0,0-1.55-1.11h-8.81A1.63,1.63,0,0,0,106,89.71Zm8.41-4.3A1.63,1.63,0,0,0,116,83.25l-2.34-6.9c-.71-2.06-1.17-3.93-1.64-5.75h-.09c-.47,1.87-1,3.79-1.59,5.7l-2.35,7a1.64,1.64,0,0,0,1.55,2.16Z"/><path class="cls-8" d="M133.93,68.64V96.85a1.64,1.64,0,0,1-1.63,1.64h-.8a1.64,1.64,0,0,1-1.63-1.64V68.64A1.63,1.63,0,0,1,131.5,67h.8A1.63,1.63,0,0,1,133.93,68.64Z"/><path class="cls-8" d="M141,96.85V68.64A1.63,1.63,0,0,1,142.66,67h1.91a1.62,1.62,0,0,1,1.38.76l9.61,15.16a91,91,0,0,1,5.65,10.23l.09,0c-.37-4.21-.47-8-.47-12.94V68.64A1.64,1.64,0,0,1,162.47,67H163a1.63,1.63,0,0,1,1.63,1.63V96.85A1.64,1.64,0,0,1,163,98.49h-1.57a1.64,1.64,0,0,1-1.39-.77l-9.51-15.21A99.16,99.16,0,0,1,144.67,72l-.14,0c.24,4,.33,7.75.33,13V96.85a1.64,1.64,0,0,1-1.63,1.64h-.57A1.64,1.64,0,0,1,141,96.85Z"/></g></svg>