<svg xmlns="http://www.w3.org/2000/svg" xmlns:xlink="http://www.w3.org/1999/xlink" width="260" height="130" viewBox="0 0 260 130"><defs><style>.cls-1{opacity:0.79;fill:url(#linear-gradient);}.cls-2{fill:#952dc1;}.cls-3{opacity:0.22;}.cls-4{fill:#e807b9;}.cls-5{fill:#fff;opacity:0.21;}.cls-6{fill:#c588ed;}.cls-7{opacity:0.28;}.cls-8{fill:#2c004c;}</style><linearGradient id="linear-gradient" x1="352.77" y1="99.8" x2="35.83" y2="60.98" gradientUnits="userSpaceOnUse"><stop offset="0.14" stop-color="#020202" stop-opacity="0"/><stop offset="0.93" stop-opacity="0.95"/><stop offset="0.95"/></linearGradient></defs><g id="game_screen" data-name="game screen"><rect class="cls-1" x="16" y="27.5" width="236" height="91" rx="30"/><path class="cls-2" d="M241,49.5v31a30.09,30.09,0,0,1-30,30H35a30.1,30.1,0,0,1-30-30v-31a30.09,30.09,0,0,1,30-30H211A30.09,30.09,0,0,1,241,49.5Z"/><path class="cls-3" d="M226.51,61.62,194,42.85a7.66,7.66,0,0,0-11.49,6.64V87A7.66,7.66,0,0,0,194,93.67l32.52-18.78A7.66,7.66,0,0,0,226.51,61.62Z"/><path class="cls-4" d="M224.51,58.62,192,39.85a7.66,7.66,0,0,0-11.49,6.64V84A7.66,7.66,0,0,0,192,90.67l32.52-18.78A7.66,7.66,0,0,0,224.51,58.62Z"/><path class="cls-5" d="M157.06,19.5c-19.93,28.73-54.54,55.18-98,71.66a247.28,247.28,0,0,1-43.48,12.18A29.94,29.94,0,0,1,5,80.5v-31a30.09,30.09,0,0,1,30-30Z"/><ellipse class="cls-6" cx="37" cy="33" rx="17" ry="8.5"/></g><g id="welcomescreen"><g class="cls-7"><path d="M55.05,53.63c0-2.28,0-4.52-.12-6.29a1.59,1.59,0,0,1,1.6-1.7h8.15c8.63,0,13,5.19,13,12.65,0,8.34-5.06,13.47-13.1,13.47H61.5a1.6,1.6,0,0,0-1.61,1.6v6.5c0,1.34.08,3.42.15,5.06a1.6,1.6,0,0,1-1.56,1.66l-1.87.06A1.6,1.6,0,0,1,54.94,85c.05-1.92.11-4.19.11-5.72Zm9.32,13.75c5.57,0,8.62-3.09,8.62-8.91,0-5-2.84-8.63-8.15-8.63H61.5a1.61,1.61,0,0,0-1.61,1.61V65.78a1.6,1.6,0,0,0,1.61,1.6Z"/><path d="M83.67,53.63c0-1.92-.09-4.49-.18-6.42A1.6,1.6,0,0,1,85,45.53l1.79-.11A1.6,1.6,0,0,1,88.48,47c0,2,0,4.13,0,6.12V80.74A1.6,1.6,0,0,0,90,82.34c1.32,0,2.65,0,4,0,2.85,0,6,0,8.91-.15a1.61,1.61,0,0,1,1.65,1.72c0,.61,0,1.23,0,1.87v.82l-13.73-.06c-1.6,0-4,0-5.63.08A1.61,1.61,0,0,1,83.56,85c.06-1.72.11-3.83.11-5.71Z"/><path d="M132.75,85.54c-1-3.18-1.85-6.33-2.77-9.58a1.62,1.62,0,0,0-1.54-1.18c-2.71,0-8.63,0-11.22,0a1.6,1.6,0,0,0-1.53,1.15c-.87,3-2.13,7.41-2.71,9.48a1.59,1.59,0,0,1-1.52,1.17c-.63,0-1.26,0-1.87.05a1.61,1.61,0,0,1-1.58-2.1c3.89-12.14,8.19-26.36,11.57-37.74a1.6,1.6,0,0,1,1.54-1.14h3.68a1.6,1.6,0,0,1,1.54,1.17c3.84,13.81,9.51,31.38,11.57,37.68a1.6,1.6,0,0,1-1.49,2.1l-2,.07A1.61,1.61,0,0,1,132.75,85.54ZM121.27,55.62,117.76,68.3a1.6,1.6,0,0,0,1.54,2l7.07,0a1.6,1.6,0,0,0,1.55-2l-3.55-12.69A1.61,1.61,0,0,0,121.27,55.62Z"/><path d="M149.38,72.55a1.7,1.7,0,0,0-.17-.73l-13-25.94v-.24c.48,0,1,.06,1.43.06,1.09,0,2.12-.06,3.16-.14a1.59,1.59,0,0,1,1.57.92l8.84,19a15.64,15.64,0,0,1,.68,1.75s.42-1.34.58-1.75l7.68-18.89a1.61,1.61,0,0,1,1.52-1h1.11a28.74,28.74,0,0,0,3.11-.17v.23L154.41,71.85a1.66,1.66,0,0,0-.14.66l.1,12.45a1.62,1.62,0,0,1-1.58,1.62l-1.86,0A1.61,1.61,0,0,1,149.29,85Z"/></g><path class="cls-8" d="M52.36,51.84c0-2.28,0-4.53-.12-6.3a1.6,1.6,0,0,1,1.6-1.69H62c8.63,0,13,5.19,13,12.65,0,8.33-5,13.46-13.1,13.46H58.81a1.61,1.61,0,0,0-1.61,1.61v6.5c0,1.33.09,3.42.15,5.05a1.6,1.6,0,0,1-1.56,1.67c-.65,0-1.3,0-1.87.06a1.61,1.61,0,0,1-1.67-1.64c0-1.93.11-4.19.11-5.73Zm9.32,13.75c5.57,0,8.62-3.09,8.62-8.92,0-5-2.84-8.62-8.15-8.62H58.81a1.61,1.61,0,0,0-1.61,1.6V64a1.61,1.61,0,0,0,1.61,1.6Z"/><path class="cls-8" d="M81,51.84c0-1.92-.09-4.49-.18-6.43a1.6,1.6,0,0,1,1.5-1.67l1.79-.11a1.6,1.6,0,0,1,1.71,1.62c0,2,0,4.13,0,6.12V78.94a1.6,1.6,0,0,0,1.57,1.61c1.32,0,2.65,0,4,0,2.85,0,6,0,8.91-.15a1.61,1.61,0,0,1,1.66,1.72c0,.61,0,1.23,0,1.87v.82l-13.73-.06c-1.6,0-4,0-5.63.08a1.59,1.59,0,0,1-1.63-1.65c.05-1.73.1-3.83.1-5.72Z"/><path class="cls-8" d="M130.06,83.74c-1-3.17-1.85-6.32-2.77-9.57A1.61,1.61,0,0,0,125.75,73c-2.71,0-8.63,0-11.22,0A1.62,1.62,0,0,0,113,74.13c-.87,3-2.13,7.4-2.71,9.48a1.6,1.6,0,0,1-1.51,1.17l-1.88,0a1.6,1.6,0,0,1-1.58-2.09c3.89-12.14,8.19-26.36,11.57-37.74a1.6,1.6,0,0,1,1.54-1.14h3.68A1.61,1.61,0,0,1,123.66,45c3.83,13.81,9.51,31.38,11.57,37.68a1.61,1.61,0,0,1-1.5,2.1c-.69,0-1.37,0-2,.07A1.61,1.61,0,0,1,130.06,83.74ZM118.58,53.83,115.07,66.5a1.6,1.6,0,0,0,1.54,2c2,0,5,0,7.08,0a1.6,1.6,0,0,0,1.54-2l-3.55-12.69A1.61,1.61,0,0,0,118.58,53.83Z"/><path class="cls-8" d="M146.69,70.76a1.63,1.63,0,0,0-.17-.73l-13-25.95v-.23c.47,0,.94.06,1.42.06,1.09,0,2.12-.07,3.16-.15a1.6,1.6,0,0,1,1.57.93l8.84,19a15.64,15.64,0,0,1,.68,1.75s.42-1.35.58-1.75l7.68-18.89a1.6,1.6,0,0,1,1.52-1h1.11a26.26,26.26,0,0,0,3.11-.18v.24L151.72,70.06a1.46,1.46,0,0,0-.13.65l.09,12.46a1.62,1.62,0,0,1-1.58,1.62l-1.86,0a1.61,1.61,0,0,1-1.64-1.62Z"/></g></svg>