<svg xmlns="http://www.w3.org/2000/svg" xmlns:xlink="http://www.w3.org/1999/xlink" width="100" height="95" viewBox="0 0 100 95"><defs><style>.cls-1{opacity:0.26;}.cls-2{fill:#8428a3;}.cls-3{fill:#2c004c;}.cls-4{fill:#6e00ce;opacity:0.66;}.cls-5{fill:#952dc1;}.cls-6{fill:#bf5de8;}.cls-12,.cls-7{opacity:0.28;}.cls-8{fill:#a40073;}.cls-9{fill:#e807b9;}.cls-10{fill:#f92bdc;}.cls-11{fill:#c60093;}.cls-12{fill:url(#linear-gradient);}.cls-13{fill:#4a4aa0;}.cls-14{fill:#7c7cf2;}.cls-15{fill:#6363ce;}.cls-16{fill:#32326d;}</style><linearGradient id="linear-gradient" x1="90.17" y1="95.58" x2="35.11" y2="68.58" gradientUnits="userSpaceOnUse"><stop offset="0.14" stop-color="#020202" stop-opacity="0"/><stop offset="0.93"/></linearGradient></defs><g id="Layer_8" data-name="Layer 8"><path class="cls-1" d="M57.85,19A39.23,39.23,0,0,0,45.8,15.51c0-.1,0-.2,0-.3C45.67,8,42.45,5,41.59,4.2s-1.49.13-2.48.62a1.35,1.35,0,0,0-.74,1.49c5.32,4.08,5.7,8.88,5.7,8.88a1.64,1.64,0,0,0,0,.18,24,24,0,0,0-21.25,10C19.27,32.7,25.65,33,25.65,33c.58-.13,1.21-.25,1.9-.36-1,.41-1.54.67-1.54.67S24.65,48,27.62,51.68c0,0,3.95,8.78,12.85,11.25.21.06.41.11.62.15l-.24.1s1,4.08,3.95,3a2.89,2.89,0,0,0,2-3,.81.81,0,0,0,0-.16,20.2,20.2,0,0,0,7.75-3.88l.06,0a13.92,13.92,0,0,0,5.31-6.57,23.22,23.22,0,0,0,2-7.41,42.24,42.24,0,0,0-.24-11.86h-.06c0-.1,0-.2,0-.3v0l.41,0C73.92,29.12,57.85,19,57.85,19Z"/><path class="cls-2" d="M23.34,30.26S22,45,25,48.68c0,0,4,8.78,12.86,11.25S55,53.77,56,51.85s4.89-7,2.89-21.9S23.34,30.26,23.34,30.26Z"/><path class="cls-3" d="M20.19,22.41S31,5,55.18,16c0,0,16.07,10.14,4.08,14,0,0-26.8-2.23-36.27,0C23,30,16.6,29.7,20.19,22.41Z"/><path class="cls-4" d="M51.16,16s5.69,5.56,5.32,9.27c0,0,1.73,5.2,4,1.36S53.76,16.29,51.16,16Z"/><path class="cls-3" d="M41.4,12.19S41,7.39,35.71,3.31a1.33,1.33,0,0,1,.74-1.49c1-.49,1.61-1.36,2.47-.62S43,5,43.12,12.21,41.4,12.19,41.4,12.19Z"/><path class="cls-2" d="M38.18,60.18s1,4.08,4,3a2.89,2.89,0,0,0,2-3C44.11,57.71,38.18,60.18,38.18,60.18Z"/><path class="cls-5" d="M28.91,31.87s-1.49,16,3.71,21.26,6.3,6.56,9.89,6.56,4-.38,9.39-3.59,9-13,7.05-25.84C59,30.26,36.94,27.17,28.91,31.87Z"/><path class="cls-6" d="M52.77,33.84s.74-2.72,3.71-.49-1.86,20.28-6.43,21.27A30.49,30.49,0,0,0,52.77,33.84Z"/><path class="cls-7" d="M79.07,51.24a19.88,19.88,0,0,0-2.62-3.71v0l0,0-.19-.18a11.88,11.88,0,0,0-2.47-1.81h0a20.82,20.82,0,0,0-5.32-2c-8-1.95-10.79-.52-12.33-1a4.9,4.9,0,0,0-2.1-.07,3.59,3.59,0,0,0-.78,0s-1.1.32-1.19.36.64.91,1,1.71c.05.14.07.23,0,.27s-.63,2.36-1.86,3.18c0,0-7.86,6.34-7.57,10.46a15.61,15.61,0,0,0,.36,2.31c.19.48.34,5.1,3.07,7.48s5.34,3.59,7.06,3.73h.1c1.7.1,3.29,1,7.85-.77l.15,0h0c.23.14,1,.41,4.26-.88.1,0,2.12.39,6.39-2.52A17.29,17.29,0,0,0,79,61.28C79.63,60.27,80.46,53.36,79.07,51.24Z"/><path class="cls-7" d="M31.45,41S26.54,36.46,20,36.05a14.52,14.52,0,0,0-8.88,2.28,2.92,2.92,0,0,0-1.9-.11c-1.44-.09-.91,1-1.32,1.2s0,.66.44,1C1.14,46.66,2.76,54.19,2.76,54.19s2.11,13.5,13.51,16.24c11,2.65,10.65,1.46,14.81.14l.6-.15.44-.37a1.78,1.78,0,0,0,.39,0,2.66,2.66,0,0,0,.71-.25c0,.09,0,.15,0,.15a1.57,1.57,0,0,0,1.41-2C34.94,67.57,44.57,56.67,31.45,41Z"/><path id="background" class="cls-8" d="M33.35,66.07s10.12-11-3.17-26.9c0,0-9.91-9.18-20.25-2.64S1.6,52.35,1.6,52.35,3.71,65.86,15.1,68.6s10.62,1.37,15.28,0Z"/><path id="background-2" data-name="background" class="cls-9" d="M30.52,68.59l3-2.53s10.12-11-3.19-26.9c0,0-9.93-9.16-20.26-2.61a17.64,17.64,0,0,0-7.67,9.16S3.71,55.86,9.1,60s10.45,8.32,20.16,8.94Z"/><path class="cls-10" d="M26.07,63.22s-1.58-4.75-2.64-5.7c0,0-2.74-3.37-3.48-3.37s-1.16-.32-.63.52a12.56,12.56,0,0,1,2.95,2.43c.85,1.16,3.26,4.75,3.27,6.12C25.54,63.22,26,63.75,26.07,63.22Z"/><path class="cls-11" d="M20.79,62.9s-6.54-1.16-7.17-3.9-.74-5.8-5.38-6.75c0,0-1,.13,0,1.28,0,0,3.48.93,3.91,3.78s.52,3.77,2.16,4.63a20.05,20.05,0,0,0,6,1.51C20.58,63.32,20.79,63.75,20.79,62.9Z"/><path class="cls-10" d="M13.83,50s-1.26-3.58-2.74-4.74A11.52,11.52,0,0,0,7,43.07c-.85-.1-.74-.1-.74.32s1.58.31,2.63,1.26,3,2,3.91,4.12.63,2,.84,1.9S13.83,50,13.83,50Z"/><path class="cls-11" d="M34.61,61.11c.11,0,.17-6-.34-7s-.39-1.1-.61-.79a25.43,25.43,0,0,1,.22,3h0S34.51,61.11,34.61,61.11Z"/><path class="cls-10" d="M27.45,38.27c-.11-.05-1.28-.26-.75.48,0,0,4.54,3.37,4.43,3.79A5.22,5.22,0,0,1,33.24,47c-.21,2.85.42,2.11.53,1.9s.63-4.43-1.9-6.85A35.28,35.28,0,0,0,27.45,38.27Z"/><path class="cls-10" d="M23.54,40.65s-2.32-3.38-4.85-3.38-2.64,0-2.75.53,2.11.21,2.11.21a5.43,5.43,0,0,1,3.17,1.16c1.37,1.16,2.42,2.31,2.32,1.52"/><path class="cls-11" d="M24.8,42.23s-.95-.11-.63.74,4,2.21,4.85,3.69a29.65,29.65,0,0,1,2.11,5.48c0,.32,1.27,1.9.74-.31a16.49,16.49,0,0,0-3.27-6.54C27.34,44,24.7,42.23,24.8,42.23Z"/><path class="cls-8" d="M17.31,46.55c-.86-.57-9-7.59-9.49-7.7s-1.58-1-1.05-1.26-.53-2,3.27-.74,9.91,6,9.91,6C29.23,48.77,32.71,66,32.71,66a1.6,1.6,0,0,1-1.37,2.22c-1.47.31-2-1.48-2-1.48l-1.79-5.59S21.43,49.3,17.31,46.55Z"/><path class="cls-11" d="M7.5,37.48c.53-.32-.52-2,3.27-.74s9.92,6,9.92,6C30,48.66,33.45,65.86,33.45,65.86a1.6,1.6,0,0,1-1.37,2.21S30,55.1,22,47.4c0,0-10.24-9.29-13.4-9.81Z"/><path class="cls-12" d="M94.1,78.6c.06.31.4.72,0,1.14h0l-.06.06a1.24,1.24,0,0,1-.24.17.63.63,0,0,1-.15.58h0l-.06.06a2.8,2.8,0,0,1-1.18.55h0a22.25,22.25,0,0,1-3.9.61c-1.23.12-2.37.19-3.4.24,1.52.66,3,1.37,4.31,2.1h0l.18.09H90c9,.73,9.21,2.17,8,3.19.14,1.07-2.62,2-2.62,2a53.13,53.13,0,0,1-7.33,1c3.27,1.7,2.45,2.47,2.16,2.67a.61.61,0,0,0-.53.92c-.33.23-1.57,0-2.91-.19a4.59,4.59,0,0,1-1.8-.45,1.77,1.77,0,0,0,.85-.78,1.47,1.47,0,0,1-.33-.15,2.36,2.36,0,0,0,.39-.23c-.09-.86-1.57-1.58-1.57-1.58l-.08,0a135.93,135.93,0,0,1-28.43-3.09c-6.26-1.6-4.92-2.1-3.63-2.25-.72-.37-.66-.6-.31-.75l-2.21-.89a30.93,30.93,0,0,1-3.61.25,68,68,0,0,1-10.52-.7,8.9,8.9,0,0,1-1.82,0,6.85,6.85,0,0,1-2.17-.37c-.5-.07-.47-.21-.25-.3-11.72-1.93-15.47-4.25-15.47-4.25S13,76.69,13,75.29c-.51-1.08.18-2.21,4.6-2.6,9.11-.82,9.61-.45,14.71,0l.71,0,.71.12h.42c.33,0,.62,0,.89.08L35,72.85a6.43,6.43,0,0,1,2.85.62c.23,0,3.67.71,7.32,1.84.39-.08.81-.15,1.29-.22a1.46,1.46,0,0,1,.88-.21c-.3-.22-1.44-1.18,1.9-.87,0,0,.23,0,.59.06l.13-.08a.42.42,0,0,1,.11-.62,8.69,8.69,0,0,1,4.39-1.15h.1a43.22,43.22,0,0,1,8.41.24h.15c.13,0,.7-.13,4.88.27a51.39,51.39,0,0,1,8.2.78,100.47,100.47,0,0,1,10.74,2C88.21,75.82,94,77.94,94.1,78.6Zm-8,12,.09,0L86,90.51h-.18Z"/><path id="backgrond" class="cls-13" d="M49,39.8c.1,0,1.49,1.74,1.35,1.94s-.33,2.63-1.53,3.69c0,0-7.51,7.94-6.6,12.31A17.11,17.11,0,0,0,43,60.17c.28.49,1.11,5.42,4.38,7.57s6.25,3.08,8.11,3h.11c1.85-.14,3.7.63,8.39-2,.1-.06.44.78,4.55-1.52.1-.06,2.33.11,6.49-3.64a18.7,18.7,0,0,0,5.57-7.88c.49-1.17.39-8.7-1.41-10.77s-3.64-5.81-12.52-6.74-11.65,1-13.38.68S48.75,40,49,39.8Z"/><path class="cls-14" d="M75.8,41.27l-.23-.17a13.1,13.1,0,0,0-2.91-1.58h0a22.91,22.91,0,0,0-6-1.37c-8.88-.93-11.65,1-13.37.69-1.53-.29-3.91.81-4.21.95.16,0,1.47,1.74,1.33,1.94s-.33,2.63-1.53,3.69c0,0-7.51,7.93-6.6,12.31,0,0,.44,1.45.71,2.36h0c0,.08,2.33,3.59,4.22,2.65s2.31-1.16,2.65-2.38.42-10.26,2-11.64c0,0-.4,6.4,1.69,10.36S56.76,64,56.76,64s4.22,2.26,6.81.68c0,0,3.71-1.18,4.44-3.77.14-.51.34-1.09.56-1.7l1.2-3h0l.64-1.49.47-1.06L75.6,43c-.22-.38.2-1.64.22-1.7Z"/><path class="cls-15" d="M51.84,45.37c0-.11-6.85,10.26-2.73,16.69s15.74,6.51,15.74,6.51a10.55,10.55,0,0,0,2.94-1.16s-10.35.79-12.64-7.19A142.13,142.13,0,0,1,51.84,45.37Z"/><path class="cls-16" d="M51,49.82s.08,10.24,2.61,12.93S59.23,68,62,67.93a25.7,25.7,0,0,0,4.69-.57A9.11,9.11,0,0,1,59,65.67c-3.95-2.93-5.2-3.78-6.17-6.44A47.66,47.66,0,0,1,51,49.82Z"/><path class="cls-15" d="M60,43.63a9.51,9.51,0,0,1,10.25,5.44,27.91,27.91,0,0,1,1.21,9.73s1.59,4.52,2.9,4c.3-.12.51.44,2-1.1,0,0-2.82-14.18-3.52-14,0,0-2-5-7.23-4.81S60,43.63,60,43.63Z"/><path class="cls-15" d="M70.11,39.89c-.51.23,3.83-.74,6.72,5.1S79,53.68,80.14,55.73c0,0,.36.18.4-1.12s-2.6-10.37-3.3-10.49C77.24,44.12,73.7,38.26,70.11,39.89Z"/><path class="cls-16" d="M50.52,43.92s1.88-3.75,3.18-2.81c0,0,.3.09.14-.21s-1-1.29,2.2-1.65c0,0-4.56-.49-5.85,0,0,0-1.13.5-1.22.56s1.73,1.72,1.73,2.63A6.45,6.45,0,0,1,50.52,43.92Z"/></g></svg>