<svg xmlns="http://www.w3.org/2000/svg" xmlns:xlink="http://www.w3.org/1999/xlink" width="350" height="130" viewBox="0 0 350 130"><defs><style>.cls-1{opacity:0.79;fill:url(#linear-gradient);}.cls-2{fill:#952dc1;}.cls-3{fill:#fff;opacity:0.21;}.cls-4{fill:#c588ed;}.cls-5,.cls-9{opacity:0.28;}.cls-6{fill:#2c004c;}.cls-7{opacity:0.22;}.cls-8{fill:#e807b9;}</style><linearGradient id="linear-gradient" x1="431.94" y1="90.78" x2="198.58" y2="73.42" gradientUnits="userSpaceOnUse"><stop offset="0.14" stop-color="#020202" stop-opacity="0.05"/><stop offset="0.95"/></linearGradient></defs><g id="game_screen" data-name="game screen"><rect class="cls-1" x="17" y="26.5" width="325" height="91" rx="30"/><path class="cls-2" d="M335,48.5v31c0,16.5-18.82,30-41.82,30H47.82a52.26,52.26,0,0,1-27-7.16C11.76,96.83,6,88.63,6,79.5v-31c0-16.5,18.82-30,41.82-30H293.18C316.18,18.5,335,32,335,48.5Z"/><path class="cls-3" d="M158.06,18.5c-19.93,28.73-54.54,55.18-98,71.66a247.28,247.28,0,0,1-43.48,12.18A29.94,29.94,0,0,1,6,79.5v-31a30.09,30.09,0,0,1,30-30Z"/><ellipse class="cls-4" cx="38" cy="32" rx="17" ry="8.5"/></g><g id="replaybutton"><g class="cls-5"><path d="M30.49,78.71V52.64c0-1.72,0-4-.15-5.89a2.13,2.13,0,0,1,2.12-2.23h9.11c9.42,0,14.4,5,14.4,12.62,0,5.89-2.52,9.72-7,11.6A2.12,2.12,0,0,0,48.07,72c3.32,4.52,9.76,13.35,10.09,13.68v.47c-1.23,0-3.59.06-5.33.13A2.12,2.12,0,0,1,51,85.31L41.37,71a2.1,2.1,0,0,0-1.76-.94H38a2.12,2.12,0,0,0-2.13,2.12v5.46c0,1.77.12,4.23.24,6.26A2.13,2.13,0,0,1,34,86.14l-1.45,0A2.13,2.13,0,0,1,30.39,84C30.45,82.26,30.49,80.06,30.49,78.71ZM41,65.62c6.22,0,9.66-2.37,9.66-8.3,0-4.92-3.2-8.35-9.19-8.35H38a2.12,2.12,0,0,0-2.13,2.12v12.4A2.13,2.13,0,0,0,38,65.62Z"/><path d="M64.26,52.76c0-1.76-.08-4.1-.17-6a2.12,2.12,0,0,1,2.12-2.23h19.5a2.12,2.12,0,0,1,2.12,2.23v0a2.12,2.12,0,0,1-2.16,2c-1,0-2.13,0-2.86,0h-11a2.12,2.12,0,0,0-2.13,2.12v9.42a2.11,2.11,0,0,0,2.09,2.12c3.49,0,7,0,10.65-.14a2.12,2.12,0,0,1,2.19,2.14v.34A2.11,2.11,0,0,1,82.41,67c-2-.06-4.1-.09-6.12-.09-1.53,0-3.07,0-4.57.06a2.13,2.13,0,0,0-2.07,2.13V79.73a2.12,2.12,0,0,0,2.13,2.12H75.1c3.07,0,7.14,0,10.53-.09A2.11,2.11,0,0,1,87.79,84c0,.23,0,.49,0,.79a10.32,10.32,0,0,0,.06,1.36h-11c-1.57,0-7.19,0-10.59,0A2.11,2.11,0,0,1,64.16,84c0-1.58.1-3.41.1-5.12Z"/><path d="M92.86,80.87a2.11,2.11,0,0,1,2.9-1.26,20.56,20.56,0,0,0,8.61,2.12c4.8,0,8.36-3.38,8.36-7.17,0-4.44-3.38-5.57-8.48-7.17-6.51-2-11.79-4-11.79-11,0-7.34,6-12.26,13.16-12.26a22.25,22.25,0,0,1,9.76,2.31,2.11,2.11,0,0,1,1,2.58,11.75,11.75,0,0,0-.55,2.28l-.3.12a19.79,19.79,0,0,0-9.24-2.61c-5.16,0-8.42,3.32-8.42,7,0,4,3.8,5.33,8.65,6.81,6.82,2.08,11.32,4.74,11.32,11.55,0,6.11-4.8,12.21-13.57,12.21a23.32,23.32,0,0,1-10.65-2.56,2.11,2.11,0,0,1-.94-2.63C92.77,81.15,92.82,81,92.86,80.87Z"/><path d="M131.46,49.5h-8.2a2.12,2.12,0,0,1-2.12-2.23q0-.33,0-.69a2.13,2.13,0,0,1,2.12-2.06h26.15a2.13,2.13,0,0,1,2.12,2.3c0,.23,0,.46-.05.69a2.1,2.1,0,0,1-2.11,2h-8.25A2.12,2.12,0,0,0,139,51.62V78.41c0,1.87.05,4,.1,5.54A2.13,2.13,0,0,1,137,86.13l-1.29,0A2.11,2.11,0,0,1,133.57,84c0-1.44,0-3,0-4.43v-28A2.12,2.12,0,0,0,131.46,49.5Z"/><path d="M178,84.78c-1-3-2-6-2.92-9.14a2.14,2.14,0,0,0-2-1.5c-3.07,0-9.32,0-12.26,0a2.12,2.12,0,0,0-2,1.47c-.94,2.89-2.21,6.91-2.87,9a2.11,2.11,0,0,1-2,1.48l-1.39,0a2.11,2.11,0,0,1-2.06-2.82c4.28-12.08,9-26.06,12.68-37.35a2.13,2.13,0,0,1,2-1.46h3.77a2.12,2.12,0,0,1,2,1.5c4.17,13.5,10.2,30.43,12.68,37.3a2.11,2.11,0,0,1-1.95,2.83l-1.63.06A2.11,2.11,0,0,1,178,84.78ZM164.86,55.59l-3.47,11.28a2.12,2.12,0,0,0,2,2.75h7a2.12,2.12,0,0,0,2-2.75l-3.51-11.29A2.12,2.12,0,0,0,164.86,55.59Z"/><path d="M190.93,78.71V52.64c0-1.72-.05-4-.15-5.89a2.13,2.13,0,0,1,2.12-2.23H202c9.42,0,14.4,5,14.4,12.62,0,5.89-2.53,9.72-7,11.6a2.12,2.12,0,0,0-.93,3.22c3.32,4.52,9.76,13.35,10.09,13.68v.47c-1.23,0-3.59.06-5.33.13a2.12,2.12,0,0,1-1.85-.93L201.81,71a2.1,2.1,0,0,0-1.76-.94h-1.6a2.12,2.12,0,0,0-2.13,2.12v5.46c0,1.77.12,4.23.23,6.26a2.12,2.12,0,0,1-2.07,2.24l-1.45,0a2.12,2.12,0,0,1-2.2-2.18C190.88,82.26,190.93,80.06,190.93,78.71Zm10.49-13.09c6.22,0,9.66-2.37,9.66-8.3,0-4.92-3.2-8.35-9.19-8.35h-3.44a2.12,2.12,0,0,0-2.13,2.12v12.4a2.13,2.13,0,0,0,2.13,2.13Z"/><path d="M229.63,49.5h-8.2a2.12,2.12,0,0,1-2.12-2.23q0-.33,0-.69a2.14,2.14,0,0,1,2.12-2.06h26.16a2.13,2.13,0,0,1,2.11,2.3c0,.23,0,.46,0,.69a2.12,2.12,0,0,1-2.12,2h-8.24a2.12,2.12,0,0,0-2.13,2.12V78.41c0,1.87.05,4,.1,5.54a2.12,2.12,0,0,1-2.08,2.18l-1.29,0A2.12,2.12,0,0,1,231.74,84c0-1.44,0-3,0-4.43v-28A2.12,2.12,0,0,0,229.63,49.5Z"/></g><path class="cls-6" d="M29.49,75.71V49.64c0-1.72,0-4-.15-5.89a2.13,2.13,0,0,1,2.12-2.23h9.11c9.42,0,14.4,5,14.4,12.62,0,5.89-2.52,9.72-7,11.6A2.12,2.12,0,0,0,47.07,69c3.32,4.52,9.76,13.35,10.09,13.68v.47c-1.23,0-3.59.06-5.33.13A2.12,2.12,0,0,1,50,82.31L40.37,68a2.1,2.1,0,0,0-1.76-.94H37a2.12,2.12,0,0,0-2.13,2.12v5.46c0,1.77.12,4.23.24,6.26A2.13,2.13,0,0,1,33,83.14l-1.45,0A2.13,2.13,0,0,1,29.39,81C29.45,79.26,29.49,77.06,29.49,75.71ZM40,62.62c6.22,0,9.66-2.37,9.66-8.3,0-4.92-3.2-8.35-9.19-8.35H37a2.12,2.12,0,0,0-2.13,2.12v12.4A2.13,2.13,0,0,0,37,62.62Z"/><path class="cls-6" d="M63.26,49.76c0-1.76-.08-4.1-.17-6a2.12,2.12,0,0,1,2.12-2.23h19.5a2.12,2.12,0,0,1,2.12,2.23v0a2.12,2.12,0,0,1-2.16,2c-1,0-2.13,0-2.86,0h-11a2.12,2.12,0,0,0-2.13,2.12v9.42a2.11,2.11,0,0,0,2.09,2.12c3.49,0,7,0,10.65-.14a2.12,2.12,0,0,1,2.19,2.14v.34A2.11,2.11,0,0,1,81.41,64c-2-.06-4.1-.09-6.12-.09-1.53,0-3.07,0-4.57.06a2.13,2.13,0,0,0-2.07,2.13V76.73a2.12,2.12,0,0,0,2.13,2.12H74.1c3.07,0,7.14,0,10.53-.09A2.11,2.11,0,0,1,86.79,81c0,.23,0,.49,0,.79a10.32,10.32,0,0,0,.06,1.36h-11c-1.57,0-7.19,0-10.59,0A2.11,2.11,0,0,1,63.16,81c.05-1.58.1-3.41.1-5.12Z"/><path class="cls-6" d="M91.86,77.87a2.11,2.11,0,0,1,2.9-1.26,20.56,20.56,0,0,0,8.61,2.12c4.8,0,8.36-3.38,8.36-7.17,0-4.44-3.38-5.57-8.48-7.17-6.51-2-11.79-4-11.79-11,0-7.34,6-12.26,13.16-12.26a22.25,22.25,0,0,1,9.76,2.31,2.11,2.11,0,0,1,1,2.58,11.75,11.75,0,0,0-.55,2.28l-.3.12a19.79,19.79,0,0,0-9.24-2.61c-5.16,0-8.42,3.32-8.42,7,0,4,3.8,5.33,8.65,6.81,6.82,2.08,11.32,4.74,11.32,11.55,0,6.11-4.8,12.21-13.57,12.21a23.32,23.32,0,0,1-10.65-2.56,2.11,2.11,0,0,1-.94-2.63C91.77,78.15,91.82,78,91.86,77.87Z"/><path class="cls-6" d="M130.46,46.5h-8.2a2.12,2.12,0,0,1-2.12-2.23q0-.33,0-.69a2.13,2.13,0,0,1,2.12-2.06h26.15a2.13,2.13,0,0,1,2.12,2.3c0,.23,0,.46-.05.69a2.1,2.1,0,0,1-2.11,2h-8.25A2.12,2.12,0,0,0,138,48.62V75.41c0,1.87.05,4,.1,5.54A2.13,2.13,0,0,1,136,83.13l-1.29,0A2.11,2.11,0,0,1,132.57,81c0-1.44,0-3,0-4.43v-28A2.12,2.12,0,0,0,130.46,46.5Z"/><path class="cls-6" d="M177,81.78c-1-3-2-6-2.92-9.14a2.14,2.14,0,0,0-2-1.5c-3.07,0-9.32,0-12.26,0a2.12,2.12,0,0,0-2,1.47c-.94,2.89-2.21,6.91-2.87,9a2.11,2.11,0,0,1-2,1.48l-1.39,0a2.11,2.11,0,0,1-2.06-2.82c4.28-12.08,9-26.06,12.68-37.35a2.13,2.13,0,0,1,2-1.46h3.77a2.12,2.12,0,0,1,2,1.5c4.17,13.5,10.2,30.43,12.68,37.3a2.11,2.11,0,0,1-1.95,2.83l-1.63.06A2.11,2.11,0,0,1,177,81.78ZM163.86,52.59l-3.47,11.28a2.12,2.12,0,0,0,2,2.75h7a2.12,2.12,0,0,0,2-2.75l-3.51-11.29A2.12,2.12,0,0,0,163.86,52.59Z"/><path class="cls-6" d="M189.93,75.71V49.64c0-1.72-.05-4-.15-5.89a2.13,2.13,0,0,1,2.12-2.23H201c9.42,0,14.4,5,14.4,12.62,0,5.89-2.53,9.72-7,11.6a2.12,2.12,0,0,0-.93,3.22c3.32,4.52,9.76,13.35,10.09,13.68v.47c-1.23,0-3.59.06-5.33.13a2.12,2.12,0,0,1-1.85-.93L200.81,68a2.1,2.1,0,0,0-1.76-.94h-1.6a2.12,2.12,0,0,0-2.13,2.12v5.46c0,1.77.12,4.23.23,6.26a2.12,2.12,0,0,1-2.07,2.24l-1.45,0a2.12,2.12,0,0,1-2.2-2.18C189.88,79.26,189.93,77.06,189.93,75.71Zm10.49-13.09c6.22,0,9.66-2.37,9.66-8.3,0-4.92-3.2-8.35-9.19-8.35h-3.44a2.12,2.12,0,0,0-2.13,2.12v12.4a2.13,2.13,0,0,0,2.13,2.13Z"/><path class="cls-6" d="M228.63,46.5h-8.2a2.12,2.12,0,0,1-2.12-2.23q0-.33,0-.69a2.14,2.14,0,0,1,2.12-2.06h26.16a2.13,2.13,0,0,1,2.11,2.3c0,.23,0,.46,0,.69a2.12,2.12,0,0,1-2.12,2h-8.24a2.12,2.12,0,0,0-2.13,2.12V75.41c0,1.87.05,4,.1,5.54a2.12,2.12,0,0,1-2.08,2.18l-1.29,0A2.12,2.12,0,0,1,230.74,81c0-1.44,0-3,0-4.43v-28A2.12,2.12,0,0,0,228.63,46.5Z"/></g><g id="continue"><path class="cls-7" d="M306.17,55.5,285.92,43.81a7.67,7.67,0,0,0-11.5,6.63V73.83a7.67,7.67,0,0,0,11.5,6.64l20.25-11.7A7.66,7.66,0,0,0,306.17,55.5Z"/><path class="cls-8" d="M303.83,53.94,283.58,42.25a7.66,7.66,0,0,0-11.49,6.64V72.27a7.66,7.66,0,0,0,11.49,6.64l20.25-11.7A7.66,7.66,0,0,0,303.83,53.94Z"/><path class="cls-9" d="M318.64,36.86l-3.55,2a36.23,36.23,0,1,0-.42,51.15l-2.74-2.77a32.34,32.34,0,1,1-.35-46.36l-2.93,1.7a.9.9,0,0,0,0,1.57l5,2.88,5,2.89a.91.91,0,0,0,1.36-.79V37.64A.91.91,0,0,0,318.64,36.86Z"/><path class="cls-8" d="M313.64,37.41l5-2.89a.91.91,0,0,1,1.36.79V46.85a.91.91,0,0,1-1.36.78l-5-2.88-5-2.89a.9.9,0,0,1,0-1.57Z"/><path class="cls-8" d="M289.23,98.16a36.23,36.23,0,1,1,30-56.48L316,43.86A32.34,32.34,0,1,0,311.93,85l2.74,2.78A36,36,0,0,1,289.23,98.16Z"/></g></svg>