<svg xmlns="http://www.w3.org/2000/svg" xmlns:xlink="http://www.w3.org/1999/xlink" width="140" height="140" viewBox="0 0 140 140"><defs><style>.cls-1{fill:#c588ed;}.cls-2{opacity:0.73;fill:url(#linear-gradient);}.cls-3{fill:#952dc1;}.cls-4{fill:#fff;opacity:0.21;}.cls-5{opacity:0.45;}.cls-6{opacity:0.31;}.cls-7{fill:#e807b9;}.cls-8{fill:none;}</style><linearGradient id="linear-gradient" x1="172.33" y1="130.91" x2="58.68" y2="69.49" gradientUnits="userSpaceOnUse"><stop offset="0" stop-color="#fff"/><stop offset="1" stop-opacity="0.72"/></linearGradient></defs><g id="game_screen" data-name="game screen"><ellipse class="cls-1" cx="38.5" cy="26" rx="17" ry="8.5"/></g><g id="sound_button" data-name="sound button"><path class="cls-2" d="M130.5,50.5v54a30.09,30.09,0,0,1-30,30h-54A30.1,30.1,0,0,1,16.84,109a28.43,28.43,0,0,1-.34-4.45v-54a30.09,30.09,0,0,1,30-30h54c.67,0,1.33,0,2,.08A30.08,30.08,0,0,1,130.5,50.5Z"/><path class="cls-3" d="M124,40.5v54a30.09,30.09,0,0,1-30,30H40A30.1,30.1,0,0,1,10.34,99,28.43,28.43,0,0,1,10,94.5v-54a30.09,30.09,0,0,1,30-30H94c.67,0,1.33,0,2,.08A30.08,30.08,0,0,1,124,40.5Z"/><path class="cls-4" d="M95.5,25c0,36.45-37.62,66.86-87.66,74A28.43,28.43,0,0,1,7.5,94.5v-54a30.09,30.09,0,0,1,30-30h54c.67,0,1.33,0,2,.08A52.85,52.85,0,0,1,95.5,25Z"/><ellipse class="cls-1" cx="35.5" cy="27.5" rx="14" ry="7"/><path class="cls-5" d="M81,38.07V92.23A7.82,7.82,0,0,1,69.26,99L49.35,87.48l-.09,0a2.55,2.55,0,0,1-.41,0,.62.62,0,0,1-.2,0H27.35A2.13,2.13,0,0,1,25,85.69V46.31a2.13,2.13,0,0,1,2.35-1.81h19.1L69.26,31.3A7.82,7.82,0,0,1,81,38.07Z"/><g class="cls-6"><path d="M87.25,79.5a2,2,0,0,1-1.14-.36,2,2,0,0,1-.5-2.78,19,19,0,0,0,0-21.72,2,2,0,0,1,3.3-2.28,23.44,23.44,0,0,1,4.1,14,23,23,0,0,1-4.11,12.32A2,2,0,0,1,87.25,79.5Z"/><path d="M94.52,85.5a1.9,1.9,0,0,1-1.13-.36,2,2,0,0,1-.51-2.78A28.73,28.73,0,0,0,98,67a29.08,29.08,0,0,0-5.12-17.38,2,2,0,1,1,3.29-2.28,32.66,32.66,0,0,1,0,37.28A2,2,0,0,1,94.52,85.5Z"/><path d="M101.8,90.5a2,2,0,0,1-1.14-.36,2,2,0,0,1-.5-2.78,38.26,38.26,0,0,0,0-43.72,2,2,0,0,1,3.3-2.28,42.29,42.29,0,0,1,0,48.28A2,2,0,0,1,101.8,90.5Z"/></g><path class="cls-7" d="M79,35.07V89.23A7.82,7.82,0,0,1,67.26,96L47.35,84.48l-.09,0a2.55,2.55,0,0,1-.41,0,.62.62,0,0,1-.2,0H25.35A2.13,2.13,0,0,1,23,82.69V43.31a2.13,2.13,0,0,1,2.35-1.81h19.1L67.26,28.3A7.82,7.82,0,0,1,79,35.07Z"/><path class="cls-7" d="M85.25,76.5a2,2,0,0,1-1.14-.36,2,2,0,0,1-.5-2.78,19,19,0,0,0,0-21.72,2,2,0,0,1,3.3-2.28,23.44,23.44,0,0,1,4.1,14,23,23,0,0,1-4.11,12.32A2,2,0,0,1,85.25,76.5Z"/><path class="cls-7" d="M92.52,82.5a1.9,1.9,0,0,1-1.13-.36,2,2,0,0,1-.51-2.78A28.73,28.73,0,0,0,96,64a29.08,29.08,0,0,0-5.12-17.38,2,2,0,1,1,3.29-2.28,32.66,32.66,0,0,1,0,37.28A2,2,0,0,1,92.52,82.5Z"/><path class="cls-7" d="M99.8,87.5a2,2,0,0,1-1.14-.36,2,2,0,0,1-.5-2.78,38.26,38.26,0,0,0,0-43.72,2,2,0,0,1,3.3-2.28,42.29,42.29,0,0,1,0,48.28A2,2,0,0,1,99.8,87.5Z"/></g><g id="timerviolet"><rect id="SVGID" class="cls-8" x="98.54" y="-71.48" width="261.87" height="106.76"/></g></svg>