<svg xmlns="http://www.w3.org/2000/svg" width="170" height="170" viewBox="0 0 170 170"><defs><style>.cls-1{fill:#a40073;}.cls-2{fill:#e807b9;}.cls-3{fill:#f92bdc;}.cls-4{fill:#c60093;}</style></defs><g id="walnut"><path id="background" class="cls-1" d="M21.11,148.88S-24.74,99.21,35.44,27.09c0,0,44.89-41.55,91.7-11.94s37.73,71.64,37.73,71.64-9.55,61.13-61.13,73.55-48.07,6.21-69.17,0Z"/><path id="background-2" data-name="background" class="cls-2" d="M33.94,160.31,20.49,148.83S-25.29,99.1,35,27.05c0,0,45-41.49,91.71-11.82,20.46,13,30.23,28.33,34.74,41.48,0,0-6.14,45.93-30.52,64.53s-47.33,37.67-91.27,40.48Z"/></g><g id="Layer_8" data-name="Layer 8"><path class="cls-3" d="M54.07,136S61.23,114.49,66,110.19c0,0,12.41-15.28,15.76-15.28S87,93.48,84.63,97.3c0,0-9.55,5.73-13.37,11S56.51,129.77,56.48,136C56.48,136,54.54,138.37,54.07,136Z"/><path class="cls-4" d="M78,134.55s29.61-5.25,32.47-17.67,3.35-26.27,24.36-30.57c0,0,4.3.59,0,5.79,0,0-15.76,4.24-17.67,17.14s-2.39,17.08-9.79,21S81.09,137.63,80,137,78,138.37,78,134.55Z"/><path class="cls-3" d="M109.47,76.28S115.2,60,121.89,54.79s14.8-9.55,18.62-10,3.35-.48,3.35,1.43-7.17,1.43-11.94,5.73S118.54,61,114.24,70.55s-2.86,9.08-3.82,8.6S109.47,76.28,109.47,76.28Z"/></g><g id="timeer"><g id="Layer_7" data-name="Layer 7"><path class="cls-4" d="M15.38,126.43c-.48,0-.73-27.27,1.54-31.78s1.8-5,2.76-3.56c0,0-1.44,12.42-1,13.37h0S15.86,126.43,15.38,126.43Z"/><path class="cls-3" d="M47.83,23c.5-.21,5.76-1.17,3.37,2.18,0,0-20.54,15.28-20.06,17.19,0,0-10.51,7.17-9.55,20.06S19.68,72,19.2,71,16.33,51,27.8,40,47.32,23.21,47.83,23Z"/><path class="cls-3" d="M65.53,33.77S76,18.49,87.5,18.49s11.94,0,12.42,2.39-9.56.95-9.56.95-8.12,0-14.32,5.26S65.05,37.54,65.53,34"/><path class="cls-4" d="M59.8,40.94s4.3-.48,2.86,3.34-18.15,10-22,16.72-9.55,23.4-9.55,24.83-5.73,8.6-3.34-1.43,9.07-23.88,14.8-29.61S60.27,40.94,59.8,40.94Z"/><path class="cls-1" d="M93.71,60.52c3.91-2.61,40.59-34.39,43-34.87s7.17-4.29,4.78-5.73,2.39-9.07-14.81-3.34S81.77,43.8,81.77,43.8C39.74,70.55,24,148.4,24,148.4c-1,4.3-.48,8.6,6.2,10s9.08-6.69,9.08-6.69l8.12-25.31S75.08,72.94,93.71,60.52Z"/><path class="cls-4" d="M138.13,19.45c-2.39-1.44,2.38-9.08-14.81-3.35s-44.9,27.23-44.9,27.23c-42,26.74-57.79,104.59-57.79,104.59-.95,4.3-.47,8.6,6.21,10,0,0,9.55-58.74,45.85-93.61,0,0,46.33-42,60.66-44.42Z"/></g></g></svg>