<svg xmlns="http://www.w3.org/2000/svg" xmlns:xlink="http://www.w3.org/1999/xlink" width="1920" height="1080" viewBox="0 0 1920 1080"><defs><style>.cls-1{fill:#fff;}.cls-2{fill:#c4d39f;opacity:0.88;}.cls-3{fill:#b4c78f;}.cls-4{fill:#6e9b74;}.cls-5{fill:#fd9000;}.cls-6{fill:#87b27d;}.cls-7{fill:#3c5542;}.cls-26,.cls-8{opacity:0.46;}.cls-8{fill:url(#linear-gradient);}.cls-9{fill:url(#linear-gradient-2);}.cls-10{fill:url(#linear-gradient-3);}.cls-11{fill:url(#linear-gradient-4);}.cls-12{fill:url(#linear-gradient-5);}.cls-13{fill:url(#linear-gradient-6);}.cls-14,.cls-21{fill:#feeae9;}.cls-14,.cls-27,.cls-31{opacity:0.66;}.cls-15{fill:url(#linear-gradient-7);}.cls-16{fill:url(#linear-gradient-8);}.cls-17{fill:url(#linear-gradient-9);}.cls-18{fill:url(#linear-gradient-10);}.cls-19{fill:url(#linear-gradient-11);}.cls-20{fill:url(#linear-gradient-12);}.cls-22{opacity:0.89;}.cls-23,.cls-24{stroke:#000;stroke-miterlimit:10;}.cls-23{opacity:0.87;}.cls-24{opacity:0.58;}.cls-25{fill:#e0771a;}.cls-28{fill:#952dc1;}.cls-29{fill:#8428a3;}.cls-30{fill:#2c004c;}.cls-31{fill:#6e00ce;}.cls-32{fill:#bf5de8;}.cls-33{opacity:0.47;}.cls-34{opacity:0.42;}</style><linearGradient id="linear-gradient" x1="1065.55" y1="308.02" x2="330.24" y2="755.34" gradientUnits="userSpaceOnUse"><stop offset="0.13" stop-color="#feeae9" stop-opacity="0"/><stop offset="0.8"/></linearGradient><linearGradient id="linear-gradient-2" x1="1869.89" y1="267.33" x2="1920.6" y2="984.92" gradientTransform="translate(-1589.26 194.19) rotate(-7.43)" gradientUnits="userSpaceOnUse"><stop offset="0.07" stop-color="#feeae9"/><stop offset="0.42" stop-color="#ce6510"/><stop offset="0.58" stop-color="#b6520b"/><stop offset="0.79" stop-color="#943804"/></linearGradient><linearGradient id="linear-gradient-3" x1="752.46" y1="723.54" x2="900.68" y2="778.74" gradientUnits="userSpaceOnUse"><stop offset="0.28" stop-color="#883003"/><stop offset="0.46" stop-color="#973a04"/><stop offset="0.82" stop-color="#be5608"/><stop offset="0.83" stop-color="#bf5608"/></linearGradient><linearGradient id="linear-gradient-4" x1="329.03" y1="1052.48" x2="488.45" y2="907.09" gradientUnits="userSpaceOnUse"><stop offset="0.12" stop-color="#943100"/><stop offset="0.23" stop-color="#812f04"/><stop offset="0.38" stop-color="#6c2d08"/><stop offset="0.54" stop-color="#5f2c0b"/><stop offset="0.69" stop-color="#5b2c0c"/></linearGradient><linearGradient id="linear-gradient-5" x1="714.71" y1="537.4" x2="820.6" y2="576.83" xlink:href="#linear-gradient-3"/><linearGradient id="linear-gradient-6" x1="825.44" y1="654.45" x2="407.11" y2="856.81" gradientUnits="userSpaceOnUse"><stop offset="0.03" stop-color="#feeae9"/><stop offset="0.38" stop-color="#d06711"/><stop offset="0.62" stop-color="#ce6510"/><stop offset="0.79" stop-color="#c35a0a"/><stop offset="0.84" stop-color="#bf5608"/></linearGradient><linearGradient id="linear-gradient-7" x1="762.54" y1="843.25" x2="965.76" y2="918.93" gradientUnits="userSpaceOnUse"><stop offset="0.1" stop-color="#883003"/><stop offset="0.23" stop-color="#792f06"/><stop offset="0.41" stop-color="#5b2c0c"/></linearGradient><linearGradient id="linear-gradient-8" x1="671.2" y1="496.74" x2="690.47" y2="425.61" gradientUnits="userSpaceOnUse"><stop offset="0.1" stop-color="#d2834c"/><stop offset="0.21" stop-color="#d48753"/><stop offset="0.36" stop-color="#d99365"/><stop offset="0.53" stop-color="#e2a783"/><stop offset="0.72" stop-color="#edc2ad"/><stop offset="0.77" stop-color="#f1cab9"/></linearGradient><linearGradient id="linear-gradient-9" x1="722.42" y1="533.14" x2="516.66" y2="662.38" gradientUnits="userSpaceOnUse"><stop offset="0.19" stop-color="#feeae9"/><stop offset="0.27" stop-color="#f5d4c7"/><stop offset="0.48" stop-color="#de9e76"/><stop offset="0.65" stop-color="#cd773b"/><stop offset="0.77" stop-color="#c35f16"/><stop offset="0.83" stop-color="#bf5608"/></linearGradient><linearGradient id="linear-gradient-10" x1="505.61" y1="494" x2="561.73" y2="544.45" gradientUnits="userSpaceOnUse"><stop offset="0.1" stop-color="#d2834c"/><stop offset="0.17" stop-color="#d18048"/><stop offset="0.92" stop-color="#ce783c"/></linearGradient><linearGradient id="linear-gradient-11" x1="318.03" y1="676.04" x2="609.46" y2="767.23" gradientUnits="userSpaceOnUse"><stop offset="0.44" stop-color="#883003"/><stop offset="0.56" stop-color="#973a04"/><stop offset="0.78" stop-color="#be5608"/><stop offset="0.78" stop-color="#bf5608"/></linearGradient><linearGradient id="linear-gradient-12" x1="758.73" y1="514.26" x2="623.54" y2="596.73" xlink:href="#linear-gradient-3"/></defs><g id="welcomescreen"><rect class="cls-1" x="-2.13" y="6.47" width="1920" height="1080"/><rect class="cls-2" x="-104.02" y="-66.85" width="2046" height="1192"/><rect class="cls-3" x="514.6" y="148" width="84" height="743"/><path class="cls-4" d="M398.6,362.5c-90.05,0-175.21-19.52-239.79-55-33.07-18.15-59.33-39.67-78-64C59.75,216.3,49.1,186.84,49.1,156h65c0,33.58,27.69,68,76,94.55C245.24,280.83,319.3,297.5,398.6,297.5S552,280.83,607.11,250.55c48.29-26.51,76-61,76-94.55h65c0,30.84-10.66,60.3-31.67,87.57-18.72,24.29-45,45.81-78,64C573.8,343,488.64,362.5,398.6,362.5Z"/><path class="cls-4" d="M267.39,574.9q-7,0-14.29-.32c-73.61-3.2-156.53-30.7-233.51-77.43S-120,389.55-156.87,325.74c-18.85-32.68-30.13-64.7-33.52-95.17-3.82-34.22,2.36-64.93,18.36-91.29L-116.46,173c-17.43,28.7-11.63,72.53,15.89,120.25,31.45,54.5,86.1,107.18,153.89,148.33s139.74,65.32,202.61,68.06c55,2.4,96.59-12.69,114-41.4L425.51,502c-16,26.36-40.4,46-72.51,58.42C328.06,570,299.31,574.9,267.39,574.9Z"/><path class="cls-5" d="M662.71,84.68a1.5,1.5,0,0,0,0-3,1.5,1.5,0,0,0,0,3Z"/><ellipse class="cls-3" cx="358.1" cy="902" rx="556.5" ry="271"/><ellipse class="cls-3" cx="1328.29" cy="854.5" rx="689.69" ry="318.5"/><rect class="cls-6" x="-146.4" y="764" width="2088.38" height="232"/><rect class="cls-4" x="295.6" y="159" width="144" height="743"/><polygon class="cls-4" points="538.6 513.65 538.6 513 408.6 516 408.6 561 412.6 560.91 412.6 579 542.6 558 542.6 513 538.6 513.65"/><path id="kotons_drsew" data-name="kotons drsew" class="cls-4" d="M1184.39-33.37s47.57-11.28,32.12-45.29S-13-110.58-19.75-106.86-15.21,276.36-8,275s42.22-26.52,42.22-26.52c11.33-12.93,13-49,24.54-48.67s42.41-43.15,150.54-43.15c20.92,0,100.66,80.16,220.91,7.89l8.21-5.08c3.63-2.81,65.42,114.57,289.93,11.67,0,0,23.69,146,186.41,29.05,0,0,53,32.22,85.48,1.36,0,0,25.74,51.69,76.21-38.09,0,0,48.4,32.65,57.67-76.17C1134.12,87.29,1227.05,2.57,1184.39-33.37Z"/><rect id="ground" class="cls-4" x="-146.4" y="801" width="2116.38" height="255"/><path class="cls-4" d="M1916.6,891.14S1794.14,550.78,1790,808.78c0,0-125.66-343.24-137.67-96.62,0,0-261.1-111.38-46.54,106.62,0,0-288.87-139,4.19,155S1916.6,891.14,1916.6,891.14Z"/><path class="cls-7" d="M-130.4,984.74s160.47-452.83,166-109.56c0,0,164.67-456.68,180.41-128.56,0,0,342.17-148.18,61,141.86,0,0,378.56-184.94-5.49,206.22S-130.4,984.74-130.4,984.74Z"/><rect class="cls-7" x="-242.4" y="930" width="2226.38" height="269"/><path class="cls-8" d="M934.47,898.21c-21-12.42-49.66-28.14-76.65-38.21,24.82-8.42,48.48-30.31,58.34-66.69,19.89-73.47-92.44-128.64-114-135.79a62.81,62.81,0,0,0-4.6-4.46c-13-19.76,5.06-71.88,22.25-86.44,2.24-1.89,3.17-4.92,5.79-6.24,7.26-3.67,16.64-11.74,18.82-18.92C875,441,739.36,522.06,741.37,523.52l.67.49c-4.09,1.91-8.21,3.53-8.21,3.53s-23.73,2.26-33.72,18.08c-.11.19-.22.37-.34.55a69.66,69.66,0,0,0-8.84-8.23c23-12.27,15.84-31.45,15.84-31.45-15-2.49-3.91-61.6-3.91-61.6s18.07-10.83-3.58,0c-19.67,9.83-34.53,62.3-37.08,73.66a16.13,16.13,0,0,0-.38,2.1s-.1.6-.19,1.61q-2.76-1-5.57-1.93c-17.95-5.84-33.72-8.05-37-8.06-13.2,0-27.76,5-41.29,13.46a104.75,104.75,0,0,0-13.9,10.42c-21.29,1.2-34.39-65.46-34.39-65.46C489.68,542.41,524,572,534.9,579.15a91.13,91.13,0,0,0-3.44,13.35c-30.05-41.25-74.8-80.76-137.64-72.23-145.92,19.81-47.64-258.84,106.33-314.4,0,0-27.86-52.62-148.92-12S144.48,452.94,207.58,654.2C249.26,787.16,369.7,829,447,841.22,428.6,887.68,417.69,930.78,433.28,944l.31.21c-14.36,17.11-45.81,54.87-52.76,65.56-14.78,22.73-33.5,83.92,18.32,50.78,0,0,28.3.83,27.47-40s0-4.16,0-4.16,4.16-14.16,45-35.8c0,0,6.79-17.11,5-30.81a29,29,0,0,0,5.23-1c37.24-11.44,80.66-45.92,104.65-69a49.1,49.1,0,0,0,5.37-6c3.77-5.07,18.4-18.89,67.1-22.28,48.07-3.33,94,12,124.05-24.65a60.24,60.24,0,0,0,2.5,7.17A46.69,46.69,0,0,0,798.66,852a29.38,29.38,0,0,0-4.89,2.13s-59.11,41.63,15,51.62,107.4,10,122.38,23.31S975.27,922.35,934.47,898.21Zm-213-311.69c11.9-13.42,12.32-18.17,12.32-18.17s-4.33,39.09,8.87,18.17c7.5-11.89,16.65-27,18.72-40.67,6,12.66,5,28.55-16.35,45.69-7.72,6.2-7.65,23.61-5.68,39.29a163.8,163.8,0,0,0-27.52,1c1.49-13.94,2.25-27.29,3-38.23.07-.91.09-1.79.13-2.68C716.24,591.28,718.25,590.19,721.51,586.52Zm-7-8.39a64,64,0,0,0-1.68-8.27c1.29-.54,2.76-1.23,4.47-2.15Zm-5.21-18.35-.15.22c-.26-.55-.55-1.08-.83-1.62C721.22,550.82,709.27,559.78,709.27,559.78Z"/><path class="cls-9" d="M501.46,824.87C500.24,828,256.67,835.46,193.58,634.2s22.59-419.75,143.65-460.35,148.91,12,148.91,12c-154,55.56-252.24,334.21-106.32,314.4,121.14-16.44,175.06,145.62,186,154.62S501.46,824.87,501.46,824.87Z"/><path class="cls-10" d="M784.77,636.77c4.16-1.67,139,56.61,117.39,136.54s-109.9,89.91-130.71,40.79S784.77,636.77,784.77,636.77Z"/><path class="cls-11" d="M426.78,915.67s-50.87,60.14-59.95,74.1c-14.78,22.73-33.5,83.92,18.32,50.78,0,0,28.3.83,27.47-40s0-4.16,0-4.16,4.16-14.16,45-35.8C457.58,960.63,481.72,899.85,426.78,915.67Z"/><path class="cls-12" d="M731.18,640.6a13,13,0,0,0-.34-1.76c-2-7.17-13.88-56,.23-67.3,37.46-30.1,12.34-56.36-3.7-68-2-1.46,133.62-82.55,103.08,17.94-2.18,7.18-11.56,15.25-18.82,18.92-2.62,1.32-3.55,4.35-5.79,6.24C786,563.44,764.92,630.44,792,639.68c17.64,6-26.62,10.62-48.23,11.62a12.17,12.17,0,0,1-12.63-10.7Z"/><path class="cls-13" d="M520.46,670a60,60,0,0,0-27.3,25.68c-27.74,51-105.58,201.4-73.88,228.28,3.73,3.15,35.32,8.85,48.5,4.8,37.24-11.44,80.66-45.92,104.65-69a49.1,49.1,0,0,0,5.37-6c3.77-5.07,18.4-18.89,67.1-22.28,60-4.16,116.56,20.82,143.2-62.44s28.31-136.53-45-155.68C684.5,598.13,565.6,648.94,520.46,670Z"/><path class="cls-14" d="M687.23,627.58s49.95-14.08,49.39,16.49-7.21,12.26,11.93,23.92,10.83,59.11-16.65,46.62c0,0,27.48,54.12-15,51.62,0,0-60.62-13.25-41.81,7.3.18.19,1,31.24-26.87,15.3s-42.67,35.34-55.68,15.94-56.13,16.61-52.89-8.88,15.43-6.39-10.08-44.65c-1.66-2.49-55.17-36.49-9.68-43.22,0,0,2.44-30.39,41.45-36.46S687.23,627.58,687.23,627.58Z"/><path class="cls-15" d="M779.77,834.08s-59.11,41.63,15,51.62,107.4,10,122.38,23.31,44.13-6.66,3.33-30.8S809.75,817.43,779.77,834.08Z"/><path class="cls-16" d="M647.82,500.65a16.13,16.13,0,0,1,.38-2.1c2.55-11.36,17.41-63.83,37.08-73.66,21.65-10.83,3.58,0,3.58,0s-11.07,59.11,3.91,61.6c0,0,8.15,21.85-20.9,33.82S647.82,500.65,647.82,500.65Z"/><path class="cls-14" d="M655.53,505.8s8.1-46.78,19.76-58.44c0,0-9.16,45,2.5,43.3s-.84,25-1.67,25S653.26,506,655.53,505.8Z"/><path class="cls-17" d="M605,492.27c3.32,0,19.09,2.22,37,8.06,31.85,10.35,61.9,30.59,58.84,73.28-3.19,44.51-5.92,129-59.4,130-44.09.79-113.66-61-122.41-93.43-11.22-41.51,10.3-83,44.64-104.46C577.26,497.25,591.82,492.23,605,492.27Z"/><path class="cls-18" d="M524,561s-55.17-26.18-8.55-110.27c0,0,13.13,66.8,34.45,65.46,0,0-4.48,35.28-21.25,44.81A37.86,37.86,0,0,1,524,561Z"/><path class="cls-19" d="M485.89,738.34c.83,1.66,25.8-61.61,57.44-52.45s25,55.78,13.32,60.77-74.93,56.62-112.39,30-45-70.77-45-70.77l-35.8-38.3s-14.15-25.81,10-5c0,0-11.65-30,6.66-5s2.5-3.33,2.5-3.33,5.83-29.14,10.82-10.82l5,18.31s18.31-36.63,20-7.49,3.24,45.57,6.62,44S481.72,730,485.89,738.34Z"/><path class="cls-20" d="M736.07,499c-.32-.21-.54.79-1.17,1.27-3.77,2.84-15.07,7.29-15.07,7.29s-23.73,2.26-33.72,18.08-10.82,24.15,5.83,14.16,3.33,0,3.33,0-13.13,19.2,8,7.93l-3,11.22s-4.67,21,7.24,7.59,12.32-18.17,12.32-18.17-4.33,39.09,8.87,18.17S760.21,514.8,736.07,499Z"/><path class="cls-21" d="M666.37,555.26s-.73,12.09-.49,12.46,4.41-8.55,4.41-8.55-2-4.25-3.92-3.91"/><g class="cls-22"><path class="cls-21" d="M647.21,592.86l9-3.46c10.59-4.07,27-10.35,28.64-10.91,1.09-.36-.33-7.59-3.57-15.48-4.24-10.31-11.6-21.74-20.57-20.32C644.9,545.19,640.36,564,647.21,592.86Z"/><path class="cls-23" d="M654.29,590.14c.19-.41-8.14-42,7.68-37s13.11,29.07,13.11,29.07S654.1,590.55,654.29,590.14Z"/><path class="cls-21" d="M666.9,553.93l-1.6,16.65,5.82-12.28S669.4,554,666.9,553.93Z"/></g><g class="cls-22"><path class="cls-21" d="M553.13,617.84l9-3.46c10.6-4.08,27-10.36,28.65-10.91,1.08-.36-.34-7.6-3.58-15.48-4.24-10.31-11.6-21.74-20.57-20.32C550.82,570.16,546.28,588.92,553.13,617.84Z"/><path class="cls-23" d="M560.21,615.12c.19-.41-8.14-42,7.68-37S581,607.15,581,607.15,560,615.53,560.21,615.12Z"/><path class="cls-21" d="M560.36,579.65l5,16-8.25-10.8S557.94,580.25,560.36,579.65Z"/></g><path class="cls-14" d="M509.2,470.68c0-.06-18.06,43.51,2.8,67.63,22.56,26.09,26.92-22.87,26.92-22.87S507.25,479.67,509.2,470.68Z"/><path class="cls-24" d="M621.13,680.88c2.64-4.81,31.48-17.26,45.79-11.65,16.82,6.59-2.57,25-6.86,27.49-.5.28-.21.4-1.26,1C651.48,701.7,610.18,700.87,621.13,680.88Z"/><circle class="cls-25" cx="659.06" cy="585.15" r="1.25"/><g class="cls-26"><path class="cls-27" d="M714.45,259.19c.38,12.35,1.08,35.49,1.5,49a18.6,18.6,0,0,1-11,17.63c-6.52,2.87-14.18,4.4-23.37,4.4-37.3,0-83.75-31.31-83.75-83.72,0-51.22,45.85-80.61,82.27-80.61,19,0,37,7.11,43.53,29.61h.89a41,41,0,0,1,5.23-6.84,18.82,18.82,0,0,0,1.59-23.76c-10.33-14.45-29-23.59-51.53-23.59-54.78,0-111,47.23-111,111.19,0,65.73,59.16,100.22,108,100.22,22.93,0,40-5.66,56.46-15.76a18.64,18.64,0,0,0,8.85-16.52c-.31-9.55-.47-20.26-.47-33.15,0-5.34,0-11.63.14-17.52a18.75,18.75,0,0,0-19.12-19h-.27A8.21,8.21,0,0,0,714.45,259.19Z"/><path class="cls-27" d="M1316.52,181.08c0-11.18.21-23.82.28-33.72a4.92,4.92,0,0,0-5.17-5c-4.9.25-11.92.4-18.5.46a4.89,4.89,0,0,0-4.86,5c.53,19.14,1,67.3,1.31,82l.7,64.73a4.93,4.93,0,0,1-9.12,2.66L1186,144.8a4.94,4.94,0,0,0-4.49-2.32c-6.66.43-13.94.78-21.72.61a4.93,4.93,0,0,0-5.07,5.09c.38,10,1,26.23,1,38.53V314.62c0,8-.27,16.44-.61,23.5A12.27,12.27,0,0,0,1167.77,351c3.6-.11,7.35-.18,11.18-.21a4.86,4.86,0,0,0,4.82-5c-.42-17.53-1.38-72.81-1.38-77.36V203a4.93,4.93,0,0,1,9.09-2.66c31.91,50,74.73,117.9,92.75,148.71a4.87,4.87,0,0,0,4.41,2.43l4.9-.17a24.22,24.22,0,0,0,23.35-24.7c-.2-9.57-.37-19.39-.37-28Z"/><path class="cls-27" d="M1496.76,142.9a13.36,13.36,0,0,0-13,13.34V269c0,38.79-16.28,59.81-47.08,59.81s-47.07-21-47.07-58.62V156.13a13.34,13.34,0,0,0-13.84-13.33h-.27a13.35,13.35,0,0,0-12.84,13.33V273.46c0,53.89,28.13,79.06,73.43,79.06,46.49,0,74.62-28.43,74.62-82.91V156.23A13.32,13.32,0,0,0,1497,142.9Z"/><path class="cls-27" d="M1820.73,225.18c-24.27-7.42-43.22-14.25-43.2-34.09,0-18.65,16.31-35.22,42.07-35.2,16.59,0,33.46,6,45.55,12.72a1.54,1.54,0,0,0,1.31.08h0a1.54,1.54,0,0,0,.94-1.18,63.79,63.79,0,0,1,2.34-9.59,11.85,11.85,0,0,0-6.07-14.4,110.5,110.5,0,0,0-47.6-11c-35.83,0-65.75,24.52-65.78,61.23,0,34.65,26.31,44.74,58.87,54.83,25.46,8,42.34,13.66,42.32,35.86,0,18.95-17.8,35.81-41.78,35.79-14.73,0-29.6-4.35-41.64-9.95a11.91,11.91,0,0,0-16.28,6.77c0,.07,0,.15-.08.22a11.83,11.83,0,0,0,5.88,14.55,116.72,116.72,0,0,0,51.8,12.1c43.82,0,67.83-30.44,67.86-60.94C1877.27,248.91,1854.77,235.57,1820.73,225.18Z"/><path class="cls-27" d="M926.34,144.85c-20.26-9.18-38.48-14.1-54.77-16a1.51,1.51,0,0,1-1.35-1.49v0c-.58-33.44-15.57-47.86-19.61-51.32s-6.92.58-11.53,2.88a6.1,6.1,0,0,0-3.56,6.24,1.5,1.5,0,0,0,.58,1.06c24.34,19,26.08,41.07,26.08,41.07s.08.32.22.85c-66.66-3.35-97.78,44.62-99.11,46.72l-.08.16c-15.78,32.19,10.15,34.89,12.86,35.08a1.26,1.26,0,0,0,.43,0c2.61-.6,5.51-1.14,8.63-1.61-3.06,1.29-5.25,2.24-6.35,2.73a1.51,1.51,0,0,0-.9,1.27c-.69,8.1-5.31,68.57,7.47,84.9a.87.87,0,0,1,.16.26c1.21,2.59,19.79,41.19,59.91,52.34,1,.26,1.91.49,2.86.7l-1.13.45s4.61,19,18.45,13.84c0,0,9.15-2.31,9.19-13.84,0-.26,0-.5,0-.74,13.9-3.18,26.42-10.53,36.07-18.07l.15-.1c9.9-5.78,18.47-16.2,24.74-30.3,3.57-7.47,7.63-18.61,9.49-35.46A197,197,0,0,0,944,211.5l-.26,0-.18-1.41,0-.15,1.6.13a1.58,1.58,0,0,0,.61-.08c54.19-17.57-16.22-63.07-19.23-65Z"/><path class="cls-27" d="M1607.77,179.13a6.12,6.12,0,0,0-6.17,6.05v.3a4.93,4.93,0,0,0-.59,0h0c-.88,0-67.39-.77-82.4-.74a6.24,6.24,0,0,1-1-.08c-5.6-.81-5.33,3.4-4.42,5.19s20.91,24,61.67,25.12,38.44,6.7,39.69,8.36c8.94,11.89-21.71,27.68-32.54,32.55a6.08,6.08,0,0,0-3.6,5.5l0,3.42a6.11,6.11,0,0,0,6.07,6.19l19.43.16a6.09,6.09,0,0,0,4.49-1.9l1.21-1.26a6.14,6.14,0,0,1,.73-.62,26.39,26.39,0,0,1,6.84-3.39l.59-.17c2.6-.62,6.12-1.2,11.14-1.86a6.18,6.18,0,0,1,5.86,2.61c22.08,31.68-67.36,27-27.39,79.39,11.1,14.55,12.76,9.4,19.92,16.62a6.18,6.18,0,0,0,8.61.15c2.72-2.52,5.64-4.79,8.5-7.14a6.12,6.12,0,0,0-.21-9.62c-5.48-4.13-12-9.89-12.58-11.43-1.34-3.5,26.51-31.12,31.84-58.69a6.12,6.12,0,0,1,10-3.5l.12.11a6.12,6.12,0,0,0,4,1.57l18.65.15a6.12,6.12,0,0,0,6.17-6.05l0-2.66a6.12,6.12,0,0,0-4.8-6.05c-11.11-2.48-36.85-10.87-29.61-34.72,7.82-25.72,56.61-28.55,70.83-28.82a6.12,6.12,0,0,0,5.48-3.66l.75-1.71h.05l.79-1.87h0v-.26a6.11,6.11,0,0,0-6.07-6.19Z"/><path class="cls-27" d="M1578.47,257.37v-.06C1578.34,257.39,1578.35,257.41,1578.47,257.37Z"/></g><path class="cls-28" d="M670.62,314c11.38,0,20.4-2.36,27.83-6.68A13.48,13.48,0,0,0,705,295.22l-1.42-46.69A13.68,13.68,0,0,1,717,234.44h0a13.67,13.67,0,0,1,14,14c-.15,7.19-.23,15.74-.23,22.67,0,11.43.12,21.14.37,29.84a24.58,24.58,0,0,1-12.47,22c-15.35,8.71-31.54,13.56-52.74,13.56-48.86,0-110-36.32-110-102,0-64,58.2-109.36,113-109.36,25.25,0,45.56,11.42,54.84,28.93a13.65,13.65,0,0,1-2.59,16,46.2,46.2,0,0,0-7.54,9.21h-.89c-6.52-22.5-24.58-29.6-43.53-29.6-36.42,0-81.27,30.56-81.27,81.78C587.87,283.88,633.32,314,670.62,314Z"/><path class="cls-28" d="M1142.74,170.71c0-9-.32-20-.64-29.21a13.92,13.92,0,0,1,13.6-14.42q3.88-.09,7.56-.29a14,14,0,0,1,12.6,6.55L1251.14,254c7.46,12,25.94,6.57,25.79-7.53l-.35-32.57c-.23-12.77-.65-50.65-1.1-73a14,14,0,0,1,13.65-14.23h.33a13.94,13.94,0,0,1,14.25,14.09c-.09,7.84-.19,16.41-.19,24.26V282.63c0,11.67.31,25.62.59,38.15a14,14,0,0,1-13.6,14.25c-3.26.08-6.63.17-9.56.26a14,14,0,0,1-12.43-6.83c-15.94-26.9-46.21-75.14-73.4-118-7.48-11.79-25.73-6.49-25.73,7.48v34.46c0,3.94.49,45.84.86,68.31a14,14,0,0,1-13.58,14.18h-.15a13.93,13.93,0,0,1-14.3-14.57c.3-6.68.52-14.39.52-21.73Z"/><path class="cls-28" d="M1362.55,126.81h.27a13.34,13.34,0,0,1,13.84,13.33V254.21c0,37.6,16.28,58.62,47.07,58.62s47.08-21,47.08-59.81V140.24a13.36,13.36,0,0,1,13-13.34h.26a13.32,13.32,0,0,1,13.74,13.33V253.61c0,54.48-28.13,82.91-74.62,82.91-45.3,0-73.43-25.17-73.43-79.06V140.14A13.35,13.35,0,0,1,1362.55,126.81Z"/><path class="cls-28" d="M1550.78,257.85m72.48-34.37a11.54,11.54,0,0,1,16-.59c36.81,32.81-22.61,88.59-20.67,93.66.42,1.09,3.79,4.28,7.66,7.52a11.54,11.54,0,0,1,0,17.69l-.2.16a11.45,11.45,0,0,1-14.3.47c-5.26-4-7.75-1.7-17.45-14.42-41.7-54.65,57.47-47.2,23.88-83.72a11.52,11.52,0,0,1,.37-16.12Q1621,225.85,1623.26,223.48Z"/><path class="cls-28" d="M1738.54,301.7a12.8,12.8,0,0,1,17.29-7.09c11.9,5.43,26.46,9.59,40.87,9.61,24,0,41.76-16.85,41.78-35.8,0-22.2-16.86-27.84-42.32-35.86-32.56-10.09-58.9-20.18-58.87-54.83,0-36.71,30-61.26,65.78-61.23a110,110,0,0,1,43.07,9,16.85,16.85,0,0,1,9.59,19.85c-.54,2-1,4-1.28,5.89a2.07,2.07,0,0,1-1.28,1.59h0a.9.9,0,0,1-.75,0c-12.11-6.75-29.11-12.85-45.82-12.87-25.76,0-42,16.55-42.07,35.2,0,19.84,18.93,26.67,43.2,34.09,34,10.39,56.54,23.73,56.51,57.78,0,30.5-24,61-67.86,60.94-19.61,0-39-5.07-54.41-13.47a9,9,0,0,1-4-11.19Z"/><path class="cls-29" d="M766.91,195.84c-.55,6.3-5.58,68.8,7.48,85.33a.86.86,0,0,1,.1.16c.92,2,19.47,41.15,59.93,52.39C875.94,345.25,914.49,305,919.15,296s22.8-32.63,13.44-102.11c-9.06-67.25-155.73-3-165.16,1.22A.89.89,0,0,0,766.91,195.84Z"/><path class="cls-30" d="M752.27,158.67c1.29-2,51.6-80.57,163.11-30l.11.06c2.17,1.38,73.92,47.42,19.15,65.07a.8.8,0,0,1-.34,0c-5.19-.42-125.56-10.12-168.89,0a1,1,0,0,1-.24,0c-2-.13-29-2.41-12.94-35.12A.79.79,0,0,1,752.27,158.67Z"/><path class="cls-31" d="M898.78,131.14c6.19,6.53,24,26.63,22.73,40.94a.82.82,0,0,0,0,.35c.75,2.12,8.53,23.17,18.4,6.17,9.64-16.61-25.52-44.17-40.27-48.91A.88.88,0,0,0,898.78,131.14Z"/><path class="cls-30" d="M851.17,111c-.12-1.3-2.49-22.78-26.28-41.18a.89.89,0,0,1-.34-.58,6.14,6.14,0,0,1,3.53-6.55c4.61-2.31,7.49-6.34,11.53-2.88s19,17.87,19.61,51.32c.56,32.59-7.61,1.59-8,0A.5.5,0,0,1,851.17,111Z"/><path class="cls-29" d="M836.89,334.58a.88.88,0,0,0-.52,1.07c1,3.52,6.09,17.62,18.23,13.06,0,0,9.15-2.3,9.19-13.84C863.83,324.47,841.28,332.85,836.89,334.58Z"/><path class="cls-28" d="M793.31,202.59a.89.89,0,0,0-.45.7c-.53,6.3-5.76,75.07,17.34,98.72,24.22,24.79,29.41,30.56,46.13,30.56s18.46-1.73,43.83-16.72,42-60.22,33-119.86a.89.89,0,0,0-.76-.75C923.59,194.06,829.34,182,793.31,202.59Z"/><path class="cls-32" d="M904.24,212.28a.9.9,0,0,1,0-.46c.55-1.66,4.5-11.62,17.22-2.08,13.35,10-7.1,88.72-27.72,98.41a.89.89,0,0,1-1.15-1.23C897.31,298.07,914.68,260.85,904.24,212.28Z"/><path class="cls-30" d="M1505.57,168.83l82.14.66a.88.88,0,0,0,.89-.88l.06-4.65a.9.9,0,0,1,.9-.88l142.55,1.16a.88.88,0,0,1,.88.9l-.06,5.35a1,1,0,0,1-.07.35l-2.85,6.49a.87.87,0,0,1-.82.53c-6.53,0-65.47.35-74.13,28.85-8.45,27.8,28,34.61,33.71,35.5a.88.88,0,0,1,.75.89l-.14,12.25a.9.9,0,0,1-.9.88l-25.94-.21a.86.86,0,0,1-.64-.28c-1.81-1.94-13.7-13.49-38-10.74-26.07,2.95-24.25,4.06-30.19,9.93a.94.94,0,0,1-.64.26L1566.2,255a.89.89,0,0,1-.88-.9l.16-12.76c-2.67,1.54,47.19-19.2,36.09-34-1.25-1.66,1.06-7.22-39.69-8.36s-60.71-23.24-61.67-25.12-1.22-6.4,5.2-5.06Z"/><path class="cls-31" d="M1588.86,169.47c11.3-.11,129,1,142.78,1.17a.88.88,0,0,1,.81,1.23l0,.1a.88.88,0,0,1-.83.54l-142.71-1.26a.89.89,0,0,1-.88-.9h0A.89.89,0,0,1,1588.86,169.47Z"/><path class="cls-31" d="M1593.17,255.19s0-.12,0-.33c0-2.41,1.27-17.34,31.56-20.29,33-3.21,38.24,20.65,37.58,20.91s-5-10.56-31-10.59S1598.12,249.61,1593.17,255.19Z"/><path class="cls-31" d="M1588,169.5c.27,0,0,8.93-.12,11.85a.89.89,0,0,1-1,.85c-8.76-.6-77.81-5.51-85.36-12.33,0,0-1.13-.82,1.07-1.07S1587,169.49,1588,169.5Z"/><path class="cls-33" d="M1591.09,560.44c.49-3.39-2.71-3.58-5.56-5.3a4,4,0,0,0-5,.5c-1.83,20.11-13.47,28.81-13.47,28.81l-.38.41c-21.65-38.39-59.78-38-59.78-38-24.35,2.61-14.7,19.26-14.7,19.26,1.26,1.24,2.58,2.67,4,4.26-2.61-1.83-4.17-2.86-4.17-2.86s-39.66,20.22-44.33,33.75c0,0-16,24.2-8,50.86.19.62.41,1.21.62,1.81l-.65-.47s-8.8,9.09-1.19,14.85c0,0,4.42,4.2,10.73.24a4,4,0,0,0,.39-.29c6.54,6.5,14.87,10.8,22.32,13.47l.23.12c6.56,3.36,15.19,4.42,25,3,5.29-.63,12.74-2.26,22.52-7a127.42,127.42,0,0,0,29.63-19.61l-.07-.16.7-.58.08-.06.57,1.09c29.07,24.38,29-32.88,29-32.88-2-14.65-5.78-26.57-10.56-36.28l.76-.49C1587.89,577,1590.59,563.84,1591.09,560.44Z"/><path class="cls-34" d="M450,661.68c-.16-.07-.31-.12-.46-.17,2-9,1.1-18.34-.66-26.06l0-.26c-.69-7.34-4.44-15.18-10.94-22.67-3.38-4.13-8.76-9.53-18-15.21a127.24,127.24,0,0,0-32.46-14.43l-.1.15-.87-.28-.09,0c.39-.7.61-1.07.61-1.07,4.9-37.62-43.33-6.77-43.33-6.77-11.26,9.59-19.28,19.17-24.9,28.42l-.82-.37c-19.71-8.85-32.26-4-35.39-2.63s-1.56,4.21-1.48,7.54a4,4,0,0,0,3.1,3.92c17.93-9.27,31.53-4.15,31.53-4.15l.55.1c-20.71,38.91.14,70.83.14,70.83,15.3,19.12,24.15,2,24.15,2,.37-1.73.86-3.62,1.46-5.63-.14,3.19-.16,5-.16,5s38.38,22.55,52.3,19.21c0,0,29,.45,47.15-20.66.42-.49.81-1,1.2-1.5,0,.51-.05.8-.05.8s12.39,2.53,13.16-7C455.54,670.85,456.7,664.87,450,661.68Z"/><path class="cls-29" d="M332.78,677s38.38,22.55,52.3,19.21c0,0,29,.45,47.15-20.66s5.18-54.71,1.2-59.9-12.82-22.29-56-35.89S332.78,677,332.78,677Z"/><path class="cls-30" d="M307.33,675.54s-33.77-51.66,27.27-103.66c0,0,48.23-30.85,43.33,6.77,0,0-40.39,70.24-46.45,98.92C331.48,677.57,322.63,694.66,307.33,675.54Z"/><path class="cls-31" d="M329.63,582.92s22.45-8.39,32.09-2.63c0,0,16.38,1.93,8.78-9S333.63,576.16,329.63,582.92Z"/><path class="cls-30" d="M306.64,604.61s-13.6-5.12-31.53,4.15a4,4,0,0,1-3.1-3.92c-.08-3.33-1.65-6.13,1.48-7.54s15.68-6.22,35.39,2.63S306.64,604.61,306.64,604.61Z"/><path class="cls-29" d="M433.38,674.84s12.39,2.53,13.16-7c0,0,1.16-6-5.57-9.17S433.38,674.84,433.38,674.84Z"/><path class="cls-28" d="M344.29,663.88S385.88,688.35,407,681s26-8.8,30.54-18.58,4.05-11.26,2.25-30.22S416,591,378.38,579.88C378.38,579.88,341.77,635.94,344.29,663.88Z"/><path class="cls-32" d="M380.24,601.33s-6.47-5.5,3.4-10.74,52.92,31,49.76,44.76C433.4,635.35,416.27,609.61,380.24,601.33Z"/><path class="cls-29" d="M1490,561.53s-39.66,20.22-44.33,33.75c0,0-16,24.2-8,50.86s43.33,33.81,49.84,33.25,25.69,1.19,60.4-27.91S1490,561.53,1490,561.53Z"/><path class="cls-30" d="M1504.93,540.87s61.72-.67,72.7,78.76c0,0,0,57.26-29,32.88,0,0-37.47-71.84-58.38-92.38C1490.23,560.13,1480.58,543.48,1504.93,540.87Z"/><path class="cls-31" d="M1571,609.5s-5,23.44-15.06,28.46c0,0-10.44,12.77,2.91,12.27S1574.55,616.51,1571,609.5Z"/><path class="cls-30" d="M1565.09,578.45s11.64-8.7,13.47-28.81a4,4,0,0,1,5-.5c2.85,1.72,6,1.91,5.56,5.3s-3.2,16.56-21.26,28.42S1565.09,578.45,1565.09,578.45Z"/><path class="cls-29" d="M1437.69,647.48s-8.8,9.09-1.19,14.85c0,0,4.42,4.2,10.73.24S1437.69,647.48,1437.69,647.48Z"/><path class="cls-28" d="M1494.87,578.29s-43,21.89-48.19,43.68-6.54,26.6-.77,35.73,7.32,9.48,24.26,18.17,47.59,2.09,77.16-23.65C1547.33,652.22,1519.78,591.2,1494.87,578.29Z"/><path class="cls-32" d="M1528.24,642.25s8.13-2.49,7.23,8.65-54.62,27.91-64.51,17.85C1471,668.75,1501.88,668.16,1528.24,642.25Z"/></g></svg>